<?xml version="1.0" encoding="utf-8" standalone="no"?>
<!DOCTYPE svg PUBLIC "-//W3C//DTD SVG 1.1//EN"
  "http://www.w3.org/Graphics/SVG/1.1/DTD/svg11.dtd">
<!-- Created with matplotlib (http://matplotlib.org/) -->
<svg height="386.034375pt" version="1.1" viewBox="0 0 609.303125 386.034375" width="609.303125pt" xmlns="http://www.w3.org/2000/svg" xmlns:xlink="http://www.w3.org/1999/xlink">
 <defs>
  <style type="text/css">
*{stroke-linecap:butt;stroke-linejoin:round;}
  </style>
 </defs>
 <g id="figure_1">
  <g id="patch_1">
   <path d="M 0 386.034375 
L 609.303125 386.034375 
L 609.303125 0 
L 0 0 
z
" style="fill:none;"/>
  </g>
  <g id="axes_1">
   <g id="patch_2">
    <path d="M 40.603125 348.478125 
L 598.603125 348.478125 
L 598.603125 22.318125 
L 40.603125 22.318125 
z
" style="fill:#ffffff;"/>
   </g>
   <g id="matplotlib.axis_1">
    <g id="xtick_1">
     <g id="line2d_1">
      <defs>
       <path d="M 0 0 
L 0 3.5 
" id="m7d4f2b4840" style="stroke:#000000;stroke-width:0.8;"/>
      </defs>
      <g>
       <use style="stroke:#000000;stroke-width:0.8;" x="104.251495" xlink:href="#m7d4f2b4840" y="348.478125"/>
      </g>
     </g>
     <g id="text_1">
      <!-- 1770 -->
      <defs>
       <path d="M 12.40625 8.296875 
L 28.515625 8.296875 
L 28.515625 63.921875 
L 10.984375 60.40625 
L 10.984375 69.390625 
L 28.421875 72.90625 
L 38.28125 72.90625 
L 38.28125 8.296875 
L 54.390625 8.296875 
L 54.390625 0 
L 12.40625 0 
z
" id="DejaVuSans-31"/>
       <path d="M 8.203125 72.90625 
L 55.078125 72.90625 
L 55.078125 68.703125 
L 28.609375 0 
L 18.3125 0 
L 43.21875 64.59375 
L 8.203125 64.59375 
z
" id="DejaVuSans-37"/>
       <path d="M 31.78125 66.40625 
Q 24.171875 66.40625 20.328125 58.90625 
Q 16.5 51.421875 16.5 36.375 
Q 16.5 21.390625 20.328125 13.890625 
Q 24.171875 6.390625 31.78125 6.390625 
Q 39.453125 6.390625 43.28125 13.890625 
Q 47.125 21.390625 47.125 36.375 
Q 47.125 51.421875 43.28125 58.90625 
Q 39.453125 66.40625 31.78125 66.40625 
z
M 31.78125 74.21875 
Q 44.046875 74.21875 50.515625 64.515625 
Q 56.984375 54.828125 56.984375 36.375 
Q 56.984375 17.96875 50.515625 8.265625 
Q 44.046875 -1.421875 31.78125 -1.421875 
Q 19.53125 -1.421875 13.0625 8.265625 
Q 6.59375 17.96875 6.59375 36.375 
Q 6.59375 54.828125 13.0625 64.515625 
Q 19.53125 74.21875 31.78125 74.21875 
z
" id="DejaVuSans-30"/>
      </defs>
      <g transform="translate(91.526495 363.076562)scale(0.1 -0.1)">
       <use xlink:href="#DejaVuSans-31"/>
       <use x="63.623047" xlink:href="#DejaVuSans-37"/>
       <use x="127.246094" xlink:href="#DejaVuSans-37"/>
       <use x="190.869141" xlink:href="#DejaVuSans-30"/>
      </g>
     </g>
    </g>
    <g id="xtick_2">
     <g id="line2d_2">
      <g>
       <use style="stroke:#000000;stroke-width:0.8;" x="199.963331" xlink:href="#m7d4f2b4840" y="348.478125"/>
      </g>
     </g>
     <g id="text_2">
      <!-- 1820 -->
      <defs>
       <path d="M 31.78125 34.625 
Q 24.75 34.625 20.71875 30.859375 
Q 16.703125 27.09375 16.703125 20.515625 
Q 16.703125 13.921875 20.71875 10.15625 
Q 24.75 6.390625 31.78125 6.390625 
Q 38.8125 6.390625 42.859375 10.171875 
Q 46.921875 13.96875 46.921875 20.515625 
Q 46.921875 27.09375 42.890625 30.859375 
Q 38.875 34.625 31.78125 34.625 
z
M 21.921875 38.8125 
Q 15.578125 40.375 12.03125 44.71875 
Q 8.5 49.078125 8.5 55.328125 
Q 8.5 64.0625 14.71875 69.140625 
Q 20.953125 74.21875 31.78125 74.21875 
Q 42.671875 74.21875 48.875 69.140625 
Q 55.078125 64.0625 55.078125 55.328125 
Q 55.078125 49.078125 51.53125 44.71875 
Q 48 40.375 41.703125 38.8125 
Q 48.828125 37.15625 52.796875 32.3125 
Q 56.78125 27.484375 56.78125 20.515625 
Q 56.78125 9.90625 50.3125 4.234375 
Q 43.84375 -1.421875 31.78125 -1.421875 
Q 19.734375 -1.421875 13.25 4.234375 
Q 6.78125 9.90625 6.78125 20.515625 
Q 6.78125 27.484375 10.78125 32.3125 
Q 14.796875 37.15625 21.921875 38.8125 
z
M 18.3125 54.390625 
Q 18.3125 48.734375 21.84375 45.5625 
Q 25.390625 42.390625 31.78125 42.390625 
Q 38.140625 42.390625 41.71875 45.5625 
Q 45.3125 48.734375 45.3125 54.390625 
Q 45.3125 60.0625 41.71875 63.234375 
Q 38.140625 66.40625 31.78125 66.40625 
Q 25.390625 66.40625 21.84375 63.234375 
Q 18.3125 60.0625 18.3125 54.390625 
z
" id="DejaVuSans-38"/>
       <path d="M 19.1875 8.296875 
L 53.609375 8.296875 
L 53.609375 0 
L 7.328125 0 
L 7.328125 8.296875 
Q 12.9375 14.109375 22.625 23.890625 
Q 32.328125 33.6875 34.8125 36.53125 
Q 39.546875 41.84375 41.421875 45.53125 
Q 43.3125 49.21875 43.3125 52.78125 
Q 43.3125 58.59375 39.234375 62.25 
Q 35.15625 65.921875 28.609375 65.921875 
Q 23.96875 65.921875 18.8125 64.3125 
Q 13.671875 62.703125 7.8125 59.421875 
L 7.8125 69.390625 
Q 13.765625 71.78125 18.9375 73 
Q 24.125 74.21875 28.421875 74.21875 
Q 39.75 74.21875 46.484375 68.546875 
Q 53.21875 62.890625 53.21875 53.421875 
Q 53.21875 48.921875 51.53125 44.890625 
Q 49.859375 40.875 45.40625 35.40625 
Q 44.1875 33.984375 37.640625 27.21875 
Q 31.109375 20.453125 19.1875 8.296875 
z
" id="DejaVuSans-32"/>
      </defs>
      <g transform="translate(187.238331 363.076562)scale(0.1 -0.1)">
       <use xlink:href="#DejaVuSans-31"/>
       <use x="63.623047" xlink:href="#DejaVuSans-38"/>
       <use x="127.246094" xlink:href="#DejaVuSans-32"/>
       <use x="190.869141" xlink:href="#DejaVuSans-30"/>
      </g>
     </g>
    </g>
    <g id="xtick_3">
     <g id="line2d_3">
      <g>
       <use style="stroke:#000000;stroke-width:0.8;" x="295.675166" xlink:href="#m7d4f2b4840" y="348.478125"/>
      </g>
     </g>
     <g id="text_3">
      <!-- 1870 -->
      <g transform="translate(282.950166 363.076562)scale(0.1 -0.1)">
       <use xlink:href="#DejaVuSans-31"/>
       <use x="63.623047" xlink:href="#DejaVuSans-38"/>
       <use x="127.246094" xlink:href="#DejaVuSans-37"/>
       <use x="190.869141" xlink:href="#DejaVuSans-30"/>
      </g>
     </g>
    </g>
    <g id="xtick_4">
     <g id="line2d_4">
      <g>
       <use style="stroke:#000000;stroke-width:0.8;" x="391.387002" xlink:href="#m7d4f2b4840" y="348.478125"/>
      </g>
     </g>
     <g id="text_4">
      <!-- 1920 -->
      <defs>
       <path d="M 10.984375 1.515625 
L 10.984375 10.5 
Q 14.703125 8.734375 18.5 7.8125 
Q 22.3125 6.890625 25.984375 6.890625 
Q 35.75 6.890625 40.890625 13.453125 
Q 46.046875 20.015625 46.78125 33.40625 
Q 43.953125 29.203125 39.59375 26.953125 
Q 35.25 24.703125 29.984375 24.703125 
Q 19.046875 24.703125 12.671875 31.3125 
Q 6.296875 37.9375 6.296875 49.421875 
Q 6.296875 60.640625 12.9375 67.421875 
Q 19.578125 74.21875 30.609375 74.21875 
Q 43.265625 74.21875 49.921875 64.515625 
Q 56.59375 54.828125 56.59375 36.375 
Q 56.59375 19.140625 48.40625 8.859375 
Q 40.234375 -1.421875 26.421875 -1.421875 
Q 22.703125 -1.421875 18.890625 -0.6875 
Q 15.09375 0.046875 10.984375 1.515625 
z
M 30.609375 32.421875 
Q 37.25 32.421875 41.125 36.953125 
Q 45.015625 41.5 45.015625 49.421875 
Q 45.015625 57.28125 41.125 61.84375 
Q 37.25 66.40625 30.609375 66.40625 
Q 23.96875 66.40625 20.09375 61.84375 
Q 16.21875 57.28125 16.21875 49.421875 
Q 16.21875 41.5 20.09375 36.953125 
Q 23.96875 32.421875 30.609375 32.421875 
z
" id="DejaVuSans-39"/>
      </defs>
      <g transform="translate(378.662002 363.076562)scale(0.1 -0.1)">
       <use xlink:href="#DejaVuSans-31"/>
       <use x="63.623047" xlink:href="#DejaVuSans-39"/>
       <use x="127.246094" xlink:href="#DejaVuSans-32"/>
       <use x="190.869141" xlink:href="#DejaVuSans-30"/>
      </g>
     </g>
    </g>
    <g id="xtick_5">
     <g id="line2d_5">
      <g>
       <use style="stroke:#000000;stroke-width:0.8;" x="487.098837" xlink:href="#m7d4f2b4840" y="348.478125"/>
      </g>
     </g>
     <g id="text_5">
      <!-- 1970 -->
      <g transform="translate(474.373837 363.076562)scale(0.1 -0.1)">
       <use xlink:href="#DejaVuSans-31"/>
       <use x="63.623047" xlink:href="#DejaVuSans-39"/>
       <use x="127.246094" xlink:href="#DejaVuSans-37"/>
       <use x="190.869141" xlink:href="#DejaVuSans-30"/>
      </g>
     </g>
    </g>
    <g id="xtick_6">
     <g id="line2d_6">
      <g>
       <use style="stroke:#000000;stroke-width:0.8;" x="582.810672" xlink:href="#m7d4f2b4840" y="348.478125"/>
      </g>
     </g>
     <g id="text_6">
      <!-- 2020 -->
      <g transform="translate(570.085672 363.076562)scale(0.1 -0.1)">
       <use xlink:href="#DejaVuSans-32"/>
       <use x="63.623047" xlink:href="#DejaVuSans-30"/>
       <use x="127.246094" xlink:href="#DejaVuSans-32"/>
       <use x="190.869141" xlink:href="#DejaVuSans-30"/>
      </g>
     </g>
    </g>
    <g id="xtick_7">
     <g id="line2d_7">
      <defs>
       <path d="M 0 0 
L 0 2 
" id="m12ee491699" style="stroke:#000000;stroke-width:0.6;"/>
      </defs>
      <g>
       <use style="stroke:#000000;stroke-width:0.6;" x="46.824394" xlink:href="#m12ee491699" y="348.478125"/>
      </g>
     </g>
    </g>
    <g id="xtick_8">
     <g id="line2d_8">
      <g>
       <use style="stroke:#000000;stroke-width:0.6;" x="65.966761" xlink:href="#m12ee491699" y="348.478125"/>
      </g>
     </g>
    </g>
    <g id="xtick_9">
     <g id="line2d_9">
      <g>
       <use style="stroke:#000000;stroke-width:0.6;" x="85.109128" xlink:href="#m12ee491699" y="348.478125"/>
      </g>
     </g>
    </g>
    <g id="xtick_10">
     <g id="line2d_10">
      <g>
       <use style="stroke:#000000;stroke-width:0.6;" x="104.251495" xlink:href="#m12ee491699" y="348.478125"/>
      </g>
     </g>
    </g>
    <g id="xtick_11">
     <g id="line2d_11">
      <g>
       <use style="stroke:#000000;stroke-width:0.6;" x="123.393863" xlink:href="#m12ee491699" y="348.478125"/>
      </g>
     </g>
    </g>
    <g id="xtick_12">
     <g id="line2d_12">
      <g>
       <use style="stroke:#000000;stroke-width:0.6;" x="142.53623" xlink:href="#m12ee491699" y="348.478125"/>
      </g>
     </g>
    </g>
    <g id="xtick_13">
     <g id="line2d_13">
      <g>
       <use style="stroke:#000000;stroke-width:0.6;" x="161.678597" xlink:href="#m12ee491699" y="348.478125"/>
      </g>
     </g>
    </g>
    <g id="xtick_14">
     <g id="line2d_14">
      <g>
       <use style="stroke:#000000;stroke-width:0.6;" x="180.820964" xlink:href="#m12ee491699" y="348.478125"/>
      </g>
     </g>
    </g>
    <g id="xtick_15">
     <g id="line2d_15">
      <g>
       <use style="stroke:#000000;stroke-width:0.6;" x="199.963331" xlink:href="#m12ee491699" y="348.478125"/>
      </g>
     </g>
    </g>
    <g id="xtick_16">
     <g id="line2d_16">
      <g>
       <use style="stroke:#000000;stroke-width:0.6;" x="219.105698" xlink:href="#m12ee491699" y="348.478125"/>
      </g>
     </g>
    </g>
    <g id="xtick_17">
     <g id="line2d_17">
      <g>
       <use style="stroke:#000000;stroke-width:0.6;" x="238.248065" xlink:href="#m12ee491699" y="348.478125"/>
      </g>
     </g>
    </g>
    <g id="xtick_18">
     <g id="line2d_18">
      <g>
       <use style="stroke:#000000;stroke-width:0.6;" x="257.390432" xlink:href="#m12ee491699" y="348.478125"/>
      </g>
     </g>
    </g>
    <g id="xtick_19">
     <g id="line2d_19">
      <g>
       <use style="stroke:#000000;stroke-width:0.6;" x="276.532799" xlink:href="#m12ee491699" y="348.478125"/>
      </g>
     </g>
    </g>
    <g id="xtick_20">
     <g id="line2d_20">
      <g>
       <use style="stroke:#000000;stroke-width:0.6;" x="295.675166" xlink:href="#m12ee491699" y="348.478125"/>
      </g>
     </g>
    </g>
    <g id="xtick_21">
     <g id="line2d_21">
      <g>
       <use style="stroke:#000000;stroke-width:0.6;" x="314.817533" xlink:href="#m12ee491699" y="348.478125"/>
      </g>
     </g>
    </g>
    <g id="xtick_22">
     <g id="line2d_22">
      <g>
       <use style="stroke:#000000;stroke-width:0.6;" x="333.9599" xlink:href="#m12ee491699" y="348.478125"/>
      </g>
     </g>
    </g>
    <g id="xtick_23">
     <g id="line2d_23">
      <g>
       <use style="stroke:#000000;stroke-width:0.6;" x="353.102267" xlink:href="#m12ee491699" y="348.478125"/>
      </g>
     </g>
    </g>
    <g id="xtick_24">
     <g id="line2d_24">
      <g>
       <use style="stroke:#000000;stroke-width:0.6;" x="372.244634" xlink:href="#m12ee491699" y="348.478125"/>
      </g>
     </g>
    </g>
    <g id="xtick_25">
     <g id="line2d_25">
      <g>
       <use style="stroke:#000000;stroke-width:0.6;" x="391.387002" xlink:href="#m12ee491699" y="348.478125"/>
      </g>
     </g>
    </g>
    <g id="xtick_26">
     <g id="line2d_26">
      <g>
       <use style="stroke:#000000;stroke-width:0.6;" x="410.529369" xlink:href="#m12ee491699" y="348.478125"/>
      </g>
     </g>
    </g>
    <g id="xtick_27">
     <g id="line2d_27">
      <g>
       <use style="stroke:#000000;stroke-width:0.6;" x="429.671736" xlink:href="#m12ee491699" y="348.478125"/>
      </g>
     </g>
    </g>
    <g id="xtick_28">
     <g id="line2d_28">
      <g>
       <use style="stroke:#000000;stroke-width:0.6;" x="448.814103" xlink:href="#m12ee491699" y="348.478125"/>
      </g>
     </g>
    </g>
    <g id="xtick_29">
     <g id="line2d_29">
      <g>
       <use style="stroke:#000000;stroke-width:0.6;" x="467.95647" xlink:href="#m12ee491699" y="348.478125"/>
      </g>
     </g>
    </g>
    <g id="xtick_30">
     <g id="line2d_30">
      <g>
       <use style="stroke:#000000;stroke-width:0.6;" x="487.098837" xlink:href="#m12ee491699" y="348.478125"/>
      </g>
     </g>
    </g>
    <g id="xtick_31">
     <g id="line2d_31">
      <g>
       <use style="stroke:#000000;stroke-width:0.6;" x="506.241204" xlink:href="#m12ee491699" y="348.478125"/>
      </g>
     </g>
    </g>
    <g id="xtick_32">
     <g id="line2d_32">
      <g>
       <use style="stroke:#000000;stroke-width:0.6;" x="525.383571" xlink:href="#m12ee491699" y="348.478125"/>
      </g>
     </g>
    </g>
    <g id="xtick_33">
     <g id="line2d_33">
      <g>
       <use style="stroke:#000000;stroke-width:0.6;" x="544.525938" xlink:href="#m12ee491699" y="348.478125"/>
      </g>
     </g>
    </g>
    <g id="xtick_34">
     <g id="line2d_34">
      <g>
       <use style="stroke:#000000;stroke-width:0.6;" x="563.668305" xlink:href="#m12ee491699" y="348.478125"/>
      </g>
     </g>
    </g>
    <g id="xtick_35">
     <g id="line2d_35">
      <g>
       <use style="stroke:#000000;stroke-width:0.6;" x="582.810672" xlink:href="#m12ee491699" y="348.478125"/>
      </g>
     </g>
    </g>
    <g id="text_7">
     <!-- Year -->
     <defs>
      <path d="M -0.203125 72.90625 
L 10.40625 72.90625 
L 30.609375 42.921875 
L 50.6875 72.90625 
L 61.28125 72.90625 
L 35.5 34.71875 
L 35.5 0 
L 25.59375 0 
L 25.59375 34.71875 
z
" id="DejaVuSans-59"/>
      <path d="M 56.203125 29.59375 
L 56.203125 25.203125 
L 14.890625 25.203125 
Q 15.484375 15.921875 20.484375 11.0625 
Q 25.484375 6.203125 34.421875 6.203125 
Q 39.59375 6.203125 44.453125 7.46875 
Q 49.3125 8.734375 54.109375 11.28125 
L 54.109375 2.78125 
Q 49.265625 0.734375 44.1875 -0.34375 
Q 39.109375 -1.421875 33.890625 -1.421875 
Q 20.796875 -1.421875 13.15625 6.1875 
Q 5.515625 13.8125 5.515625 26.8125 
Q 5.515625 40.234375 12.765625 48.109375 
Q 20.015625 56 32.328125 56 
Q 43.359375 56 49.78125 48.890625 
Q 56.203125 41.796875 56.203125 29.59375 
z
M 47.21875 32.234375 
Q 47.125 39.59375 43.09375 43.984375 
Q 39.0625 48.390625 32.421875 48.390625 
Q 24.90625 48.390625 20.390625 44.140625 
Q 15.875 39.890625 15.1875 32.171875 
z
" id="DejaVuSans-65"/>
      <path d="M 34.28125 27.484375 
Q 23.390625 27.484375 19.1875 25 
Q 14.984375 22.515625 14.984375 16.5 
Q 14.984375 11.71875 18.140625 8.90625 
Q 21.296875 6.109375 26.703125 6.109375 
Q 34.1875 6.109375 38.703125 11.40625 
Q 43.21875 16.703125 43.21875 25.484375 
L 43.21875 27.484375 
z
M 52.203125 31.203125 
L 52.203125 0 
L 43.21875 0 
L 43.21875 8.296875 
Q 40.140625 3.328125 35.546875 0.953125 
Q 30.953125 -1.421875 24.3125 -1.421875 
Q 15.921875 -1.421875 10.953125 3.296875 
Q 6 8.015625 6 15.921875 
Q 6 25.140625 12.171875 29.828125 
Q 18.359375 34.515625 30.609375 34.515625 
L 43.21875 34.515625 
L 43.21875 35.40625 
Q 43.21875 41.609375 39.140625 45 
Q 35.0625 48.390625 27.6875 48.390625 
Q 23 48.390625 18.546875 47.265625 
Q 14.109375 46.140625 10.015625 43.890625 
L 10.015625 52.203125 
Q 14.9375 54.109375 19.578125 55.046875 
Q 24.21875 56 28.609375 56 
Q 40.484375 56 46.34375 49.84375 
Q 52.203125 43.703125 52.203125 31.203125 
z
" id="DejaVuSans-61"/>
      <path d="M 41.109375 46.296875 
Q 39.59375 47.171875 37.8125 47.578125 
Q 36.03125 48 33.890625 48 
Q 26.265625 48 22.1875 43.046875 
Q 18.109375 38.09375 18.109375 28.8125 
L 18.109375 0 
L 9.078125 0 
L 9.078125 54.6875 
L 18.109375 54.6875 
L 18.109375 46.1875 
Q 20.953125 51.171875 25.484375 53.578125 
Q 30.03125 56 36.53125 56 
Q 37.453125 56 38.578125 55.875 
Q 39.703125 55.765625 41.0625 55.515625 
z
" id="DejaVuSans-72"/>
     </defs>
     <g transform="translate(308.363281 376.754687)scale(0.1 -0.1)">
      <use xlink:href="#DejaVuSans-59"/>
      <use x="60.880859" xlink:href="#DejaVuSans-65"/>
      <use x="122.404297" xlink:href="#DejaVuSans-61"/>
      <use x="183.683594" xlink:href="#DejaVuSans-72"/>
     </g>
    </g>
   </g>
   <g id="matplotlib.axis_2">
    <g id="ytick_1">
     <g id="line2d_36">
      <defs>
       <path d="M 0 0 
L -3.5 0 
" id="m3a7597afc1" style="stroke:#000000;stroke-width:0.8;"/>
      </defs>
      <g>
       <use style="stroke:#000000;stroke-width:0.8;" x="40.603125" xlink:href="#m3a7597afc1" y="329.206045"/>
      </g>
     </g>
     <g id="text_8">
      <!-- 6 -->
      <defs>
       <path d="M 33.015625 40.375 
Q 26.375 40.375 22.484375 35.828125 
Q 18.609375 31.296875 18.609375 23.390625 
Q 18.609375 15.53125 22.484375 10.953125 
Q 26.375 6.390625 33.015625 6.390625 
Q 39.65625 6.390625 43.53125 10.953125 
Q 47.40625 15.53125 47.40625 23.390625 
Q 47.40625 31.296875 43.53125 35.828125 
Q 39.65625 40.375 33.015625 40.375 
z
M 52.59375 71.296875 
L 52.59375 62.3125 
Q 48.875 64.0625 45.09375 64.984375 
Q 41.3125 65.921875 37.59375 65.921875 
Q 27.828125 65.921875 22.671875 59.328125 
Q 17.53125 52.734375 16.796875 39.40625 
Q 19.671875 43.65625 24.015625 45.921875 
Q 28.375 48.1875 33.59375 48.1875 
Q 44.578125 48.1875 50.953125 41.515625 
Q 57.328125 34.859375 57.328125 23.390625 
Q 57.328125 12.15625 50.6875 5.359375 
Q 44.046875 -1.421875 33.015625 -1.421875 
Q 20.359375 -1.421875 13.671875 8.265625 
Q 6.984375 17.96875 6.984375 36.375 
Q 6.984375 53.65625 15.1875 63.9375 
Q 23.390625 74.21875 37.203125 74.21875 
Q 40.921875 74.21875 44.703125 73.484375 
Q 48.484375 72.75 52.59375 71.296875 
z
" id="DejaVuSans-36"/>
      </defs>
      <g transform="translate(27.240625 333.005263)scale(0.1 -0.1)">
       <use xlink:href="#DejaVuSans-36"/>
      </g>
     </g>
    </g>
    <g id="ytick_2">
     <g id="line2d_37">
      <g>
       <use style="stroke:#000000;stroke-width:0.8;" x="40.603125" xlink:href="#m3a7597afc1" y="288.782174"/>
      </g>
     </g>
     <g id="text_9">
      <!-- 8 -->
      <g transform="translate(27.240625 292.581393)scale(0.1 -0.1)">
       <use xlink:href="#DejaVuSans-38"/>
      </g>
     </g>
    </g>
    <g id="ytick_3">
     <g id="line2d_38">
      <g>
       <use style="stroke:#000000;stroke-width:0.8;" x="40.603125" xlink:href="#m3a7597afc1" y="248.358303"/>
      </g>
     </g>
     <g id="text_10">
      <!-- 10 -->
      <g transform="translate(20.878125 252.157522)scale(0.1 -0.1)">
       <use xlink:href="#DejaVuSans-31"/>
       <use x="63.623047" xlink:href="#DejaVuSans-30"/>
      </g>
     </g>
    </g>
    <g id="ytick_4">
     <g id="line2d_39">
      <g>
       <use style="stroke:#000000;stroke-width:0.8;" x="40.603125" xlink:href="#m3a7597afc1" y="207.934433"/>
      </g>
     </g>
     <g id="text_11">
      <!-- 12 -->
      <g transform="translate(20.878125 211.733652)scale(0.1 -0.1)">
       <use xlink:href="#DejaVuSans-31"/>
       <use x="63.623047" xlink:href="#DejaVuSans-32"/>
      </g>
     </g>
    </g>
    <g id="ytick_5">
     <g id="line2d_40">
      <g>
       <use style="stroke:#000000;stroke-width:0.8;" x="40.603125" xlink:href="#m3a7597afc1" y="167.510562"/>
      </g>
     </g>
     <g id="text_12">
      <!-- 14 -->
      <defs>
       <path d="M 37.796875 64.3125 
L 12.890625 25.390625 
L 37.796875 25.390625 
z
M 35.203125 72.90625 
L 47.609375 72.90625 
L 47.609375 25.390625 
L 58.015625 25.390625 
L 58.015625 17.1875 
L 47.609375 17.1875 
L 47.609375 0 
L 37.796875 0 
L 37.796875 17.1875 
L 4.890625 17.1875 
L 4.890625 26.703125 
z
" id="DejaVuSans-34"/>
      </defs>
      <g transform="translate(20.878125 171.309781)scale(0.1 -0.1)">
       <use xlink:href="#DejaVuSans-31"/>
       <use x="63.623047" xlink:href="#DejaVuSans-34"/>
      </g>
     </g>
    </g>
    <g id="ytick_6">
     <g id="line2d_41">
      <g>
       <use style="stroke:#000000;stroke-width:0.8;" x="40.603125" xlink:href="#m3a7597afc1" y="127.086692"/>
      </g>
     </g>
     <g id="text_13">
      <!-- 16 -->
      <g transform="translate(20.878125 130.88591)scale(0.1 -0.1)">
       <use xlink:href="#DejaVuSans-31"/>
       <use x="63.623047" xlink:href="#DejaVuSans-36"/>
      </g>
     </g>
    </g>
    <g id="ytick_7">
     <g id="line2d_42">
      <g>
       <use style="stroke:#000000;stroke-width:0.8;" x="40.603125" xlink:href="#m3a7597afc1" y="86.662821"/>
      </g>
     </g>
     <g id="text_14">
      <!-- 18 -->
      <g transform="translate(20.878125 90.46204)scale(0.1 -0.1)">
       <use xlink:href="#DejaVuSans-31"/>
       <use x="63.623047" xlink:href="#DejaVuSans-38"/>
      </g>
     </g>
    </g>
    <g id="ytick_8">
     <g id="line2d_43">
      <g>
       <use style="stroke:#000000;stroke-width:0.8;" x="40.603125" xlink:href="#m3a7597afc1" y="46.23895"/>
      </g>
     </g>
     <g id="text_15">
      <!-- 20 -->
      <g transform="translate(20.878125 50.038169)scale(0.1 -0.1)">
       <use xlink:href="#DejaVuSans-32"/>
       <use x="63.623047" xlink:href="#DejaVuSans-30"/>
      </g>
     </g>
    </g>
    <g id="text_16">
     <!-- Average Temperature -->
     <defs>
      <path d="M 34.1875 63.1875 
L 20.796875 26.90625 
L 47.609375 26.90625 
z
M 28.609375 72.90625 
L 39.796875 72.90625 
L 67.578125 0 
L 57.328125 0 
L 50.6875 18.703125 
L 17.828125 18.703125 
L 11.1875 0 
L 0.78125 0 
z
" id="DejaVuSans-41"/>
      <path d="M 2.984375 54.6875 
L 12.5 54.6875 
L 29.59375 8.796875 
L 46.6875 54.6875 
L 56.203125 54.6875 
L 35.6875 0 
L 23.484375 0 
z
" id="DejaVuSans-76"/>
      <path d="M 45.40625 27.984375 
Q 45.40625 37.75 41.375 43.109375 
Q 37.359375 48.484375 30.078125 48.484375 
Q 22.859375 48.484375 18.828125 43.109375 
Q 14.796875 37.75 14.796875 27.984375 
Q 14.796875 18.265625 18.828125 12.890625 
Q 22.859375 7.515625 30.078125 7.515625 
Q 37.359375 7.515625 41.375 12.890625 
Q 45.40625 18.265625 45.40625 27.984375 
z
M 54.390625 6.78125 
Q 54.390625 -7.171875 48.1875 -13.984375 
Q 42 -20.796875 29.203125 -20.796875 
Q 24.46875 -20.796875 20.265625 -20.09375 
Q 16.0625 -19.390625 12.109375 -17.921875 
L 12.109375 -9.1875 
Q 16.0625 -11.328125 19.921875 -12.34375 
Q 23.78125 -13.375 27.78125 -13.375 
Q 36.625 -13.375 41.015625 -8.765625 
Q 45.40625 -4.15625 45.40625 5.171875 
L 45.40625 9.625 
Q 42.625 4.78125 38.28125 2.390625 
Q 33.9375 0 27.875 0 
Q 17.828125 0 11.671875 7.65625 
Q 5.515625 15.328125 5.515625 27.984375 
Q 5.515625 40.671875 11.671875 48.328125 
Q 17.828125 56 27.875 56 
Q 33.9375 56 38.28125 53.609375 
Q 42.625 51.21875 45.40625 46.390625 
L 45.40625 54.6875 
L 54.390625 54.6875 
z
" id="DejaVuSans-67"/>
      <path id="DejaVuSans-20"/>
      <path d="M -0.296875 72.90625 
L 61.375 72.90625 
L 61.375 64.59375 
L 35.5 64.59375 
L 35.5 0 
L 25.59375 0 
L 25.59375 64.59375 
L -0.296875 64.59375 
z
" id="DejaVuSans-54"/>
      <path d="M 52 44.1875 
Q 55.375 50.25 60.0625 53.125 
Q 64.75 56 71.09375 56 
Q 79.640625 56 84.28125 50.015625 
Q 88.921875 44.046875 88.921875 33.015625 
L 88.921875 0 
L 79.890625 0 
L 79.890625 32.71875 
Q 79.890625 40.578125 77.09375 44.375 
Q 74.3125 48.1875 68.609375 48.1875 
Q 61.625 48.1875 57.5625 43.546875 
Q 53.515625 38.921875 53.515625 30.90625 
L 53.515625 0 
L 44.484375 0 
L 44.484375 32.71875 
Q 44.484375 40.625 41.703125 44.40625 
Q 38.921875 48.1875 33.109375 48.1875 
Q 26.21875 48.1875 22.15625 43.53125 
Q 18.109375 38.875 18.109375 30.90625 
L 18.109375 0 
L 9.078125 0 
L 9.078125 54.6875 
L 18.109375 54.6875 
L 18.109375 46.1875 
Q 21.1875 51.21875 25.484375 53.609375 
Q 29.78125 56 35.6875 56 
Q 41.65625 56 45.828125 52.96875 
Q 50 49.953125 52 44.1875 
z
" id="DejaVuSans-6d"/>
      <path d="M 18.109375 8.203125 
L 18.109375 -20.796875 
L 9.078125 -20.796875 
L 9.078125 54.6875 
L 18.109375 54.6875 
L 18.109375 46.390625 
Q 20.953125 51.265625 25.265625 53.625 
Q 29.59375 56 35.59375 56 
Q 45.5625 56 51.78125 48.09375 
Q 58.015625 40.1875 58.015625 27.296875 
Q 58.015625 14.40625 51.78125 6.484375 
Q 45.5625 -1.421875 35.59375 -1.421875 
Q 29.59375 -1.421875 25.265625 0.953125 
Q 20.953125 3.328125 18.109375 8.203125 
z
M 48.6875 27.296875 
Q 48.6875 37.203125 44.609375 42.84375 
Q 40.53125 48.484375 33.40625 48.484375 
Q 26.265625 48.484375 22.1875 42.84375 
Q 18.109375 37.203125 18.109375 27.296875 
Q 18.109375 17.390625 22.1875 11.75 
Q 26.265625 6.109375 33.40625 6.109375 
Q 40.53125 6.109375 44.609375 11.75 
Q 48.6875 17.390625 48.6875 27.296875 
z
" id="DejaVuSans-70"/>
      <path d="M 18.3125 70.21875 
L 18.3125 54.6875 
L 36.8125 54.6875 
L 36.8125 47.703125 
L 18.3125 47.703125 
L 18.3125 18.015625 
Q 18.3125 11.328125 20.140625 9.421875 
Q 21.96875 7.515625 27.59375 7.515625 
L 36.8125 7.515625 
L 36.8125 0 
L 27.59375 0 
Q 17.1875 0 13.234375 3.875 
Q 9.28125 7.765625 9.28125 18.015625 
L 9.28125 47.703125 
L 2.6875 47.703125 
L 2.6875 54.6875 
L 9.28125 54.6875 
L 9.28125 70.21875 
z
" id="DejaVuSans-74"/>
      <path d="M 8.5 21.578125 
L 8.5 54.6875 
L 17.484375 54.6875 
L 17.484375 21.921875 
Q 17.484375 14.15625 20.5 10.265625 
Q 23.53125 6.390625 29.59375 6.390625 
Q 36.859375 6.390625 41.078125 11.03125 
Q 45.3125 15.671875 45.3125 23.6875 
L 45.3125 54.6875 
L 54.296875 54.6875 
L 54.296875 0 
L 45.3125 0 
L 45.3125 8.40625 
Q 42.046875 3.421875 37.71875 1 
Q 33.40625 -1.421875 27.6875 -1.421875 
Q 18.265625 -1.421875 13.375 4.4375 
Q 8.5 10.296875 8.5 21.578125 
z
M 31.109375 56 
z
" id="DejaVuSans-75"/>
     </defs>
     <g transform="translate(14.798438 240.427031)rotate(-90)scale(0.1 -0.1)">
      <use xlink:href="#DejaVuSans-41"/>
      <use x="68.330078" xlink:href="#DejaVuSans-76"/>
      <use x="127.509766" xlink:href="#DejaVuSans-65"/>
      <use x="189.033203" xlink:href="#DejaVuSans-72"/>
      <use x="230.146484" xlink:href="#DejaVuSans-61"/>
      <use x="291.425781" xlink:href="#DejaVuSans-67"/>
      <use x="354.902344" xlink:href="#DejaVuSans-65"/>
      <use x="416.425781" xlink:href="#DejaVuSans-20"/>
      <use x="448.212891" xlink:href="#DejaVuSans-54"/>
      <use x="509.03125" xlink:href="#DejaVuSans-65"/>
      <use x="570.554688" xlink:href="#DejaVuSans-6d"/>
      <use x="667.966797" xlink:href="#DejaVuSans-70"/>
      <use x="731.443359" xlink:href="#DejaVuSans-65"/>
      <use x="792.966797" xlink:href="#DejaVuSans-72"/>
      <use x="834.080078" xlink:href="#DejaVuSans-61"/>
      <use x="895.359375" xlink:href="#DejaVuSans-74"/>
      <use x="934.568359" xlink:href="#DejaVuSans-75"/>
      <use x="997.947266" xlink:href="#DejaVuSans-72"/>
      <use x="1039.029297" xlink:href="#DejaVuSans-65"/>
     </g>
    </g>
   </g>
   <g id="line2d_44">
    <path clip-path="url(#p4bed603785)" d="M 199.963331 109.300189 
L 201.877568 100.204818 
L 203.791804 89.290373 
L 205.706041 97.577266 
L 207.620278 88.684015 
L 209.534514 78.982286 
L 211.448751 88.077657 
L 213.362988 74.131421 
L 217.191461 88.886134 
L 219.105698 72.918705 
L 221.019935 107.278995 
L 222.934171 90.503089 
L 224.848408 80.80136 
L 226.762645 76.556853 
L 228.676881 115.363769 
L 230.591118 113.544695 
L 232.505355 97.375147 
L 234.419592 116.172247 
L 236.333828 93.939118 
L 238.248065 94.343356 
L 240.162302 93.534879 
L 242.076538 87.06706 
L 243.990775 97.981505 
L 245.905012 88.279776 
L 247.819248 91.513686 
L 249.733485 82.822553 
L 251.647722 105.66204 
L 253.561959 98.789982 
L 255.476195 89.492492 
L 257.390432 91.917924 
L 259.304669 88.481895 
L 261.218905 98.789982 
L 263.133142 103.438727 
L 265.047379 83.83315 
L 266.961616 94.545476 
L 268.875852 108.289592 
L 270.790089 100.609056 
L 272.704326 88.684015 
L 274.618562 88.481895 
L 276.532799 79.790763 
L 278.447036 78.375928 
L 280.361273 79.588644 
L 282.275509 88.684015 
L 284.189746 98.587863 
L 286.103983 87.673418 
L 288.018219 90.907327 
L 289.932456 77.56745 
L 291.846693 94.545476 
L 293.760929 108.087472 
L 295.675166 90.300969 
L 297.589403 81.205599 
L 299.50364 101.215414 
L 301.417876 99.39634 
L 303.332113 81.811957 
L 305.24635 102.023892 
L 307.160586 93.33276 
L 309.074823 96.162431 
L 310.98906 86.460702 
L 312.903297 79.184405 
L 314.817533 91.715805 
L 316.73177 83.226792 
L 318.646007 82.418315 
L 320.560243 91.311566 
L 322.47448 97.981505 
L 324.388717 110.512905 
L 326.302953 102.428131 
L 328.21719 88.886134 
L 330.131427 101.215414 
L 332.045664 92.524282 
L 333.9599 76.556853 
L 335.874137 99.800579 
L 337.788374 102.63025 
L 339.70261 86.460702 
L 341.616847 87.471298 
L 343.531084 106.470518 
L 345.445321 74.53566 
L 347.359557 88.077657 
L 349.273794 98.587863 
L 351.188031 94.949715 
L 353.102267 85.045866 
L 355.016504 86.258582 
L 356.930741 86.056463 
L 358.844977 114.151053 
L 360.759214 84.237389 
L 362.673451 107.481114 
L 364.587688 100.811176 
L 366.501924 77.76957 
L 368.416161 81.811957 
L 370.330398 74.131421 
L 372.244634 76.758973 
L 374.158871 64.227573 
L 376.073108 104.853563 
L 377.987345 95.353953 
L 379.901581 91.715805 
L 381.815818 93.33276 
L 383.730055 82.014076 
L 385.644291 100.811176 
L 387.558528 82.620434 
L 389.472765 98.587863 
L 391.387002 95.758192 
L 393.301238 56.749157 
L 395.215475 74.53566 
L 397.129712 83.631031 
L 399.043948 97.173027 
L 400.958185 66.855124 
L 402.872422 94.343356 
L 404.786658 70.695392 
L 406.700895 88.077657 
L 408.615132 95.151834 
L 410.529369 85.854344 
L 412.443605 75.142018 
L 414.357842 86.86494 
L 416.272079 59.578828 
L 418.186315 59.578828 
L 420.100552 84.843747 
L 422.014789 82.418315 
L 423.929026 87.875537 
L 425.843262 64.025453 
L 427.757499 63.216976 
L 429.671736 103.034489 
L 431.585972 81.205599 
L 433.500209 87.875537 
L 435.414446 78.173808 
L 437.328682 78.578047 
L 439.242919 85.450105 
L 441.157156 68.26996 
L 443.071393 87.471298 
L 444.985629 81.407718 
L 446.899866 85.652224 
L 448.814103 83.631031 
L 450.728339 73.929302 
L 452.642576 69.482676 
L 454.556813 70.089034 
L 456.47105 52.908889 
L 458.385286 71.908108 
L 460.299523 59.174589 
L 462.21376 84.641628 
L 464.127996 94.141237 
L 466.042233 91.715805 
L 467.95647 92.524282 
L 469.870706 93.13064 
L 471.784943 80.195002 
L 473.69918 69.684795 
L 475.613417 78.982286 
L 477.527653 75.748376 
L 479.44189 94.545476 
L 481.356127 79.992882 
L 483.270363 99.59846 
L 485.1846 83.631031 
L 487.098837 88.481895 
L 489.013074 76.354734 
L 490.92731 80.397121 
L 492.841547 87.06706 
L 494.755784 81.407718 
L 496.67002 87.673418 
L 498.584257 97.779385 
L 500.498494 68.876318 
L 502.41273 90.300969 
L 504.326967 104.651443 
L 506.241204 71.099631 
L 508.155441 78.375928 
L 510.069677 83.226792 
L 511.983914 102.832369 
L 513.898151 77.163211 
L 515.812387 82.216195 
L 517.726624 69.886915 
L 519.640861 81.003479 
L 521.555098 82.822553 
L 523.469334 97.173027 
L 525.383571 67.057244 
L 527.297808 77.163211 
L 529.212044 82.822553 
L 531.126281 90.300969 
L 533.040518 80.397121 
L 534.954755 77.56745 
L 536.868991 77.971689 
L 538.783228 89.694611 
L 540.697465 49.270741 
L 542.611701 54.121605 
L 544.525938 68.472079 
L 548.354411 82.822553 
L 550.268648 75.546257 
L 552.182885 74.939899 
L 554.097122 63.823334 
L 556.011358 49.270741 
L 557.925595 78.173808 
L 559.839832 76.152615 
L 561.754068 78.173808 
L 563.668305 72.716586 
L 565.582542 52.50465 
L 567.496779 46.44107 
L 569.411015 37.14358 
L 569.411015 37.14358 
" style="fill:none;stroke:#1f77b4;stroke-linecap:square;stroke-width:1.5;"/>
   </g>
   <g id="line2d_45">
    <path clip-path="url(#p4bed603785)" d="M 65.966761 274.229581 
L 67.880998 289.186413 
L 69.795235 333.65267 
L 71.709471 280.899519 
L 73.623708 279.282564 
L 75.537945 281.505877 
L 77.452182 271.602029 
L 79.366418 268.166 
L 81.280655 314.249213 
L 83.194892 288.984293 
L 85.109128 305.153842 
L 87.023365 273.218984 
L 88.937602 276.452894 
L 90.851839 298.888142 
L 92.766075 280.6974 
L 94.680312 283.72919 
L 96.594549 280.495281 
L 98.508785 284.335548 
L 100.423022 313.440735 
L 102.337259 295.047874 
L 104.251495 295.047874 
L 106.165732 291.813964 
L 108.079969 284.941906 
L 109.994206 284.335548 
L 111.908442 273.218984 
L 113.822679 264.93209 
L 115.736916 282.718593 
L 117.651152 283.527071 
L 119.565389 277.867729 
L 123.393863 259.879107 
L 125.308099 286.760981 
L 127.222336 290.803368 
L 129.136573 295.249993 
L 131.050809 291.611845 
L 132.965046 301.717813 
L 134.879283 283.527071 
L 136.79352 288.175816 
L 138.707756 279.686803 
L 140.621993 282.112235 
L 142.53623 289.186413 
L 144.450466 284.133429 
L 146.364703 286.9631 
L 148.27894 284.133429 
L 150.193176 278.069848 
L 152.107413 281.707997 
L 154.02165 283.324952 
L 155.935887 278.474087 
L 157.850123 275.240177 
L 159.76436 278.474087 
L 161.678597 279.080445 
L 163.592833 276.857132 
L 165.50707 277.059252 
L 167.421307 278.676206 
L 169.335544 271.804148 
L 171.24978 277.46349 
L 173.164017 280.091042 
L 175.078254 283.122832 
L 176.99249 296.26059 
L 178.906727 307.377155 
L 180.820964 310.611064 
L 182.7352 311.82378 
L 184.649437 307.983513 
L 186.563674 294.037277 
L 188.477911 297.069068 
L 190.392147 304.143245 
L 192.306384 310.206826 
L 194.220621 309.398348 
L 196.134857 292.218203 
L 198.049094 301.515693 
L 199.963331 296.462709 
L 201.877568 286.9631 
L 203.791804 284.941906 
L 205.706041 294.441516 
L 207.620278 277.66561 
L 209.534514 280.899519 
L 211.448751 281.505877 
L 213.362988 272.410506 
L 215.277224 285.346145 
L 217.191461 289.99489 
L 219.105698 278.271968 
L 221.019935 296.058471 
L 222.934171 299.898738 
L 224.848408 288.580055 
L 226.762645 285.750384 
L 228.676881 301.111455 
L 230.591118 294.845755 
L 232.505355 301.313574 
L 234.419592 298.686022 
L 236.333828 296.26059 
L 238.248065 292.824561 
L 240.162302 295.047874 
L 242.076538 288.377935 
L 243.990775 285.346145 
L 245.905012 295.856351 
L 247.819248 291.813964 
L 249.733485 277.66561 
L 251.647722 286.9631 
L 253.561959 289.186413 
L 255.476195 289.186413 
L 257.390432 290.803368 
L 259.304669 285.144026 
L 261.218905 286.760981 
L 263.133142 287.973697 
L 265.047379 284.537668 
L 266.961616 286.558861 
L 268.875852 288.782174 
L 270.790089 293.633039 
L 272.704326 286.760981 
L 274.618562 283.72919 
L 276.532799 289.590651 
L 278.447036 291.813964 
L 280.361273 297.675426 
L 282.275509 286.558861 
L 284.189746 289.186413 
L 286.103983 285.144026 
L 288.018219 282.920713 
L 289.932456 279.888923 
L 291.846693 283.72919 
L 293.760929 280.091042 
L 295.675166 284.739787 
L 297.589403 286.356742 
L 299.50364 284.941906 
L 301.417876 281.707997 
L 303.332113 280.091042 
L 305.24635 291.611845 
L 307.160586 287.165219 
L 309.074823 277.867729 
L 310.98906 272.006268 
L 312.903297 285.346145 
L 314.817533 286.356742 
L 316.73177 283.324952 
L 318.646007 286.154622 
L 320.560243 289.186413 
L 322.47448 293.430919 
L 324.388717 290.399129 
L 326.302953 289.792771 
L 328.21719 290.601248 
L 330.131427 286.9631 
L 332.045664 282.314355 
L 333.9599 289.388532 
L 337.788374 287.367339 
L 339.70261 287.569458 
L 341.616847 285.548264 
L 343.531084 285.750384 
L 345.445321 284.537668 
L 347.359557 282.920713 
L 349.273794 285.144026 
L 351.188031 280.6974 
L 353.102267 278.676206 
L 355.016504 277.867729 
L 356.930741 282.718593 
L 358.844977 284.335548 
L 360.759214 286.9631 
L 362.673451 284.133429 
L 364.587688 281.101639 
L 366.501924 289.792771 
L 368.416161 284.941906 
L 370.330398 285.144026 
L 372.244634 284.335548 
L 374.158871 285.144026 
L 376.073108 285.346145 
L 377.987345 282.718593 
L 379.901581 276.857132 
L 381.815818 276.857132 
L 383.730055 284.133429 
L 385.644291 288.377935 
L 387.558528 286.154622 
L 389.472765 281.101639 
L 391.387002 281.505877 
L 393.301238 277.261371 
L 395.215475 280.495281 
L 397.129712 280.293161 
L 399.043948 278.474087 
L 400.958185 278.069848 
L 402.872422 274.027461 
L 404.786658 278.271968 
L 406.700895 276.048655 
L 408.615132 283.93131 
L 410.529369 276.048655 
L 412.443605 274.229581 
L 414.357842 274.4317 
L 416.272079 281.910116 
L 418.186315 276.048655 
L 420.100552 278.271968 
L 422.014789 277.66561 
L 425.843262 271.39991 
L 427.757499 273.421103 
L 429.671736 273.421103 
L 431.585972 273.218984 
L 433.500209 274.027461 
L 435.414446 273.421103 
L 437.328682 271.602029 
L 439.242919 277.059252 
L 441.157156 275.038058 
L 443.071393 272.612626 
L 444.985629 273.623223 
L 446.899866 276.857132 
L 448.814103 281.303758 
L 450.728339 276.048655 
L 452.642576 275.846535 
L 454.556813 271.19779 
L 456.47105 277.46349 
L 458.385286 276.048655 
L 460.299523 283.122832 
L 462.21376 274.027461 
L 464.127996 273.218984 
L 466.042233 274.027461 
L 467.95647 277.059252 
L 469.870706 272.612626 
L 471.784943 273.623223 
L 473.69918 271.39991 
L 475.613417 280.495281 
L 477.527653 278.069848 
L 479.44189 276.655013 
L 481.356127 274.633819 
L 483.270363 278.271968 
L 485.1846 276.655013 
L 487.098837 274.633819 
L 490.92731 278.676206 
L 492.841547 269.580836 
L 494.755784 279.282564 
L 496.67002 273.825342 
L 498.584257 281.707997 
L 500.498494 271.602029 
L 502.41273 274.835939 
L 504.326967 274.027461 
L 506.241204 268.974477 
L 508.155441 265.13421 
L 510.069677 275.846535 
L 511.983914 267.963881 
L 513.898151 274.835939 
L 515.812387 275.442297 
L 519.640861 268.772358 
L 521.555098 264.527852 
L 523.469334 270.187194 
L 525.383571 263.921494 
L 527.297808 264.93209 
L 529.212044 271.804148 
L 531.126281 271.19779 
L 533.040518 267.761761 
L 534.954755 261.496061 
L 536.868991 267.761761 
L 538.783228 264.527852 
L 540.697465 258.060032 
L 542.611701 262.708778 
L 544.525938 264.527852 
L 546.440175 260.283345 
L 548.354411 257.049436 
L 550.268648 257.857913 
L 552.182885 262.102419 
L 554.097122 254.421884 
L 556.011358 257.857913 
L 557.925595 253.815526 
L 559.839832 259.879107 
L 561.754068 258.262152 
L 563.668305 254.421884 
L 565.582542 258.060032 
L 567.496779 258.262152 
L 569.411015 256.240958 
L 571.325252 257.049436 
L 573.239489 251.794332 
L 573.239489 251.794332 
" style="fill:none;stroke:#ff7f0e;stroke-linecap:square;stroke-width:1.5;"/>
   </g>
   <g id="patch_3">
    <path d="M 40.603125 348.478125 
L 40.603125 22.318125 
" style="fill:none;stroke:#000000;stroke-linecap:square;stroke-linejoin:miter;stroke-width:0.8;"/>
   </g>
   <g id="patch_4">
    <path d="M 598.603125 348.478125 
L 598.603125 22.318125 
" style="fill:none;stroke:#000000;stroke-linecap:square;stroke-linejoin:miter;stroke-width:0.8;"/>
   </g>
   <g id="patch_5">
    <path d="M 40.603125 348.478125 
L 598.603125 348.478125 
" style="fill:none;stroke:#000000;stroke-linecap:square;stroke-linejoin:miter;stroke-width:0.8;"/>
   </g>
   <g id="patch_6">
    <path d="M 40.603125 22.318125 
L 598.603125 22.318125 
" style="fill:none;stroke:#000000;stroke-linecap:square;stroke-linejoin:miter;stroke-width:0.8;"/>
   </g>
   <g id="text_17">
    <!-- Comparison of Average Temperature -->
    <defs>
     <path d="M 64.40625 67.28125 
L 64.40625 56.890625 
Q 59.421875 61.53125 53.78125 63.8125 
Q 48.140625 66.109375 41.796875 66.109375 
Q 29.296875 66.109375 22.65625 58.46875 
Q 16.015625 50.828125 16.015625 36.375 
Q 16.015625 21.96875 22.65625 14.328125 
Q 29.296875 6.6875 41.796875 6.6875 
Q 48.140625 6.6875 53.78125 8.984375 
Q 59.421875 11.28125 64.40625 15.921875 
L 64.40625 5.609375 
Q 59.234375 2.09375 53.4375 0.328125 
Q 47.65625 -1.421875 41.21875 -1.421875 
Q 24.65625 -1.421875 15.125 8.703125 
Q 5.609375 18.84375 5.609375 36.375 
Q 5.609375 53.953125 15.125 64.078125 
Q 24.65625 74.21875 41.21875 74.21875 
Q 47.75 74.21875 53.53125 72.484375 
Q 59.328125 70.75 64.40625 67.28125 
z
" id="DejaVuSans-43"/>
     <path d="M 30.609375 48.390625 
Q 23.390625 48.390625 19.1875 42.75 
Q 14.984375 37.109375 14.984375 27.296875 
Q 14.984375 17.484375 19.15625 11.84375 
Q 23.34375 6.203125 30.609375 6.203125 
Q 37.796875 6.203125 41.984375 11.859375 
Q 46.1875 17.53125 46.1875 27.296875 
Q 46.1875 37.015625 41.984375 42.703125 
Q 37.796875 48.390625 30.609375 48.390625 
z
M 30.609375 56 
Q 42.328125 56 49.015625 48.375 
Q 55.71875 40.765625 55.71875 27.296875 
Q 55.71875 13.875 49.015625 6.21875 
Q 42.328125 -1.421875 30.609375 -1.421875 
Q 18.84375 -1.421875 12.171875 6.21875 
Q 5.515625 13.875 5.515625 27.296875 
Q 5.515625 40.765625 12.171875 48.375 
Q 18.84375 56 30.609375 56 
z
" id="DejaVuSans-6f"/>
     <path d="M 9.421875 54.6875 
L 18.40625 54.6875 
L 18.40625 0 
L 9.421875 0 
z
M 9.421875 75.984375 
L 18.40625 75.984375 
L 18.40625 64.59375 
L 9.421875 64.59375 
z
" id="DejaVuSans-69"/>
     <path d="M 44.28125 53.078125 
L 44.28125 44.578125 
Q 40.484375 46.53125 36.375 47.5 
Q 32.28125 48.484375 27.875 48.484375 
Q 21.1875 48.484375 17.84375 46.4375 
Q 14.5 44.390625 14.5 40.28125 
Q 14.5 37.15625 16.890625 35.375 
Q 19.28125 33.59375 26.515625 31.984375 
L 29.59375 31.296875 
Q 39.15625 29.25 43.1875 25.515625 
Q 47.21875 21.78125 47.21875 15.09375 
Q 47.21875 7.46875 41.1875 3.015625 
Q 35.15625 -1.421875 24.609375 -1.421875 
Q 20.21875 -1.421875 15.453125 -0.5625 
Q 10.6875 0.296875 5.421875 2 
L 5.421875 11.28125 
Q 10.40625 8.6875 15.234375 7.390625 
Q 20.0625 6.109375 24.8125 6.109375 
Q 31.15625 6.109375 34.5625 8.28125 
Q 37.984375 10.453125 37.984375 14.40625 
Q 37.984375 18.0625 35.515625 20.015625 
Q 33.0625 21.96875 24.703125 23.78125 
L 21.578125 24.515625 
Q 13.234375 26.265625 9.515625 29.90625 
Q 5.8125 33.546875 5.8125 39.890625 
Q 5.8125 47.609375 11.28125 51.796875 
Q 16.75 56 26.8125 56 
Q 31.78125 56 36.171875 55.265625 
Q 40.578125 54.546875 44.28125 53.078125 
z
" id="DejaVuSans-73"/>
     <path d="M 54.890625 33.015625 
L 54.890625 0 
L 45.90625 0 
L 45.90625 32.71875 
Q 45.90625 40.484375 42.875 44.328125 
Q 39.84375 48.1875 33.796875 48.1875 
Q 26.515625 48.1875 22.3125 43.546875 
Q 18.109375 38.921875 18.109375 30.90625 
L 18.109375 0 
L 9.078125 0 
L 9.078125 54.6875 
L 18.109375 54.6875 
L 18.109375 46.1875 
Q 21.34375 51.125 25.703125 53.5625 
Q 30.078125 56 35.796875 56 
Q 45.21875 56 50.046875 50.171875 
Q 54.890625 44.34375 54.890625 33.015625 
z
" id="DejaVuSans-6e"/>
     <path d="M 37.109375 75.984375 
L 37.109375 68.5 
L 28.515625 68.5 
Q 23.6875 68.5 21.796875 66.546875 
Q 19.921875 64.59375 19.921875 59.515625 
L 19.921875 54.6875 
L 34.71875 54.6875 
L 34.71875 47.703125 
L 19.921875 47.703125 
L 19.921875 0 
L 10.890625 0 
L 10.890625 47.703125 
L 2.296875 47.703125 
L 2.296875 54.6875 
L 10.890625 54.6875 
L 10.890625 58.5 
Q 10.890625 67.625 15.140625 71.796875 
Q 19.390625 75.984375 28.609375 75.984375 
z
" id="DejaVuSans-66"/>
    </defs>
    <g transform="translate(208.047187 16.318125)scale(0.12 -0.12)">
     <use xlink:href="#DejaVuSans-43"/>
     <use x="69.824219" xlink:href="#DejaVuSans-6f"/>
     <use x="131.005859" xlink:href="#DejaVuSans-6d"/>
     <use x="228.417969" xlink:href="#DejaVuSans-70"/>
     <use x="291.894531" xlink:href="#DejaVuSans-61"/>
     <use x="353.173828" xlink:href="#DejaVuSans-72"/>
     <use x="394.287109" xlink:href="#DejaVuSans-69"/>
     <use x="422.070312" xlink:href="#DejaVuSans-73"/>
     <use x="474.169922" xlink:href="#DejaVuSans-6f"/>
     <use x="535.351562" xlink:href="#DejaVuSans-6e"/>
     <use x="598.730469" xlink:href="#DejaVuSans-20"/>
     <use x="630.517578" xlink:href="#DejaVuSans-6f"/>
     <use x="691.699219" xlink:href="#DejaVuSans-66"/>
     <use x="726.904297" xlink:href="#DejaVuSans-20"/>
     <use x="758.691406" xlink:href="#DejaVuSans-41"/>
     <use x="827.021484" xlink:href="#DejaVuSans-76"/>
     <use x="886.201172" xlink:href="#DejaVuSans-65"/>
     <use x="947.724609" xlink:href="#DejaVuSans-72"/>
     <use x="988.837891" xlink:href="#DejaVuSans-61"/>
     <use x="1050.117188" xlink:href="#DejaVuSans-67"/>
     <use x="1113.59375" xlink:href="#DejaVuSans-65"/>
     <use x="1175.117188" xlink:href="#DejaVuSans-20"/>
     <use x="1206.904297" xlink:href="#DejaVuSans-54"/>
     <use x="1267.722656" xlink:href="#DejaVuSans-65"/>
     <use x="1329.246094" xlink:href="#DejaVuSans-6d"/>
     <use x="1426.658203" xlink:href="#DejaVuSans-70"/>
     <use x="1490.134766" xlink:href="#DejaVuSans-65"/>
     <use x="1551.658203" xlink:href="#DejaVuSans-72"/>
     <use x="1592.771484" xlink:href="#DejaVuSans-61"/>
     <use x="1654.050781" xlink:href="#DejaVuSans-74"/>
     <use x="1693.259766" xlink:href="#DejaVuSans-75"/>
     <use x="1756.638672" xlink:href="#DejaVuSans-72"/>
     <use x="1797.720703" xlink:href="#DejaVuSans-65"/>
    </g>
   </g>
   <g id="legend_1">
    <g id="patch_7">
     <path d="M 474.545313 201.854375 
L 591.603125 201.854375 
Q 593.603125 201.854375 593.603125 199.854375 
L 593.603125 170.941875 
Q 593.603125 168.941875 591.603125 168.941875 
L 474.545313 168.941875 
Q 472.545313 168.941875 472.545313 170.941875 
L 472.545313 199.854375 
Q 472.545313 201.854375 474.545313 201.854375 
z
" style="fill:#ffffff;opacity:0.8;stroke:#cccccc;stroke-linejoin:miter;"/>
    </g>
    <g id="line2d_46">
     <path d="M 476.545313 177.040312 
L 496.545313 177.040312 
" style="fill:none;stroke:#1f77b4;stroke-linecap:square;stroke-width:1.5;"/>
    </g>
    <g id="line2d_47"/>
    <g id="text_18">
     <!-- dallas_avg_temp -->
     <defs>
      <path d="M 45.40625 46.390625 
L 45.40625 75.984375 
L 54.390625 75.984375 
L 54.390625 0 
L 45.40625 0 
L 45.40625 8.203125 
Q 42.578125 3.328125 38.25 0.953125 
Q 33.9375 -1.421875 27.875 -1.421875 
Q 17.96875 -1.421875 11.734375 6.484375 
Q 5.515625 14.40625 5.515625 27.296875 
Q 5.515625 40.1875 11.734375 48.09375 
Q 17.96875 56 27.875 56 
Q 33.9375 56 38.25 53.625 
Q 42.578125 51.265625 45.40625 46.390625 
z
M 14.796875 27.296875 
Q 14.796875 17.390625 18.875 11.75 
Q 22.953125 6.109375 30.078125 6.109375 
Q 37.203125 6.109375 41.296875 11.75 
Q 45.40625 17.390625 45.40625 27.296875 
Q 45.40625 37.203125 41.296875 42.84375 
Q 37.203125 48.484375 30.078125 48.484375 
Q 22.953125 48.484375 18.875 42.84375 
Q 14.796875 37.203125 14.796875 27.296875 
z
" id="DejaVuSans-64"/>
      <path d="M 9.421875 75.984375 
L 18.40625 75.984375 
L 18.40625 0 
L 9.421875 0 
z
" id="DejaVuSans-6c"/>
      <path d="M 50.984375 -16.609375 
L 50.984375 -23.578125 
L -0.984375 -23.578125 
L -0.984375 -16.609375 
z
" id="DejaVuSans-5f"/>
     </defs>
     <g transform="translate(504.545313 180.540312)scale(0.1 -0.1)">
      <use xlink:href="#DejaVuSans-64"/>
      <use x="63.476562" xlink:href="#DejaVuSans-61"/>
      <use x="124.755859" xlink:href="#DejaVuSans-6c"/>
      <use x="152.539062" xlink:href="#DejaVuSans-6c"/>
      <use x="180.322266" xlink:href="#DejaVuSans-61"/>
      <use x="241.601562" xlink:href="#DejaVuSans-73"/>
      <use x="293.701172" xlink:href="#DejaVuSans-5f"/>
      <use x="343.701172" xlink:href="#DejaVuSans-61"/>
      <use x="404.980469" xlink:href="#DejaVuSans-76"/>
      <use x="464.160156" xlink:href="#DejaVuSans-67"/>
      <use x="527.636719" xlink:href="#DejaVuSans-5f"/>
      <use x="577.636719" xlink:href="#DejaVuSans-74"/>
      <use x="616.845703" xlink:href="#DejaVuSans-65"/>
      <use x="678.369141" xlink:href="#DejaVuSans-6d"/>
      <use x="775.78125" xlink:href="#DejaVuSans-70"/>
     </g>
    </g>
    <g id="line2d_48">
     <path d="M 476.545313 191.996562 
L 496.545313 191.996562 
" style="fill:none;stroke:#ff7f0e;stroke-linecap:square;stroke-width:1.5;"/>
    </g>
    <g id="line2d_49"/>
    <g id="text_19">
     <!-- global_avg_temp -->
     <defs>
      <path d="M 48.6875 27.296875 
Q 48.6875 37.203125 44.609375 42.84375 
Q 40.53125 48.484375 33.40625 48.484375 
Q 26.265625 48.484375 22.1875 42.84375 
Q 18.109375 37.203125 18.109375 27.296875 
Q 18.109375 17.390625 22.1875 11.75 
Q 26.265625 6.109375 33.40625 6.109375 
Q 40.53125 6.109375 44.609375 11.75 
Q 48.6875 17.390625 48.6875 27.296875 
z
M 18.109375 46.390625 
Q 20.953125 51.265625 25.265625 53.625 
Q 29.59375 56 35.59375 56 
Q 45.5625 56 51.78125 48.09375 
Q 58.015625 40.1875 58.015625 27.296875 
Q 58.015625 14.40625 51.78125 6.484375 
Q 45.5625 -1.421875 35.59375 -1.421875 
Q 29.59375 -1.421875 25.265625 0.953125 
Q 20.953125 3.328125 18.109375 8.203125 
L 18.109375 0 
L 9.078125 0 
L 9.078125 75.984375 
L 18.109375 75.984375 
z
" id="DejaVuSans-62"/>
     </defs>
     <g transform="translate(504.545313 195.496562)scale(0.1 -0.1)">
      <use xlink:href="#DejaVuSans-67"/>
      <use x="63.476562" xlink:href="#DejaVuSans-6c"/>
      <use x="91.259766" xlink:href="#DejaVuSans-6f"/>
      <use x="152.441406" xlink:href="#DejaVuSans-62"/>
      <use x="215.917969" xlink:href="#DejaVuSans-61"/>
      <use x="277.197266" xlink:href="#DejaVuSans-6c"/>
      <use x="304.980469" xlink:href="#DejaVuSans-5f"/>
      <use x="354.980469" xlink:href="#DejaVuSans-61"/>
      <use x="416.259766" xlink:href="#DejaVuSans-76"/>
      <use x="475.439453" xlink:href="#DejaVuSans-67"/>
      <use x="538.916016" xlink:href="#DejaVuSans-5f"/>
      <use x="588.916016" xlink:href="#DejaVuSans-74"/>
      <use x="628.125" xlink:href="#DejaVuSans-65"/>
      <use x="689.648438" xlink:href="#DejaVuSans-6d"/>
      <use x="787.060547" xlink:href="#DejaVuSans-70"/>
     </g>
    </g>
   </g>
  </g>
 </g>
 <defs>
  <clipPath id="p4bed603785">
   <rect height="326.16" width="558" x="40.603125" y="22.318125"/>
  </clipPath>
 </defs>
</svg>
