<?xml version="1.0" encoding="utf-8" standalone="no"?>
<!DOCTYPE svg PUBLIC "-//W3C//DTD SVG 1.1//EN"
  "http://www.w3.org/Graphics/SVG/1.1/DTD/svg11.dtd">
<!-- Created with matplotlib (http://matplotlib.org/) -->
<svg height="386.034375pt" version="1.1" viewBox="0 0 621.103606 386.034375" width="621.103606pt" xmlns="http://www.w3.org/2000/svg" xmlns:xlink="http://www.w3.org/1999/xlink">
 <defs>
  <style type="text/css">
*{stroke-linecap:butt;stroke-linejoin:round;}
  </style>
 </defs>
 <g id="figure_1">
  <g id="patch_1">
   <path d="M 0 386.034375 
L 621.103606 386.034375 
L 621.103606 0 
L 0 0 
z
" style="fill:none;"/>
  </g>
  <g id="axes_1">
   <g id="patch_2">
    <path d="M 50.14375 348.478125 
L 608.14375 348.478125 
L 608.14375 22.318125 
L 50.14375 22.318125 
z
" style="fill:#ffffff;"/>
   </g>
   <g id="matplotlib.axis_1">
    <g id="xtick_1">
     <g id="line2d_1">
      <defs>
       <path d="M 0 0 
L 0 3.5 
" id="m1ebd65a6cd" style="stroke:#000000;stroke-width:0.8;"/>
      </defs>
      <g>
       <use style="stroke:#000000;stroke-width:0.8;" x="75.507386" xlink:href="#m1ebd65a6cd" y="348.478125"/>
      </g>
     </g>
     <g id="text_1">
      <!-- 1820 -->
      <defs>
       <path d="M 12.40625 8.296875 
L 28.515625 8.296875 
L 28.515625 63.921875 
L 10.984375 60.40625 
L 10.984375 69.390625 
L 28.421875 72.90625 
L 38.28125 72.90625 
L 38.28125 8.296875 
L 54.390625 8.296875 
L 54.390625 0 
L 12.40625 0 
z
" id="DejaVuSans-31"/>
       <path d="M 31.78125 34.625 
Q 24.75 34.625 20.71875 30.859375 
Q 16.703125 27.09375 16.703125 20.515625 
Q 16.703125 13.921875 20.71875 10.15625 
Q 24.75 6.390625 31.78125 6.390625 
Q 38.8125 6.390625 42.859375 10.171875 
Q 46.921875 13.96875 46.921875 20.515625 
Q 46.921875 27.09375 42.890625 30.859375 
Q 38.875 34.625 31.78125 34.625 
z
M 21.921875 38.8125 
Q 15.578125 40.375 12.03125 44.71875 
Q 8.5 49.078125 8.5 55.328125 
Q 8.5 64.0625 14.71875 69.140625 
Q 20.953125 74.21875 31.78125 74.21875 
Q 42.671875 74.21875 48.875 69.140625 
Q 55.078125 64.0625 55.078125 55.328125 
Q 55.078125 49.078125 51.53125 44.71875 
Q 48 40.375 41.703125 38.8125 
Q 48.828125 37.15625 52.796875 32.3125 
Q 56.78125 27.484375 56.78125 20.515625 
Q 56.78125 9.90625 50.3125 4.234375 
Q 43.84375 -1.421875 31.78125 -1.421875 
Q 19.734375 -1.421875 13.25 4.234375 
Q 6.78125 9.90625 6.78125 20.515625 
Q 6.78125 27.484375 10.78125 32.3125 
Q 14.796875 37.15625 21.921875 38.8125 
z
M 18.3125 54.390625 
Q 18.3125 48.734375 21.84375 45.5625 
Q 25.390625 42.390625 31.78125 42.390625 
Q 38.140625 42.390625 41.71875 45.5625 
Q 45.3125 48.734375 45.3125 54.390625 
Q 45.3125 60.0625 41.71875 63.234375 
Q 38.140625 66.40625 31.78125 66.40625 
Q 25.390625 66.40625 21.84375 63.234375 
Q 18.3125 60.0625 18.3125 54.390625 
z
" id="DejaVuSans-38"/>
       <path d="M 19.1875 8.296875 
L 53.609375 8.296875 
L 53.609375 0 
L 7.328125 0 
L 7.328125 8.296875 
Q 12.9375 14.109375 22.625 23.890625 
Q 32.328125 33.6875 34.8125 36.53125 
Q 39.546875 41.84375 41.421875 45.53125 
Q 43.3125 49.21875 43.3125 52.78125 
Q 43.3125 58.59375 39.234375 62.25 
Q 35.15625 65.921875 28.609375 65.921875 
Q 23.96875 65.921875 18.8125 64.3125 
Q 13.671875 62.703125 7.8125 59.421875 
L 7.8125 69.390625 
Q 13.765625 71.78125 18.9375 73 
Q 24.125 74.21875 28.421875 74.21875 
Q 39.75 74.21875 46.484375 68.546875 
Q 53.21875 62.890625 53.21875 53.421875 
Q 53.21875 48.921875 51.53125 44.890625 
Q 49.859375 40.875 45.40625 35.40625 
Q 44.1875 33.984375 37.640625 27.21875 
Q 31.109375 20.453125 19.1875 8.296875 
z
" id="DejaVuSans-32"/>
       <path d="M 31.78125 66.40625 
Q 24.171875 66.40625 20.328125 58.90625 
Q 16.5 51.421875 16.5 36.375 
Q 16.5 21.390625 20.328125 13.890625 
Q 24.171875 6.390625 31.78125 6.390625 
Q 39.453125 6.390625 43.28125 13.890625 
Q 47.125 21.390625 47.125 36.375 
Q 47.125 51.421875 43.28125 58.90625 
Q 39.453125 66.40625 31.78125 66.40625 
z
M 31.78125 74.21875 
Q 44.046875 74.21875 50.515625 64.515625 
Q 56.984375 54.828125 56.984375 36.375 
Q 56.984375 17.96875 50.515625 8.265625 
Q 44.046875 -1.421875 31.78125 -1.421875 
Q 19.53125 -1.421875 13.0625 8.265625 
Q 6.59375 17.96875 6.59375 36.375 
Q 6.59375 54.828125 13.0625 64.515625 
Q 19.53125 74.21875 31.78125 74.21875 
z
" id="DejaVuSans-30"/>
      </defs>
      <g transform="translate(62.782386 363.076562)scale(0.1 -0.1)">
       <use xlink:href="#DejaVuSans-31"/>
       <use x="63.623047" xlink:href="#DejaVuSans-38"/>
       <use x="127.246094" xlink:href="#DejaVuSans-32"/>
       <use x="190.869141" xlink:href="#DejaVuSans-30"/>
      </g>
     </g>
    </g>
    <g id="xtick_2">
     <g id="line2d_2">
      <g>
       <use style="stroke:#000000;stroke-width:0.8;" x="206.925191" xlink:href="#m1ebd65a6cd" y="348.478125"/>
      </g>
     </g>
     <g id="text_2">
      <!-- 1870 -->
      <defs>
       <path d="M 8.203125 72.90625 
L 55.078125 72.90625 
L 55.078125 68.703125 
L 28.609375 0 
L 18.3125 0 
L 43.21875 64.59375 
L 8.203125 64.59375 
z
" id="DejaVuSans-37"/>
      </defs>
      <g transform="translate(194.200191 363.076562)scale(0.1 -0.1)">
       <use xlink:href="#DejaVuSans-31"/>
       <use x="63.623047" xlink:href="#DejaVuSans-38"/>
       <use x="127.246094" xlink:href="#DejaVuSans-37"/>
       <use x="190.869141" xlink:href="#DejaVuSans-30"/>
      </g>
     </g>
    </g>
    <g id="xtick_3">
     <g id="line2d_3">
      <g>
       <use style="stroke:#000000;stroke-width:0.8;" x="338.342996" xlink:href="#m1ebd65a6cd" y="348.478125"/>
      </g>
     </g>
     <g id="text_3">
      <!-- 1920 -->
      <defs>
       <path d="M 10.984375 1.515625 
L 10.984375 10.5 
Q 14.703125 8.734375 18.5 7.8125 
Q 22.3125 6.890625 25.984375 6.890625 
Q 35.75 6.890625 40.890625 13.453125 
Q 46.046875 20.015625 46.78125 33.40625 
Q 43.953125 29.203125 39.59375 26.953125 
Q 35.25 24.703125 29.984375 24.703125 
Q 19.046875 24.703125 12.671875 31.3125 
Q 6.296875 37.9375 6.296875 49.421875 
Q 6.296875 60.640625 12.9375 67.421875 
Q 19.578125 74.21875 30.609375 74.21875 
Q 43.265625 74.21875 49.921875 64.515625 
Q 56.59375 54.828125 56.59375 36.375 
Q 56.59375 19.140625 48.40625 8.859375 
Q 40.234375 -1.421875 26.421875 -1.421875 
Q 22.703125 -1.421875 18.890625 -0.6875 
Q 15.09375 0.046875 10.984375 1.515625 
z
M 30.609375 32.421875 
Q 37.25 32.421875 41.125 36.953125 
Q 45.015625 41.5 45.015625 49.421875 
Q 45.015625 57.28125 41.125 61.84375 
Q 37.25 66.40625 30.609375 66.40625 
Q 23.96875 66.40625 20.09375 61.84375 
Q 16.21875 57.28125 16.21875 49.421875 
Q 16.21875 41.5 20.09375 36.953125 
Q 23.96875 32.421875 30.609375 32.421875 
z
" id="DejaVuSans-39"/>
      </defs>
      <g transform="translate(325.617996 363.076562)scale(0.1 -0.1)">
       <use xlink:href="#DejaVuSans-31"/>
       <use x="63.623047" xlink:href="#DejaVuSans-39"/>
       <use x="127.246094" xlink:href="#DejaVuSans-32"/>
       <use x="190.869141" xlink:href="#DejaVuSans-30"/>
      </g>
     </g>
    </g>
    <g id="xtick_4">
     <g id="line2d_4">
      <g>
       <use style="stroke:#000000;stroke-width:0.8;" x="469.760801" xlink:href="#m1ebd65a6cd" y="348.478125"/>
      </g>
     </g>
     <g id="text_4">
      <!-- 1970 -->
      <g transform="translate(457.035801 363.076562)scale(0.1 -0.1)">
       <use xlink:href="#DejaVuSans-31"/>
       <use x="63.623047" xlink:href="#DejaVuSans-39"/>
       <use x="127.246094" xlink:href="#DejaVuSans-37"/>
       <use x="190.869141" xlink:href="#DejaVuSans-30"/>
      </g>
     </g>
    </g>
    <g id="xtick_5">
     <g id="line2d_5">
      <g>
       <use style="stroke:#000000;stroke-width:0.8;" x="601.178606" xlink:href="#m1ebd65a6cd" y="348.478125"/>
      </g>
     </g>
     <g id="text_5">
      <!-- 2020 -->
      <g transform="translate(588.453606 363.076562)scale(0.1 -0.1)">
       <use xlink:href="#DejaVuSans-32"/>
       <use x="63.623047" xlink:href="#DejaVuSans-30"/>
       <use x="127.246094" xlink:href="#DejaVuSans-32"/>
       <use x="190.869141" xlink:href="#DejaVuSans-30"/>
      </g>
     </g>
    </g>
    <g id="xtick_6">
     <g id="line2d_6">
      <defs>
       <path d="M 0 0 
L 0 2 
" id="m5afdc46635" style="stroke:#000000;stroke-width:0.6;"/>
      </defs>
      <g>
       <use style="stroke:#000000;stroke-width:0.6;" x="75.507386" xlink:href="#m5afdc46635" y="348.478125"/>
      </g>
     </g>
    </g>
    <g id="xtick_7">
     <g id="line2d_7">
      <g>
       <use style="stroke:#000000;stroke-width:0.6;" x="101.790947" xlink:href="#m5afdc46635" y="348.478125"/>
      </g>
     </g>
    </g>
    <g id="xtick_8">
     <g id="line2d_8">
      <g>
       <use style="stroke:#000000;stroke-width:0.6;" x="128.074508" xlink:href="#m5afdc46635" y="348.478125"/>
      </g>
     </g>
    </g>
    <g id="xtick_9">
     <g id="line2d_9">
      <g>
       <use style="stroke:#000000;stroke-width:0.6;" x="154.358069" xlink:href="#m5afdc46635" y="348.478125"/>
      </g>
     </g>
    </g>
    <g id="xtick_10">
     <g id="line2d_10">
      <g>
       <use style="stroke:#000000;stroke-width:0.6;" x="180.64163" xlink:href="#m5afdc46635" y="348.478125"/>
      </g>
     </g>
    </g>
    <g id="xtick_11">
     <g id="line2d_11">
      <g>
       <use style="stroke:#000000;stroke-width:0.6;" x="206.925191" xlink:href="#m5afdc46635" y="348.478125"/>
      </g>
     </g>
    </g>
    <g id="xtick_12">
     <g id="line2d_12">
      <g>
       <use style="stroke:#000000;stroke-width:0.6;" x="233.208752" xlink:href="#m5afdc46635" y="348.478125"/>
      </g>
     </g>
    </g>
    <g id="xtick_13">
     <g id="line2d_13">
      <g>
       <use style="stroke:#000000;stroke-width:0.6;" x="259.492313" xlink:href="#m5afdc46635" y="348.478125"/>
      </g>
     </g>
    </g>
    <g id="xtick_14">
     <g id="line2d_14">
      <g>
       <use style="stroke:#000000;stroke-width:0.6;" x="285.775874" xlink:href="#m5afdc46635" y="348.478125"/>
      </g>
     </g>
    </g>
    <g id="xtick_15">
     <g id="line2d_15">
      <g>
       <use style="stroke:#000000;stroke-width:0.6;" x="312.059435" xlink:href="#m5afdc46635" y="348.478125"/>
      </g>
     </g>
    </g>
    <g id="xtick_16">
     <g id="line2d_16">
      <g>
       <use style="stroke:#000000;stroke-width:0.6;" x="338.342996" xlink:href="#m5afdc46635" y="348.478125"/>
      </g>
     </g>
    </g>
    <g id="xtick_17">
     <g id="line2d_17">
      <g>
       <use style="stroke:#000000;stroke-width:0.6;" x="364.626557" xlink:href="#m5afdc46635" y="348.478125"/>
      </g>
     </g>
    </g>
    <g id="xtick_18">
     <g id="line2d_18">
      <g>
       <use style="stroke:#000000;stroke-width:0.6;" x="390.910118" xlink:href="#m5afdc46635" y="348.478125"/>
      </g>
     </g>
    </g>
    <g id="xtick_19">
     <g id="line2d_19">
      <g>
       <use style="stroke:#000000;stroke-width:0.6;" x="417.193679" xlink:href="#m5afdc46635" y="348.478125"/>
      </g>
     </g>
    </g>
    <g id="xtick_20">
     <g id="line2d_20">
      <g>
       <use style="stroke:#000000;stroke-width:0.6;" x="443.47724" xlink:href="#m5afdc46635" y="348.478125"/>
      </g>
     </g>
    </g>
    <g id="xtick_21">
     <g id="line2d_21">
      <g>
       <use style="stroke:#000000;stroke-width:0.6;" x="469.760801" xlink:href="#m5afdc46635" y="348.478125"/>
      </g>
     </g>
    </g>
    <g id="xtick_22">
     <g id="line2d_22">
      <g>
       <use style="stroke:#000000;stroke-width:0.6;" x="496.044362" xlink:href="#m5afdc46635" y="348.478125"/>
      </g>
     </g>
    </g>
    <g id="xtick_23">
     <g id="line2d_23">
      <g>
       <use style="stroke:#000000;stroke-width:0.6;" x="522.327923" xlink:href="#m5afdc46635" y="348.478125"/>
      </g>
     </g>
    </g>
    <g id="xtick_24">
     <g id="line2d_24">
      <g>
       <use style="stroke:#000000;stroke-width:0.6;" x="548.611484" xlink:href="#m5afdc46635" y="348.478125"/>
      </g>
     </g>
    </g>
    <g id="xtick_25">
     <g id="line2d_25">
      <g>
       <use style="stroke:#000000;stroke-width:0.6;" x="574.895045" xlink:href="#m5afdc46635" y="348.478125"/>
      </g>
     </g>
    </g>
    <g id="xtick_26">
     <g id="line2d_26">
      <g>
       <use style="stroke:#000000;stroke-width:0.6;" x="601.178606" xlink:href="#m5afdc46635" y="348.478125"/>
      </g>
     </g>
    </g>
    <g id="text_6">
     <!-- Year -->
     <defs>
      <path d="M -0.203125 72.90625 
L 10.40625 72.90625 
L 30.609375 42.921875 
L 50.6875 72.90625 
L 61.28125 72.90625 
L 35.5 34.71875 
L 35.5 0 
L 25.59375 0 
L 25.59375 34.71875 
z
" id="DejaVuSans-59"/>
      <path d="M 56.203125 29.59375 
L 56.203125 25.203125 
L 14.890625 25.203125 
Q 15.484375 15.921875 20.484375 11.0625 
Q 25.484375 6.203125 34.421875 6.203125 
Q 39.59375 6.203125 44.453125 7.46875 
Q 49.3125 8.734375 54.109375 11.28125 
L 54.109375 2.78125 
Q 49.265625 0.734375 44.1875 -0.34375 
Q 39.109375 -1.421875 33.890625 -1.421875 
Q 20.796875 -1.421875 13.15625 6.1875 
Q 5.515625 13.8125 5.515625 26.8125 
Q 5.515625 40.234375 12.765625 48.109375 
Q 20.015625 56 32.328125 56 
Q 43.359375 56 49.78125 48.890625 
Q 56.203125 41.796875 56.203125 29.59375 
z
M 47.21875 32.234375 
Q 47.125 39.59375 43.09375 43.984375 
Q 39.0625 48.390625 32.421875 48.390625 
Q 24.90625 48.390625 20.390625 44.140625 
Q 15.875 39.890625 15.1875 32.171875 
z
" id="DejaVuSans-65"/>
      <path d="M 34.28125 27.484375 
Q 23.390625 27.484375 19.1875 25 
Q 14.984375 22.515625 14.984375 16.5 
Q 14.984375 11.71875 18.140625 8.90625 
Q 21.296875 6.109375 26.703125 6.109375 
Q 34.1875 6.109375 38.703125 11.40625 
Q 43.21875 16.703125 43.21875 25.484375 
L 43.21875 27.484375 
z
M 52.203125 31.203125 
L 52.203125 0 
L 43.21875 0 
L 43.21875 8.296875 
Q 40.140625 3.328125 35.546875 0.953125 
Q 30.953125 -1.421875 24.3125 -1.421875 
Q 15.921875 -1.421875 10.953125 3.296875 
Q 6 8.015625 6 15.921875 
Q 6 25.140625 12.171875 29.828125 
Q 18.359375 34.515625 30.609375 34.515625 
L 43.21875 34.515625 
L 43.21875 35.40625 
Q 43.21875 41.609375 39.140625 45 
Q 35.0625 48.390625 27.6875 48.390625 
Q 23 48.390625 18.546875 47.265625 
Q 14.109375 46.140625 10.015625 43.890625 
L 10.015625 52.203125 
Q 14.9375 54.109375 19.578125 55.046875 
Q 24.21875 56 28.609375 56 
Q 40.484375 56 46.34375 49.84375 
Q 52.203125 43.703125 52.203125 31.203125 
z
" id="DejaVuSans-61"/>
      <path d="M 41.109375 46.296875 
Q 39.59375 47.171875 37.8125 47.578125 
Q 36.03125 48 33.890625 48 
Q 26.265625 48 22.1875 43.046875 
Q 18.109375 38.09375 18.109375 28.8125 
L 18.109375 0 
L 9.078125 0 
L 9.078125 54.6875 
L 18.109375 54.6875 
L 18.109375 46.1875 
Q 20.953125 51.171875 25.484375 53.578125 
Q 30.03125 56 36.53125 56 
Q 37.453125 56 38.578125 55.875 
Q 39.703125 55.765625 41.0625 55.515625 
z
" id="DejaVuSans-72"/>
     </defs>
     <g transform="translate(317.903906 376.754687)scale(0.1 -0.1)">
      <use xlink:href="#DejaVuSans-59"/>
      <use x="60.880859" xlink:href="#DejaVuSans-65"/>
      <use x="122.404297" xlink:href="#DejaVuSans-61"/>
      <use x="183.683594" xlink:href="#DejaVuSans-72"/>
     </g>
    </g>
   </g>
   <g id="matplotlib.axis_2">
    <g id="ytick_1">
     <g id="line2d_27">
      <defs>
       <path d="M 0 0 
L -3.5 0 
" id="mf068dbcb63" style="stroke:#000000;stroke-width:0.8;"/>
      </defs>
      <g>
       <use style="stroke:#000000;stroke-width:0.8;" x="50.14375" xlink:href="#mf068dbcb63" y="336.686012"/>
      </g>
     </g>
     <g id="text_7">
      <!-- 16.5 -->
      <defs>
       <path d="M 33.015625 40.375 
Q 26.375 40.375 22.484375 35.828125 
Q 18.609375 31.296875 18.609375 23.390625 
Q 18.609375 15.53125 22.484375 10.953125 
Q 26.375 6.390625 33.015625 6.390625 
Q 39.65625 6.390625 43.53125 10.953125 
Q 47.40625 15.53125 47.40625 23.390625 
Q 47.40625 31.296875 43.53125 35.828125 
Q 39.65625 40.375 33.015625 40.375 
z
M 52.59375 71.296875 
L 52.59375 62.3125 
Q 48.875 64.0625 45.09375 64.984375 
Q 41.3125 65.921875 37.59375 65.921875 
Q 27.828125 65.921875 22.671875 59.328125 
Q 17.53125 52.734375 16.796875 39.40625 
Q 19.671875 43.65625 24.015625 45.921875 
Q 28.375 48.1875 33.59375 48.1875 
Q 44.578125 48.1875 50.953125 41.515625 
Q 57.328125 34.859375 57.328125 23.390625 
Q 57.328125 12.15625 50.6875 5.359375 
Q 44.046875 -1.421875 33.015625 -1.421875 
Q 20.359375 -1.421875 13.671875 8.265625 
Q 6.984375 17.96875 6.984375 36.375 
Q 6.984375 53.65625 15.1875 63.9375 
Q 23.390625 74.21875 37.203125 74.21875 
Q 40.921875 74.21875 44.703125 73.484375 
Q 48.484375 72.75 52.59375 71.296875 
z
" id="DejaVuSans-36"/>
       <path d="M 10.6875 12.40625 
L 21 12.40625 
L 21 0 
L 10.6875 0 
z
" id="DejaVuSans-2e"/>
       <path d="M 10.796875 72.90625 
L 49.515625 72.90625 
L 49.515625 64.59375 
L 19.828125 64.59375 
L 19.828125 46.734375 
Q 21.96875 47.46875 24.109375 47.828125 
Q 26.265625 48.1875 28.421875 48.1875 
Q 40.625 48.1875 47.75 41.5 
Q 54.890625 34.8125 54.890625 23.390625 
Q 54.890625 11.625 47.5625 5.09375 
Q 40.234375 -1.421875 26.90625 -1.421875 
Q 22.3125 -1.421875 17.546875 -0.640625 
Q 12.796875 0.140625 7.71875 1.703125 
L 7.71875 11.625 
Q 12.109375 9.234375 16.796875 8.0625 
Q 21.484375 6.890625 26.703125 6.890625 
Q 35.15625 6.890625 40.078125 11.328125 
Q 45.015625 15.765625 45.015625 23.390625 
Q 45.015625 31 40.078125 35.4375 
Q 35.15625 39.890625 26.703125 39.890625 
Q 22.75 39.890625 18.8125 39.015625 
Q 14.890625 38.140625 10.796875 36.28125 
z
" id="DejaVuSans-35"/>
      </defs>
      <g transform="translate(20.878125 340.48523)scale(0.1 -0.1)">
       <use xlink:href="#DejaVuSans-31"/>
       <use x="63.623047" xlink:href="#DejaVuSans-36"/>
       <use x="127.246094" xlink:href="#DejaVuSans-2e"/>
       <use x="159.033203" xlink:href="#DejaVuSans-35"/>
      </g>
     </g>
    </g>
    <g id="ytick_2">
     <g id="line2d_28">
      <g>
       <use style="stroke:#000000;stroke-width:0.8;" x="50.14375" xlink:href="#mf068dbcb63" y="298.769248"/>
      </g>
     </g>
     <g id="text_8">
      <!-- 17.0 -->
      <g transform="translate(20.878125 302.568467)scale(0.1 -0.1)">
       <use xlink:href="#DejaVuSans-31"/>
       <use x="63.623047" xlink:href="#DejaVuSans-37"/>
       <use x="127.246094" xlink:href="#DejaVuSans-2e"/>
       <use x="159.033203" xlink:href="#DejaVuSans-30"/>
      </g>
     </g>
    </g>
    <g id="ytick_3">
     <g id="line2d_29">
      <g>
       <use style="stroke:#000000;stroke-width:0.8;" x="50.14375" xlink:href="#mf068dbcb63" y="260.852484"/>
      </g>
     </g>
     <g id="text_9">
      <!-- 17.5 -->
      <g transform="translate(20.878125 264.651703)scale(0.1 -0.1)">
       <use xlink:href="#DejaVuSans-31"/>
       <use x="63.623047" xlink:href="#DejaVuSans-37"/>
       <use x="127.246094" xlink:href="#DejaVuSans-2e"/>
       <use x="159.033203" xlink:href="#DejaVuSans-35"/>
      </g>
     </g>
    </g>
    <g id="ytick_4">
     <g id="line2d_30">
      <g>
       <use style="stroke:#000000;stroke-width:0.8;" x="50.14375" xlink:href="#mf068dbcb63" y="222.935721"/>
      </g>
     </g>
     <g id="text_10">
      <!-- 18.0 -->
      <g transform="translate(20.878125 226.73494)scale(0.1 -0.1)">
       <use xlink:href="#DejaVuSans-31"/>
       <use x="63.623047" xlink:href="#DejaVuSans-38"/>
       <use x="127.246094" xlink:href="#DejaVuSans-2e"/>
       <use x="159.033203" xlink:href="#DejaVuSans-30"/>
      </g>
     </g>
    </g>
    <g id="ytick_5">
     <g id="line2d_31">
      <g>
       <use style="stroke:#000000;stroke-width:0.8;" x="50.14375" xlink:href="#mf068dbcb63" y="185.018957"/>
      </g>
     </g>
     <g id="text_11">
      <!-- 18.5 -->
      <g transform="translate(20.878125 188.818176)scale(0.1 -0.1)">
       <use xlink:href="#DejaVuSans-31"/>
       <use x="63.623047" xlink:href="#DejaVuSans-38"/>
       <use x="127.246094" xlink:href="#DejaVuSans-2e"/>
       <use x="159.033203" xlink:href="#DejaVuSans-35"/>
      </g>
     </g>
    </g>
    <g id="ytick_6">
     <g id="line2d_32">
      <g>
       <use style="stroke:#000000;stroke-width:0.8;" x="50.14375" xlink:href="#mf068dbcb63" y="147.102194"/>
      </g>
     </g>
     <g id="text_12">
      <!-- 19.0 -->
      <g transform="translate(20.878125 150.901413)scale(0.1 -0.1)">
       <use xlink:href="#DejaVuSans-31"/>
       <use x="63.623047" xlink:href="#DejaVuSans-39"/>
       <use x="127.246094" xlink:href="#DejaVuSans-2e"/>
       <use x="159.033203" xlink:href="#DejaVuSans-30"/>
      </g>
     </g>
    </g>
    <g id="ytick_7">
     <g id="line2d_33">
      <g>
       <use style="stroke:#000000;stroke-width:0.8;" x="50.14375" xlink:href="#mf068dbcb63" y="109.18543"/>
      </g>
     </g>
     <g id="text_13">
      <!-- 19.5 -->
      <g transform="translate(20.878125 112.984649)scale(0.1 -0.1)">
       <use xlink:href="#DejaVuSans-31"/>
       <use x="63.623047" xlink:href="#DejaVuSans-39"/>
       <use x="127.246094" xlink:href="#DejaVuSans-2e"/>
       <use x="159.033203" xlink:href="#DejaVuSans-35"/>
      </g>
     </g>
    </g>
    <g id="ytick_8">
     <g id="line2d_34">
      <g>
       <use style="stroke:#000000;stroke-width:0.8;" x="50.14375" xlink:href="#mf068dbcb63" y="71.268667"/>
      </g>
     </g>
     <g id="text_14">
      <!-- 20.0 -->
      <g transform="translate(20.878125 75.067885)scale(0.1 -0.1)">
       <use xlink:href="#DejaVuSans-32"/>
       <use x="63.623047" xlink:href="#DejaVuSans-30"/>
       <use x="127.246094" xlink:href="#DejaVuSans-2e"/>
       <use x="159.033203" xlink:href="#DejaVuSans-30"/>
      </g>
     </g>
    </g>
    <g id="ytick_9">
     <g id="line2d_35">
      <g>
       <use style="stroke:#000000;stroke-width:0.8;" x="50.14375" xlink:href="#mf068dbcb63" y="33.351903"/>
      </g>
     </g>
     <g id="text_15">
      <!-- 20.5 -->
      <g transform="translate(20.878125 37.151122)scale(0.1 -0.1)">
       <use xlink:href="#DejaVuSans-32"/>
       <use x="63.623047" xlink:href="#DejaVuSans-30"/>
       <use x="127.246094" xlink:href="#DejaVuSans-2e"/>
       <use x="159.033203" xlink:href="#DejaVuSans-35"/>
      </g>
     </g>
    </g>
    <g id="text_16">
     <!-- Temperature in Degree Celsius -->
     <defs>
      <path d="M -0.296875 72.90625 
L 61.375 72.90625 
L 61.375 64.59375 
L 35.5 64.59375 
L 35.5 0 
L 25.59375 0 
L 25.59375 64.59375 
L -0.296875 64.59375 
z
" id="DejaVuSans-54"/>
      <path d="M 52 44.1875 
Q 55.375 50.25 60.0625 53.125 
Q 64.75 56 71.09375 56 
Q 79.640625 56 84.28125 50.015625 
Q 88.921875 44.046875 88.921875 33.015625 
L 88.921875 0 
L 79.890625 0 
L 79.890625 32.71875 
Q 79.890625 40.578125 77.09375 44.375 
Q 74.3125 48.1875 68.609375 48.1875 
Q 61.625 48.1875 57.5625 43.546875 
Q 53.515625 38.921875 53.515625 30.90625 
L 53.515625 0 
L 44.484375 0 
L 44.484375 32.71875 
Q 44.484375 40.625 41.703125 44.40625 
Q 38.921875 48.1875 33.109375 48.1875 
Q 26.21875 48.1875 22.15625 43.53125 
Q 18.109375 38.875 18.109375 30.90625 
L 18.109375 0 
L 9.078125 0 
L 9.078125 54.6875 
L 18.109375 54.6875 
L 18.109375 46.1875 
Q 21.1875 51.21875 25.484375 53.609375 
Q 29.78125 56 35.6875 56 
Q 41.65625 56 45.828125 52.96875 
Q 50 49.953125 52 44.1875 
z
" id="DejaVuSans-6d"/>
      <path d="M 18.109375 8.203125 
L 18.109375 -20.796875 
L 9.078125 -20.796875 
L 9.078125 54.6875 
L 18.109375 54.6875 
L 18.109375 46.390625 
Q 20.953125 51.265625 25.265625 53.625 
Q 29.59375 56 35.59375 56 
Q 45.5625 56 51.78125 48.09375 
Q 58.015625 40.1875 58.015625 27.296875 
Q 58.015625 14.40625 51.78125 6.484375 
Q 45.5625 -1.421875 35.59375 -1.421875 
Q 29.59375 -1.421875 25.265625 0.953125 
Q 20.953125 3.328125 18.109375 8.203125 
z
M 48.6875 27.296875 
Q 48.6875 37.203125 44.609375 42.84375 
Q 40.53125 48.484375 33.40625 48.484375 
Q 26.265625 48.484375 22.1875 42.84375 
Q 18.109375 37.203125 18.109375 27.296875 
Q 18.109375 17.390625 22.1875 11.75 
Q 26.265625 6.109375 33.40625 6.109375 
Q 40.53125 6.109375 44.609375 11.75 
Q 48.6875 17.390625 48.6875 27.296875 
z
" id="DejaVuSans-70"/>
      <path d="M 18.3125 70.21875 
L 18.3125 54.6875 
L 36.8125 54.6875 
L 36.8125 47.703125 
L 18.3125 47.703125 
L 18.3125 18.015625 
Q 18.3125 11.328125 20.140625 9.421875 
Q 21.96875 7.515625 27.59375 7.515625 
L 36.8125 7.515625 
L 36.8125 0 
L 27.59375 0 
Q 17.1875 0 13.234375 3.875 
Q 9.28125 7.765625 9.28125 18.015625 
L 9.28125 47.703125 
L 2.6875 47.703125 
L 2.6875 54.6875 
L 9.28125 54.6875 
L 9.28125 70.21875 
z
" id="DejaVuSans-74"/>
      <path d="M 8.5 21.578125 
L 8.5 54.6875 
L 17.484375 54.6875 
L 17.484375 21.921875 
Q 17.484375 14.15625 20.5 10.265625 
Q 23.53125 6.390625 29.59375 6.390625 
Q 36.859375 6.390625 41.078125 11.03125 
Q 45.3125 15.671875 45.3125 23.6875 
L 45.3125 54.6875 
L 54.296875 54.6875 
L 54.296875 0 
L 45.3125 0 
L 45.3125 8.40625 
Q 42.046875 3.421875 37.71875 1 
Q 33.40625 -1.421875 27.6875 -1.421875 
Q 18.265625 -1.421875 13.375 4.4375 
Q 8.5 10.296875 8.5 21.578125 
z
M 31.109375 56 
z
" id="DejaVuSans-75"/>
      <path id="DejaVuSans-20"/>
      <path d="M 9.421875 54.6875 
L 18.40625 54.6875 
L 18.40625 0 
L 9.421875 0 
z
M 9.421875 75.984375 
L 18.40625 75.984375 
L 18.40625 64.59375 
L 9.421875 64.59375 
z
" id="DejaVuSans-69"/>
      <path d="M 54.890625 33.015625 
L 54.890625 0 
L 45.90625 0 
L 45.90625 32.71875 
Q 45.90625 40.484375 42.875 44.328125 
Q 39.84375 48.1875 33.796875 48.1875 
Q 26.515625 48.1875 22.3125 43.546875 
Q 18.109375 38.921875 18.109375 30.90625 
L 18.109375 0 
L 9.078125 0 
L 9.078125 54.6875 
L 18.109375 54.6875 
L 18.109375 46.1875 
Q 21.34375 51.125 25.703125 53.5625 
Q 30.078125 56 35.796875 56 
Q 45.21875 56 50.046875 50.171875 
Q 54.890625 44.34375 54.890625 33.015625 
z
" id="DejaVuSans-6e"/>
      <path d="M 19.671875 64.796875 
L 19.671875 8.109375 
L 31.59375 8.109375 
Q 46.6875 8.109375 53.6875 14.9375 
Q 60.6875 21.78125 60.6875 36.53125 
Q 60.6875 51.171875 53.6875 57.984375 
Q 46.6875 64.796875 31.59375 64.796875 
z
M 9.8125 72.90625 
L 30.078125 72.90625 
Q 51.265625 72.90625 61.171875 64.09375 
Q 71.09375 55.28125 71.09375 36.53125 
Q 71.09375 17.671875 61.125 8.828125 
Q 51.171875 0 30.078125 0 
L 9.8125 0 
z
" id="DejaVuSans-44"/>
      <path d="M 45.40625 27.984375 
Q 45.40625 37.75 41.375 43.109375 
Q 37.359375 48.484375 30.078125 48.484375 
Q 22.859375 48.484375 18.828125 43.109375 
Q 14.796875 37.75 14.796875 27.984375 
Q 14.796875 18.265625 18.828125 12.890625 
Q 22.859375 7.515625 30.078125 7.515625 
Q 37.359375 7.515625 41.375 12.890625 
Q 45.40625 18.265625 45.40625 27.984375 
z
M 54.390625 6.78125 
Q 54.390625 -7.171875 48.1875 -13.984375 
Q 42 -20.796875 29.203125 -20.796875 
Q 24.46875 -20.796875 20.265625 -20.09375 
Q 16.0625 -19.390625 12.109375 -17.921875 
L 12.109375 -9.1875 
Q 16.0625 -11.328125 19.921875 -12.34375 
Q 23.78125 -13.375 27.78125 -13.375 
Q 36.625 -13.375 41.015625 -8.765625 
Q 45.40625 -4.15625 45.40625 5.171875 
L 45.40625 9.625 
Q 42.625 4.78125 38.28125 2.390625 
Q 33.9375 0 27.875 0 
Q 17.828125 0 11.671875 7.65625 
Q 5.515625 15.328125 5.515625 27.984375 
Q 5.515625 40.671875 11.671875 48.328125 
Q 17.828125 56 27.875 56 
Q 33.9375 56 38.28125 53.609375 
Q 42.625 51.21875 45.40625 46.390625 
L 45.40625 54.6875 
L 54.390625 54.6875 
z
" id="DejaVuSans-67"/>
      <path d="M 64.40625 67.28125 
L 64.40625 56.890625 
Q 59.421875 61.53125 53.78125 63.8125 
Q 48.140625 66.109375 41.796875 66.109375 
Q 29.296875 66.109375 22.65625 58.46875 
Q 16.015625 50.828125 16.015625 36.375 
Q 16.015625 21.96875 22.65625 14.328125 
Q 29.296875 6.6875 41.796875 6.6875 
Q 48.140625 6.6875 53.78125 8.984375 
Q 59.421875 11.28125 64.40625 15.921875 
L 64.40625 5.609375 
Q 59.234375 2.09375 53.4375 0.328125 
Q 47.65625 -1.421875 41.21875 -1.421875 
Q 24.65625 -1.421875 15.125 8.703125 
Q 5.609375 18.84375 5.609375 36.375 
Q 5.609375 53.953125 15.125 64.078125 
Q 24.65625 74.21875 41.21875 74.21875 
Q 47.75 74.21875 53.53125 72.484375 
Q 59.328125 70.75 64.40625 67.28125 
z
" id="DejaVuSans-43"/>
      <path d="M 9.421875 75.984375 
L 18.40625 75.984375 
L 18.40625 0 
L 9.421875 0 
z
" id="DejaVuSans-6c"/>
      <path d="M 44.28125 53.078125 
L 44.28125 44.578125 
Q 40.484375 46.53125 36.375 47.5 
Q 32.28125 48.484375 27.875 48.484375 
Q 21.1875 48.484375 17.84375 46.4375 
Q 14.5 44.390625 14.5 40.28125 
Q 14.5 37.15625 16.890625 35.375 
Q 19.28125 33.59375 26.515625 31.984375 
L 29.59375 31.296875 
Q 39.15625 29.25 43.1875 25.515625 
Q 47.21875 21.78125 47.21875 15.09375 
Q 47.21875 7.46875 41.1875 3.015625 
Q 35.15625 -1.421875 24.609375 -1.421875 
Q 20.21875 -1.421875 15.453125 -0.5625 
Q 10.6875 0.296875 5.421875 2 
L 5.421875 11.28125 
Q 10.40625 8.6875 15.234375 7.390625 
Q 20.0625 6.109375 24.8125 6.109375 
Q 31.15625 6.109375 34.5625 8.28125 
Q 37.984375 10.453125 37.984375 14.40625 
Q 37.984375 18.0625 35.515625 20.015625 
Q 33.0625 21.96875 24.703125 23.78125 
L 21.578125 24.515625 
Q 13.234375 26.265625 9.515625 29.90625 
Q 5.8125 33.546875 5.8125 39.890625 
Q 5.8125 47.609375 11.28125 51.796875 
Q 16.75 56 26.8125 56 
Q 31.78125 56 36.171875 55.265625 
Q 40.578125 54.546875 44.28125 53.078125 
z
" id="DejaVuSans-73"/>
     </defs>
     <g transform="translate(14.798438 263.372344)rotate(-90)scale(0.1 -0.1)">
      <use xlink:href="#DejaVuSans-54"/>
      <use x="60.818359" xlink:href="#DejaVuSans-65"/>
      <use x="122.341797" xlink:href="#DejaVuSans-6d"/>
      <use x="219.753906" xlink:href="#DejaVuSans-70"/>
      <use x="283.230469" xlink:href="#DejaVuSans-65"/>
      <use x="344.753906" xlink:href="#DejaVuSans-72"/>
      <use x="385.867188" xlink:href="#DejaVuSans-61"/>
      <use x="447.146484" xlink:href="#DejaVuSans-74"/>
      <use x="486.355469" xlink:href="#DejaVuSans-75"/>
      <use x="549.734375" xlink:href="#DejaVuSans-72"/>
      <use x="590.816406" xlink:href="#DejaVuSans-65"/>
      <use x="652.339844" xlink:href="#DejaVuSans-20"/>
      <use x="684.126953" xlink:href="#DejaVuSans-69"/>
      <use x="711.910156" xlink:href="#DejaVuSans-6e"/>
      <use x="775.289062" xlink:href="#DejaVuSans-20"/>
      <use x="807.076172" xlink:href="#DejaVuSans-44"/>
      <use x="884.078125" xlink:href="#DejaVuSans-65"/>
      <use x="945.601562" xlink:href="#DejaVuSans-67"/>
      <use x="1009.078125" xlink:href="#DejaVuSans-72"/>
      <use x="1050.160156" xlink:href="#DejaVuSans-65"/>
      <use x="1111.683594" xlink:href="#DejaVuSans-65"/>
      <use x="1173.207031" xlink:href="#DejaVuSans-20"/>
      <use x="1204.994141" xlink:href="#DejaVuSans-43"/>
      <use x="1274.818359" xlink:href="#DejaVuSans-65"/>
      <use x="1336.341797" xlink:href="#DejaVuSans-6c"/>
      <use x="1364.125" xlink:href="#DejaVuSans-73"/>
      <use x="1416.224609" xlink:href="#DejaVuSans-69"/>
      <use x="1444.007812" xlink:href="#DejaVuSans-75"/>
      <use x="1507.386719" xlink:href="#DejaVuSans-73"/>
     </g>
    </g>
   </g>
   <g id="line2d_36">
    <path clip-path="url(#pc97e6e01e4)" d="M 99.162591 234.159083 
L 101.790947 220.509048 
L 104.419303 223.163221 
L 107.04766 223.618223 
L 109.676016 217.32404 
L 112.304372 212.774028 
L 114.932728 226.424063 
L 117.561084 235.979088 
L 120.18944 244.699943 
L 122.817796 257.74331 
L 125.446152 259.639148 
L 128.074508 267.677502 
L 130.702864 262.520822 
L 133.331221 261.231652 
L 135.959577 267.677502 
L 138.587933 272.075846 
L 141.216289 263.12749 
L 143.844645 251.600794 
L 146.473001 254.709969 
L 149.101357 248.188285 
L 151.729713 246.519948 
L 154.358069 245.609946 
L 156.986425 243.714107 
L 159.614782 248.112452 
L 162.243138 250.159957 
L 164.871494 248.49162 
L 167.49985 249.629122 
L 170.128206 259.184147 
L 172.756562 257.288309 
L 175.384918 253.496632 
L 178.013274 253.117465 
L 180.64163 248.567453 
L 183.269986 244.775777 
L 185.898343 237.571592 
L 188.526699 232.035744 
L 191.155055 237.571592 
L 193.783411 234.993252 
L 196.411767 228.471568 
L 199.040123 219.826546 
L 201.668479 222.025719 
L 204.296835 229.381571 
L 206.925191 233.324914 
L 209.553547 234.386583 
L 212.181904 242.500771 
L 214.81026 246.519948 
L 217.438616 240.225765 
L 220.066972 245.609946 
L 222.695328 246.519948 
L 225.323684 253.496632 
L 227.95204 250.463291 
L 230.580396 239.619097 
L 233.208752 240.149932 
L 235.837108 240.908267 
L 238.465465 233.855749 
L 241.093821 230.822408 
L 243.722177 236.88909 
L 246.350533 240.074098 
L 248.978889 243.486607 
L 251.607245 240.7566 
L 254.235601 246.292447 
L 256.863957 251.29746 
L 259.492313 245.609946 
L 262.120669 251.828295 
L 264.749026 259.411647 
L 267.377382 257.591643 
L 270.005738 253.648299 
L 272.634094 252.131629 
L 275.26245 241.666602 
L 277.890806 241.363268 
L 280.519162 240.377432 
L 283.147518 241.287434 
L 285.775874 244.472443 
L 288.40423 239.391596 
L 291.032587 233.173247 
L 293.660943 243.56244 
L 296.289299 242.349104 
L 298.917655 242.728271 
L 301.546011 252.58663 
L 304.174367 248.71912 
L 306.802723 242.424937 
L 309.431079 234.614084 
L 312.059435 231.504909 
L 314.687791 223.239055 
L 317.316148 230.291573 
L 319.944504 223.239055 
L 322.57286 226.044896 
L 325.201216 220.736549 
L 327.829572 213.684031 
L 330.457928 222.329053 
L 333.086284 222.632387 
L 335.71464 231.808244 
L 338.342996 238.936595 
L 340.971352 236.130755 
L 343.599709 224.755726 
L 346.228065 220.357381 
L 348.856421 222.404886 
L 351.484777 212.470694 
L 354.113133 217.096539 
L 356.741489 205.797344 
L 359.369845 207.844849 
L 361.998201 206.555679 
L 364.626557 202.839836 
L 367.254913 209.740687 
L 369.88327 214.366532 
L 372.511626 205.342343 
L 375.139982 191.237307 
L 377.768338 197.98649 
L 380.396694 193.512312 
L 383.02505 199.958162 
L 385.653406 190.933972 
L 388.281762 178.952275 
L 390.910118 185.398125 
L 393.538474 187.673131 
L 396.166831 188.052298 
L 401.423543 202.157334 
L 404.051899 202.384835 
L 406.680255 197.076488 
L 409.308611 196.924821 
L 411.936967 203.446504 
L 414.565323 211.864026 
L 417.193679 204.584007 
L 419.822035 201.854 
L 422.450392 194.953149 
L 425.078748 191.919808 
L 427.707104 182.28895 
L 430.33546 177.208104 
L 432.963816 173.795595 
L 435.592172 172.733926 
L 438.220528 177.511438 
L 440.848884 179.786444 
L 443.47724 183.123119 
L 446.105596 190.327304 
L 448.733953 194.346481 
L 451.362309 194.194814 
L 453.990665 203.977339 
L 456.619021 205.418176 
L 459.247377 218.689043 
L 461.875733 216.944872 
L 464.504089 218.992377 
L 467.132445 215.959036 
L 469.760801 214.442366 
L 472.389157 208.148183 
L 475.017514 208.224017 
L 477.64587 214.7457 
L 480.274226 215.655702 
L 482.902582 220.12988 
L 485.530938 221.343217 
L 488.159294 217.172373 
L 490.78765 213.684031 
L 493.416006 221.570717 
L 496.044362 215.049034 
L 498.672718 215.807369 
L 501.301075 216.869039 
L 503.929431 222.784054 
L 506.557787 221.19155 
L 509.186143 219.144045 
L 511.814499 208.679018 
L 514.442855 213.229029 
L 519.699567 207.617348 
L 522.327923 206.100678 
L 524.956279 205.645677 
L 527.584636 205.49401 
L 530.212992 200.792331 
L 532.841348 202.005667 
L 535.469704 200.261496 
L 538.09806 203.294837 
L 540.726416 206.555679 
L 543.354772 193.967314 
L 545.983128 177.814772 
L 548.611484 178.345607 
L 551.23984 177.738939 
L 553.868197 177.738939 
L 556.496553 172.203091 
L 559.124909 170.155586 
L 561.753265 164.998906 
L 564.381621 154.230545 
L 567.009977 149.908034 
L 569.638333 159.993893 
L 572.266689 169.018083 
L 574.895045 170.610587 
L 577.523401 161.965565 
L 580.151758 148.31553 
L 582.780114 133.90716 
L 582.780114 133.90716 
" style="fill:none;stroke:#1f77b4;stroke-linecap:square;stroke-width:1.5;"/>
   </g>
   <g id="line2d_37">
    <path clip-path="url(#pc97e6e01e4)" d="M 75.507386 307.869271 
L 78.135742 273.744184 
L 80.764099 232.794079 
L 83.392455 263.885826 
L 86.020811 230.519074 
L 88.649167 194.118981 
L 91.277523 228.244068 
L 93.905879 175.918934 
L 99.162591 231.277409 
L 101.790947 171.368922 
L 104.419303 300.285919 
L 107.04766 237.344091 
L 109.676016 200.943998 
L 112.304372 185.018957 
L 114.932728 330.619329 
L 117.561084 323.794312 
L 120.18944 263.12749 
L 122.817796 333.65267 
L 125.446152 250.235791 
L 128.074508 251.752461 
L 130.702864 248.71912 
L 133.331221 224.452391 
L 135.959577 265.402496 
L 138.587933 229.002403 
L 141.216289 241.135767 
L 143.844645 208.527351 
L 146.473001 294.219236 
L 149.101357 268.435837 
L 151.729713 233.552415 
L 154.358069 242.652438 
L 156.986425 229.760738 
L 159.614782 268.435837 
L 162.243138 285.877548 
L 164.871494 212.319027 
L 167.49985 252.510796 
L 170.128206 304.077595 
L 172.756562 275.260855 
L 175.384918 230.519074 
L 178.013274 229.760738 
L 180.64163 197.152322 
L 183.269986 191.843975 
L 185.898343 196.393986 
L 188.526699 230.519074 
L 191.155055 267.677502 
L 193.783411 226.727397 
L 196.411767 238.860762 
L 199.040123 188.810634 
L 201.668479 252.510796 
L 204.296835 303.31926 
L 206.925191 236.585756 
L 209.553547 202.460669 
L 212.181904 277.53586 
L 214.81026 270.710843 
L 217.438616 204.735674 
L 220.066972 280.569201 
L 222.695328 247.960785 
L 225.323684 258.577479 
L 227.95204 222.177386 
L 230.580396 194.877316 
L 233.208752 241.894103 
L 235.837108 210.044021 
L 238.465465 207.01068 
L 241.093821 240.377432 
L 243.722177 265.402496 
L 246.350533 312.419283 
L 248.978889 282.085872 
L 251.607245 231.277409 
L 254.235601 277.53586 
L 256.863957 244.927444 
L 259.492313 185.018957 
L 262.120669 272.227514 
L 264.749026 282.844207 
L 267.377382 222.177386 
L 270.005738 225.969062 
L 272.634094 297.252577 
L 275.26245 177.435605 
L 277.890806 228.244068 
L 280.519162 267.677502 
L 283.147518 254.027467 
L 285.775874 216.869039 
L 288.40423 221.41905 
L 291.032587 220.660715 
L 293.660943 326.069318 
L 296.289299 213.835698 
L 298.917655 301.044254 
L 301.546011 276.01919 
L 304.174367 189.568969 
L 306.802723 204.735674 
L 309.431079 175.918934 
L 312.059435 185.777293 
L 314.687791 138.760506 
L 317.316148 291.185895 
L 319.944504 255.544138 
L 322.57286 241.894103 
L 325.201216 247.960785 
L 327.829572 205.49401 
L 330.457928 276.01919 
L 333.086284 207.769015 
L 335.71464 267.677502 
L 338.342996 257.060808 
L 340.971352 110.702101 
L 343.599709 177.435605 
L 346.228065 211.560692 
L 348.856421 262.369155 
L 351.484777 148.618864 
L 354.113133 251.752461 
L 356.741489 163.027235 
L 359.369845 228.244068 
L 361.998201 254.785802 
L 364.626557 219.90238 
L 367.254913 179.71061 
L 369.88327 223.694056 
L 372.511626 121.318795 
L 375.139982 121.318795 
L 377.768338 216.110703 
L 380.396694 207.01068 
L 383.02505 227.485733 
L 385.653406 138.002171 
L 388.281762 134.968829 
L 390.910118 284.360878 
L 393.538474 202.460669 
L 396.166831 227.485733 
L 398.795187 191.08564 
L 401.423543 192.60231 
L 404.051899 218.385709 
L 406.680255 153.927211 
L 409.308611 225.969062 
L 411.936967 203.219004 
L 414.565323 219.144045 
L 417.193679 211.560692 
L 419.822035 175.160599 
L 422.450392 158.477223 
L 425.078748 160.752229 
L 427.707104 96.293731 
L 430.33546 167.577246 
L 432.963816 119.802124 
L 435.592172 215.352368 
L 438.220528 250.994126 
L 440.848884 241.894103 
L 443.47724 244.927444 
L 446.105596 247.20245 
L 448.733953 198.668992 
L 451.362309 159.235558 
L 453.990665 194.118981 
L 456.619021 181.985616 
L 459.247377 252.510796 
L 461.875733 197.910657 
L 464.504089 271.469178 
L 467.132445 211.560692 
L 469.760801 229.760738 
L 472.389157 184.260622 
L 475.017514 199.427328 
L 477.64587 224.452391 
L 480.274226 203.219004 
L 482.902582 226.727397 
L 485.530938 264.644161 
L 488.159294 156.202217 
L 490.78765 236.585756 
L 493.416006 290.42756 
L 496.044362 164.543905 
L 498.672718 191.843975 
L 501.301075 210.044021 
L 503.929431 283.602543 
L 506.557787 187.293963 
L 509.186143 206.252345 
L 511.814499 159.993893 
L 514.442855 201.702333 
L 517.071211 208.527351 
L 519.699567 262.369155 
L 522.327923 149.3772 
L 524.956279 187.293963 
L 527.584636 208.527351 
L 530.212992 236.585756 
L 532.841348 199.427328 
L 535.469704 188.810634 
L 538.09806 190.327304 
L 540.726416 234.31075 
L 543.354772 82.643696 
L 545.983128 100.843742 
L 548.611484 154.685547 
L 553.868197 208.527351 
L 556.496553 181.227281 
L 559.124909 178.952275 
L 561.753265 137.243835 
L 564.381621 82.643696 
L 567.009977 191.08564 
L 569.638333 183.502287 
L 572.266689 191.08564 
L 574.895045 170.610587 
L 577.523401 94.77706 
L 580.151758 72.027002 
L 582.780114 37.14358 
L 582.780114 37.14358 
" style="fill:none;stroke:#ff7f0e;stroke-linecap:square;stroke-width:1.5;"/>
   </g>
   <g id="patch_3">
    <path d="M 50.14375 348.478125 
L 50.14375 22.318125 
" style="fill:none;stroke:#000000;stroke-linecap:square;stroke-linejoin:miter;stroke-width:0.8;"/>
   </g>
   <g id="patch_4">
    <path d="M 608.14375 348.478125 
L 608.14375 22.318125 
" style="fill:none;stroke:#000000;stroke-linecap:square;stroke-linejoin:miter;stroke-width:0.8;"/>
   </g>
   <g id="patch_5">
    <path d="M 50.14375 348.478125 
L 608.14375 348.478125 
" style="fill:none;stroke:#000000;stroke-linecap:square;stroke-linejoin:miter;stroke-width:0.8;"/>
   </g>
   <g id="patch_6">
    <path d="M 50.14375 22.318125 
L 608.14375 22.318125 
" style="fill:none;stroke:#000000;stroke-linecap:square;stroke-linejoin:miter;stroke-width:0.8;"/>
   </g>
   <g id="text_17">
    <!-- Trend for Dallas city -->
    <defs>
     <path d="M 45.40625 46.390625 
L 45.40625 75.984375 
L 54.390625 75.984375 
L 54.390625 0 
L 45.40625 0 
L 45.40625 8.203125 
Q 42.578125 3.328125 38.25 0.953125 
Q 33.9375 -1.421875 27.875 -1.421875 
Q 17.96875 -1.421875 11.734375 6.484375 
Q 5.515625 14.40625 5.515625 27.296875 
Q 5.515625 40.1875 11.734375 48.09375 
Q 17.96875 56 27.875 56 
Q 33.9375 56 38.25 53.625 
Q 42.578125 51.265625 45.40625 46.390625 
z
M 14.796875 27.296875 
Q 14.796875 17.390625 18.875 11.75 
Q 22.953125 6.109375 30.078125 6.109375 
Q 37.203125 6.109375 41.296875 11.75 
Q 45.40625 17.390625 45.40625 27.296875 
Q 45.40625 37.203125 41.296875 42.84375 
Q 37.203125 48.484375 30.078125 48.484375 
Q 22.953125 48.484375 18.875 42.84375 
Q 14.796875 37.203125 14.796875 27.296875 
z
" id="DejaVuSans-64"/>
     <path d="M 37.109375 75.984375 
L 37.109375 68.5 
L 28.515625 68.5 
Q 23.6875 68.5 21.796875 66.546875 
Q 19.921875 64.59375 19.921875 59.515625 
L 19.921875 54.6875 
L 34.71875 54.6875 
L 34.71875 47.703125 
L 19.921875 47.703125 
L 19.921875 0 
L 10.890625 0 
L 10.890625 47.703125 
L 2.296875 47.703125 
L 2.296875 54.6875 
L 10.890625 54.6875 
L 10.890625 58.5 
Q 10.890625 67.625 15.140625 71.796875 
Q 19.390625 75.984375 28.609375 75.984375 
z
" id="DejaVuSans-66"/>
     <path d="M 30.609375 48.390625 
Q 23.390625 48.390625 19.1875 42.75 
Q 14.984375 37.109375 14.984375 27.296875 
Q 14.984375 17.484375 19.15625 11.84375 
Q 23.34375 6.203125 30.609375 6.203125 
Q 37.796875 6.203125 41.984375 11.859375 
Q 46.1875 17.53125 46.1875 27.296875 
Q 46.1875 37.015625 41.984375 42.703125 
Q 37.796875 48.390625 30.609375 48.390625 
z
M 30.609375 56 
Q 42.328125 56 49.015625 48.375 
Q 55.71875 40.765625 55.71875 27.296875 
Q 55.71875 13.875 49.015625 6.21875 
Q 42.328125 -1.421875 30.609375 -1.421875 
Q 18.84375 -1.421875 12.171875 6.21875 
Q 5.515625 13.875 5.515625 27.296875 
Q 5.515625 40.765625 12.171875 48.375 
Q 18.84375 56 30.609375 56 
z
" id="DejaVuSans-6f"/>
     <path d="M 48.78125 52.59375 
L 48.78125 44.1875 
Q 44.96875 46.296875 41.140625 47.34375 
Q 37.3125 48.390625 33.40625 48.390625 
Q 24.65625 48.390625 19.8125 42.84375 
Q 14.984375 37.3125 14.984375 27.296875 
Q 14.984375 17.28125 19.8125 11.734375 
Q 24.65625 6.203125 33.40625 6.203125 
Q 37.3125 6.203125 41.140625 7.25 
Q 44.96875 8.296875 48.78125 10.40625 
L 48.78125 2.09375 
Q 45.015625 0.34375 40.984375 -0.53125 
Q 36.96875 -1.421875 32.421875 -1.421875 
Q 20.0625 -1.421875 12.78125 6.34375 
Q 5.515625 14.109375 5.515625 27.296875 
Q 5.515625 40.671875 12.859375 48.328125 
Q 20.21875 56 33.015625 56 
Q 37.15625 56 41.109375 55.140625 
Q 45.0625 54.296875 48.78125 52.59375 
z
" id="DejaVuSans-63"/>
     <path d="M 32.171875 -5.078125 
Q 28.375 -14.84375 24.75 -17.8125 
Q 21.140625 -20.796875 15.09375 -20.796875 
L 7.90625 -20.796875 
L 7.90625 -13.28125 
L 13.1875 -13.28125 
Q 16.890625 -13.28125 18.9375 -11.515625 
Q 21 -9.765625 23.484375 -3.21875 
L 25.09375 0.875 
L 2.984375 54.6875 
L 12.5 54.6875 
L 29.59375 11.921875 
L 46.6875 54.6875 
L 56.203125 54.6875 
z
" id="DejaVuSans-79"/>
    </defs>
    <g transform="translate(268.450938 16.318125)scale(0.12 -0.12)">
     <use xlink:href="#DejaVuSans-54"/>
     <use x="60.865234" xlink:href="#DejaVuSans-72"/>
     <use x="101.947266" xlink:href="#DejaVuSans-65"/>
     <use x="163.470703" xlink:href="#DejaVuSans-6e"/>
     <use x="226.849609" xlink:href="#DejaVuSans-64"/>
     <use x="290.326172" xlink:href="#DejaVuSans-20"/>
     <use x="322.113281" xlink:href="#DejaVuSans-66"/>
     <use x="357.318359" xlink:href="#DejaVuSans-6f"/>
     <use x="418.5" xlink:href="#DejaVuSans-72"/>
     <use x="459.613281" xlink:href="#DejaVuSans-20"/>
     <use x="491.400391" xlink:href="#DejaVuSans-44"/>
     <use x="568.402344" xlink:href="#DejaVuSans-61"/>
     <use x="629.681641" xlink:href="#DejaVuSans-6c"/>
     <use x="657.464844" xlink:href="#DejaVuSans-6c"/>
     <use x="685.248047" xlink:href="#DejaVuSans-61"/>
     <use x="746.527344" xlink:href="#DejaVuSans-73"/>
     <use x="798.626953" xlink:href="#DejaVuSans-20"/>
     <use x="830.414062" xlink:href="#DejaVuSans-63"/>
     <use x="885.394531" xlink:href="#DejaVuSans-69"/>
     <use x="913.177734" xlink:href="#DejaVuSans-74"/>
     <use x="952.386719" xlink:href="#DejaVuSans-79"/>
    </g>
   </g>
   <g id="legend_1">
    <g id="patch_7">
     <path d="M 57.14375 60.230625 
L 218.003125 60.230625 
Q 220.003125 60.230625 220.003125 58.230625 
L 220.003125 29.318125 
Q 220.003125 27.318125 218.003125 27.318125 
L 57.14375 27.318125 
Q 55.14375 27.318125 55.14375 29.318125 
L 55.14375 58.230625 
Q 55.14375 60.230625 57.14375 60.230625 
z
" style="fill:#ffffff;opacity:0.8;stroke:#cccccc;stroke-linejoin:miter;"/>
    </g>
    <g id="line2d_38">
     <path d="M 59.14375 35.416562 
L 79.14375 35.416562 
" style="fill:none;stroke:#1f77b4;stroke-linecap:square;stroke-width:1.5;"/>
    </g>
    <g id="line2d_39"/>
    <g id="text_18">
     <!-- dallas_mov_avg -->
     <defs>
      <path d="M 50.984375 -16.609375 
L 50.984375 -23.578125 
L -0.984375 -23.578125 
L -0.984375 -16.609375 
z
" id="DejaVuSans-5f"/>
      <path d="M 2.984375 54.6875 
L 12.5 54.6875 
L 29.59375 8.796875 
L 46.6875 54.6875 
L 56.203125 54.6875 
L 35.6875 0 
L 23.484375 0 
z
" id="DejaVuSans-76"/>
     </defs>
     <g transform="translate(87.14375 38.916562)scale(0.1 -0.1)">
      <use xlink:href="#DejaVuSans-64"/>
      <use x="63.476562" xlink:href="#DejaVuSans-61"/>
      <use x="124.755859" xlink:href="#DejaVuSans-6c"/>
      <use x="152.539062" xlink:href="#DejaVuSans-6c"/>
      <use x="180.322266" xlink:href="#DejaVuSans-61"/>
      <use x="241.601562" xlink:href="#DejaVuSans-73"/>
      <use x="293.701172" xlink:href="#DejaVuSans-5f"/>
      <use x="343.701172" xlink:href="#DejaVuSans-6d"/>
      <use x="441.113281" xlink:href="#DejaVuSans-6f"/>
      <use x="502.294922" xlink:href="#DejaVuSans-76"/>
      <use x="561.474609" xlink:href="#DejaVuSans-5f"/>
      <use x="611.474609" xlink:href="#DejaVuSans-61"/>
      <use x="672.753906" xlink:href="#DejaVuSans-76"/>
      <use x="731.933594" xlink:href="#DejaVuSans-67"/>
     </g>
    </g>
    <g id="line2d_40">
     <path d="M 59.14375 50.372812 
L 79.14375 50.372812 
" style="fill:none;stroke:#ff7f0e;stroke-linecap:square;stroke-width:1.5;"/>
    </g>
    <g id="line2d_41"/>
    <g id="text_19">
     <!-- trend_dallas_unsmoothed -->
     <defs>
      <path d="M 54.890625 33.015625 
L 54.890625 0 
L 45.90625 0 
L 45.90625 32.71875 
Q 45.90625 40.484375 42.875 44.328125 
Q 39.84375 48.1875 33.796875 48.1875 
Q 26.515625 48.1875 22.3125 43.546875 
Q 18.109375 38.921875 18.109375 30.90625 
L 18.109375 0 
L 9.078125 0 
L 9.078125 75.984375 
L 18.109375 75.984375 
L 18.109375 46.1875 
Q 21.34375 51.125 25.703125 53.5625 
Q 30.078125 56 35.796875 56 
Q 45.21875 56 50.046875 50.171875 
Q 54.890625 44.34375 54.890625 33.015625 
z
" id="DejaVuSans-68"/>
     </defs>
     <g transform="translate(87.14375 53.872812)scale(0.1 -0.1)">
      <use xlink:href="#DejaVuSans-74"/>
      <use x="39.208984" xlink:href="#DejaVuSans-72"/>
      <use x="80.291016" xlink:href="#DejaVuSans-65"/>
      <use x="141.814453" xlink:href="#DejaVuSans-6e"/>
      <use x="205.193359" xlink:href="#DejaVuSans-64"/>
      <use x="268.669922" xlink:href="#DejaVuSans-5f"/>
      <use x="318.669922" xlink:href="#DejaVuSans-64"/>
      <use x="382.146484" xlink:href="#DejaVuSans-61"/>
      <use x="443.425781" xlink:href="#DejaVuSans-6c"/>
      <use x="471.208984" xlink:href="#DejaVuSans-6c"/>
      <use x="498.992188" xlink:href="#DejaVuSans-61"/>
      <use x="560.271484" xlink:href="#DejaVuSans-73"/>
      <use x="612.371094" xlink:href="#DejaVuSans-5f"/>
      <use x="662.371094" xlink:href="#DejaVuSans-75"/>
      <use x="725.75" xlink:href="#DejaVuSans-6e"/>
      <use x="789.128906" xlink:href="#DejaVuSans-73"/>
      <use x="841.228516" xlink:href="#DejaVuSans-6d"/>
      <use x="938.640625" xlink:href="#DejaVuSans-6f"/>
      <use x="999.822266" xlink:href="#DejaVuSans-6f"/>
      <use x="1061.003906" xlink:href="#DejaVuSans-74"/>
      <use x="1100.212891" xlink:href="#DejaVuSans-68"/>
      <use x="1163.591797" xlink:href="#DejaVuSans-65"/>
      <use x="1225.115234" xlink:href="#DejaVuSans-64"/>
     </g>
    </g>
   </g>
  </g>
 </g>
 <defs>
  <clipPath id="pc97e6e01e4">
   <rect height="326.16" width="558" x="50.14375" y="22.318125"/>
  </clipPath>
 </defs>
</svg>
