<?xml version="1.0" encoding="utf-8" standalone="no"?>
<!DOCTYPE svg PUBLIC "-//W3C//DTD SVG 1.1//EN"
  "http://www.w3.org/Graphics/SVG/1.1/DTD/svg11.dtd">
<!-- Created with matplotlib (http://matplotlib.org/) -->
<svg height="351.528125pt" version="1.1" viewBox="0 0 351.740625 351.528125" width="351.740625pt" xmlns="http://www.w3.org/2000/svg" xmlns:xlink="http://www.w3.org/1999/xlink">
 <defs>
  <style type="text/css">
*{stroke-linecap:butt;stroke-linejoin:round;}
  </style>
 </defs>
 <g id="figure_1">
  <g id="patch_1">
   <path d="M 0 351.528125 
L 351.740625 351.528125 
L 351.740625 0 
L 0 0 
z
" style="fill:none;"/>
  </g>
  <g id="axes_1">
   <g id="patch_2">
    <path d="M 50.421875 313.69375 
L 341.040625 313.69375 
L 341.040625 10.7 
L 50.421875 10.7 
z
" style="fill:#ffffff;"/>
   </g>
   <g id="PathCollection_1">
    <defs>
     <path d="M 0 3 
C 0.795609 3 1.55874 2.683901 2.12132 2.12132 
C 2.683901 1.55874 3 0.795609 3 0 
C 3 -0.795609 2.683901 -1.55874 2.12132 -2.12132 
C 1.55874 -2.683901 0.795609 -3 0 -3 
C -0.795609 -3 -1.55874 -2.683901 -2.12132 -2.12132 
C -2.683901 -1.55874 -3 -0.795609 -3 0 
C -3 0.795609 -2.683901 1.55874 -2.12132 2.12132 
C -1.55874 2.683901 -0.795609 3 0 3 
z
" id="mbad62e3b5d" style="stroke:#1f77b4;stroke-opacity:0.8;"/>
    </defs>
    <g clip-path="url(#pe848fe475e)">
     <use style="fill:#1f77b4;fill-opacity:0.8;stroke:#1f77b4;stroke-opacity:0.8;" x="92.839927" xlink:href="#mbad62e3b5d" y="275.957795"/>
     <use style="fill:#1f77b4;fill-opacity:0.8;stroke:#1f77b4;stroke-opacity:0.8;" x="144.560699" xlink:href="#mbad62e3b5d" y="244.259706"/>
     <use style="fill:#1f77b4;fill-opacity:0.8;stroke:#1f77b4;stroke-opacity:0.8;" x="155.565118" xlink:href="#mbad62e3b5d" y="206.221999"/>
     <use style="fill:#1f77b4;fill-opacity:0.8;stroke:#1f77b4;stroke-opacity:0.8;" x="103.844346" xlink:href="#mbad62e3b5d" y="235.10248"/>
     <use style="fill:#1f77b4;fill-opacity:0.8;stroke:#1f77b4;stroke-opacity:0.8;" x="195.181029" xlink:href="#mbad62e3b5d" y="204.108793"/>
     <use style="fill:#1f77b4;fill-opacity:0.8;stroke:#1f77b4;stroke-opacity:0.8;" x="177.573958" xlink:href="#mbad62e3b5d" y="170.297498"/>
     <use style="fill:#1f77b4;fill-opacity:0.8;stroke:#1f77b4;stroke-opacity:0.8;" x="174.272632" xlink:href="#mbad62e3b5d" y="201.995587"/>
     <use style="fill:#1f77b4;fill-opacity:0.8;stroke:#1f77b4;stroke-opacity:0.8;" x="223.79252" xlink:href="#mbad62e3b5d" y="153.39185"/>
     <use style="fill:#1f77b4;fill-opacity:0.8;stroke:#1f77b4;stroke-opacity:0.8;" x="153.364235" xlink:href="#mbad62e3b5d" y="178.750322"/>
     <use style="fill:#1f77b4;fill-opacity:0.8;stroke:#1f77b4;stroke-opacity:0.8;" x="128.054069" xlink:href="#mbad62e3b5d" y="204.813195"/>
     <use style="fill:#1f77b4;fill-opacity:0.8;stroke:#1f77b4;stroke-opacity:0.8;" x="191.879703" xlink:href="#mbad62e3b5d" y="149.165438"/>
     <use style="fill:#1f77b4;fill-opacity:0.8;stroke:#1f77b4;stroke-opacity:0.8;" x="95.040811" xlink:href="#mbad62e3b5d" y="268.913775"/>
     <use style="fill:#1f77b4;fill-opacity:0.8;stroke:#1f77b4;stroke-opacity:0.8;" x="74.132413" xlink:href="#mbad62e3b5d" y="210.448411"/>
     <use style="fill:#1f77b4;fill-opacity:0.8;stroke:#1f77b4;stroke-opacity:0.8;" x="135.757163" xlink:href="#mbad62e3b5d" y="176.637116"/>
     <use style="fill:#1f77b4;fill-opacity:0.8;stroke:#1f77b4;stroke-opacity:0.8;" x="151.163351" xlink:href="#mbad62e3b5d" y="161.844674"/>
     <use style="fill:#1f77b4;fill-opacity:0.8;stroke:#1f77b4;stroke-opacity:0.8;" x="67.529762" xlink:href="#mbad62e3b5d" y="297.089855"/>
     <use style="fill:#1f77b4;fill-opacity:0.8;stroke:#1f77b4;stroke-opacity:0.8;" x="101.643462" xlink:href="#mbad62e3b5d" y="290.750237"/>
     <use style="fill:#1f77b4;fill-opacity:0.8;stroke:#1f77b4;stroke-opacity:0.8;" x="66.42932" xlink:href="#mbad62e3b5d" y="234.398078"/>
     <use style="fill:#1f77b4;fill-opacity:0.8;stroke:#1f77b4;stroke-opacity:0.8;" x="80.735065" xlink:href="#mbad62e3b5d" y="299.907462"/>
     <use style="fill:#1f77b4;fill-opacity:0.8;stroke:#1f77b4;stroke-opacity:0.8;" x="93.940369" xlink:href="#mbad62e3b5d" y="222.423244"/>
     <use style="fill:#1f77b4;fill-opacity:0.8;stroke:#1f77b4;stroke-opacity:0.8;" x="112.647882" xlink:href="#mbad62e3b5d" y="223.832048"/>
     <use style="fill:#1f77b4;fill-opacity:0.8;stroke:#1f77b4;stroke-opacity:0.8;" x="100.54302" xlink:href="#mbad62e3b5d" y="221.014441"/>
     <use style="fill:#1f77b4;fill-opacity:0.8;stroke:#1f77b4;stroke-opacity:0.8;" x="136.857605" xlink:href="#mbad62e3b5d" y="198.473577"/>
     <use style="fill:#1f77b4;fill-opacity:0.8;stroke:#1f77b4;stroke-opacity:0.8;" x="153.364235" xlink:href="#mbad62e3b5d" y="236.511284"/>
     <use style="fill:#1f77b4;fill-opacity:0.8;stroke:#1f77b4;stroke-opacity:0.8;" x="96.141253" xlink:href="#mbad62e3b5d" y="202.699989"/>
     <use style="fill:#1f77b4;fill-opacity:0.8;stroke:#1f77b4;stroke-opacity:0.8;" x="118.150092" xlink:href="#mbad62e3b5d" y="213.970421"/>
     <use style="fill:#1f77b4;fill-opacity:0.8;stroke:#1f77b4;stroke-opacity:0.8;" x="195.181029" xlink:href="#mbad62e3b5d" y="183.681135"/>
     <use style="fill:#1f77b4;fill-opacity:0.8;stroke:#1f77b4;stroke-opacity:0.8;" x="144.560699" xlink:href="#mbad62e3b5d" y="263.278559"/>
     <use style="fill:#1f77b4;fill-opacity:0.8;stroke:#1f77b4;stroke-opacity:0.8;" x="132.455837" xlink:href="#mbad62e3b5d" y="239.328892"/>
     <use style="fill:#1f77b4;fill-opacity:0.8;stroke:#1f77b4;stroke-opacity:0.8;" x="132.455837" xlink:href="#mbad62e3b5d" y="206.926401"/>
     <use style="fill:#1f77b4;fill-opacity:0.8;stroke:#1f77b4;stroke-opacity:0.8;" x="123.652302" xlink:href="#mbad62e3b5d" y="215.379225"/>
     <use style="fill:#1f77b4;fill-opacity:0.8;stroke:#1f77b4;stroke-opacity:0.8;" x="154.464676" xlink:href="#mbad62e3b5d" y="203.404391"/>
     <use style="fill:#1f77b4;fill-opacity:0.8;stroke:#1f77b4;stroke-opacity:0.8;" x="145.661141" xlink:href="#mbad62e3b5d" y="239.328892"/>
     <use style="fill:#1f77b4;fill-opacity:0.8;stroke:#1f77b4;stroke-opacity:0.8;" x="139.058489" xlink:href="#mbad62e3b5d" y="255.530138"/>
     <use style="fill:#1f77b4;fill-opacity:0.8;stroke:#1f77b4;stroke-opacity:0.8;" x="157.766002" xlink:href="#mbad62e3b5d" y="187.203145"/>
     <use style="fill:#1f77b4;fill-opacity:0.8;stroke:#1f77b4;stroke-opacity:0.8;" x="146.761583" xlink:href="#mbad62e3b5d" y="224.53645"/>
     <use style="fill:#1f77b4;fill-opacity:0.8;stroke:#1f77b4;stroke-opacity:0.8;" x="134.656721" xlink:href="#mbad62e3b5d" y="272.435785"/>
     <use style="fill:#1f77b4;fill-opacity:0.8;stroke:#1f77b4;stroke-opacity:0.8;" x="108.246114" xlink:href="#mbad62e3b5d" y="245.66851"/>
     <use style="fill:#1f77b4;fill-opacity:0.8;stroke:#1f77b4;stroke-opacity:0.8;" x="145.661141" xlink:href="#mbad62e3b5d" y="204.108793"/>
     <use style="fill:#1f77b4;fill-opacity:0.8;stroke:#1f77b4;stroke-opacity:0.8;" x="162.16777" xlink:href="#mbad62e3b5d" y="203.404391"/>
     <use style="fill:#1f77b4;fill-opacity:0.8;stroke:#1f77b4;stroke-opacity:0.8;" x="130.254953" xlink:href="#mbad62e3b5d" y="173.115106"/>
     <use style="fill:#1f77b4;fill-opacity:0.8;stroke:#1f77b4;stroke-opacity:0.8;" x="118.150092" xlink:href="#mbad62e3b5d" y="168.184292"/>
     <use style="fill:#1f77b4;fill-opacity:0.8;stroke:#1f77b4;stroke-opacity:0.8;" x="86.237275" xlink:href="#mbad62e3b5d" y="172.410704"/>
     <use style="fill:#1f77b4;fill-opacity:0.8;stroke:#1f77b4;stroke-opacity:0.8;" x="146.761583" xlink:href="#mbad62e3b5d" y="204.108793"/>
     <use style="fill:#1f77b4;fill-opacity:0.8;stroke:#1f77b4;stroke-opacity:0.8;" x="132.455837" xlink:href="#mbad62e3b5d" y="238.62449"/>
     <use style="fill:#1f77b4;fill-opacity:0.8;stroke:#1f77b4;stroke-opacity:0.8;" x="154.464676" xlink:href="#mbad62e3b5d" y="200.586783"/>
     <use style="fill:#1f77b4;fill-opacity:0.8;stroke:#1f77b4;stroke-opacity:0.8;" x="166.569538" xlink:href="#mbad62e3b5d" y="211.857215"/>
     <use style="fill:#1f77b4;fill-opacity:0.8;stroke:#1f77b4;stroke-opacity:0.8;" x="183.076167" xlink:href="#mbad62e3b5d" y="165.366684"/>
     <use style="fill:#1f77b4;fill-opacity:0.8;stroke:#1f77b4;stroke-opacity:0.8;" x="162.16777" xlink:href="#mbad62e3b5d" y="224.53645"/>
     <use style="fill:#1f77b4;fill-opacity:0.8;stroke:#1f77b4;stroke-opacity:0.8;" x="181.975725" xlink:href="#mbad62e3b5d" y="271.731383"/>
     <use style="fill:#1f77b4;fill-opacity:0.8;stroke:#1f77b4;stroke-opacity:0.8;" x="156.66556" xlink:href="#mbad62e3b5d" y="209.744009"/>
     <use style="fill:#1f77b4;fill-opacity:0.8;stroke:#1f77b4;stroke-opacity:0.8;" x="147.862025" xlink:href="#mbad62e3b5d" y="178.04592"/>
     <use style="fill:#1f77b4;fill-opacity:0.8;stroke:#1f77b4;stroke-opacity:0.8;" x="155.565118" xlink:href="#mbad62e3b5d" y="247.781716"/>
     <use style="fill:#1f77b4;fill-opacity:0.8;stroke:#1f77b4;stroke-opacity:0.8;" x="173.17219" xlink:href="#mbad62e3b5d" y="241.442098"/>
     <use style="fill:#1f77b4;fill-opacity:0.8;stroke:#1f77b4;stroke-opacity:0.8;" x="181.975725" xlink:href="#mbad62e3b5d" y="180.159126"/>
     <use style="fill:#1f77b4;fill-opacity:0.8;stroke:#1f77b4;stroke-opacity:0.8;" x="119.250534" xlink:href="#mbad62e3b5d" y="250.599324"/>
     <use style="fill:#1f77b4;fill-opacity:0.8;stroke:#1f77b4;stroke-opacity:0.8;" x="143.460257" xlink:href="#mbad62e3b5d" y="220.310039"/>
     <use style="fill:#1f77b4;fill-opacity:0.8;stroke:#1f77b4;stroke-opacity:0.8;" x="194.080587" xlink:href="#mbad62e3b5d" y="230.171666"/>
     <use style="fill:#1f77b4;fill-opacity:0.8;stroke:#1f77b4;stroke-opacity:0.8;" x="225.993404" xlink:href="#mbad62e3b5d" y="196.360371"/>
     <use style="fill:#1f77b4;fill-opacity:0.8;stroke:#1f77b4;stroke-opacity:0.8;" x="153.364235" xlink:href="#mbad62e3b5d" y="171.0019"/>
     <use style="fill:#1f77b4;fill-opacity:0.8;stroke:#1f77b4;stroke-opacity:0.8;" x="147.862025" xlink:href="#mbad62e3b5d" y="214.674823"/>
     <use style="fill:#1f77b4;fill-opacity:0.8;stroke:#1f77b4;stroke-opacity:0.8;" x="164.368654" xlink:href="#mbad62e3b5d" y="185.089939"/>
     <use style="fill:#1f77b4;fill-opacity:0.8;stroke:#1f77b4;stroke-opacity:0.8;" x="148.962467" xlink:href="#mbad62e3b5d" y="182.272331"/>
     <use style="fill:#1f77b4;fill-opacity:0.8;stroke:#1f77b4;stroke-opacity:0.8;" x="132.455837" xlink:href="#mbad62e3b5d" y="213.266019"/>
     <use style="fill:#1f77b4;fill-opacity:0.8;stroke:#1f77b4;stroke-opacity:0.8;" x="109.346556" xlink:href="#mbad62e3b5d" y="236.511284"/>
     <use style="fill:#1f77b4;fill-opacity:0.8;stroke:#1f77b4;stroke-opacity:0.8;" x="125.853186" xlink:href="#mbad62e3b5d" y="280.184207"/>
     <use style="fill:#1f77b4;fill-opacity:0.8;stroke:#1f77b4;stroke-opacity:0.8;" x="129.154511" xlink:href="#mbad62e3b5d" y="252.008128"/>
     <use style="fill:#1f77b4;fill-opacity:0.8;stroke:#1f77b4;stroke-opacity:0.8;" x="124.752744" xlink:href="#mbad62e3b5d" y="204.813195"/>
     <use style="fill:#1f77b4;fill-opacity:0.8;stroke:#1f77b4;stroke-opacity:0.8;" x="144.560699" xlink:href="#mbad62e3b5d" y="247.781716"/>
     <use style="fill:#1f77b4;fill-opacity:0.8;stroke:#1f77b4;stroke-opacity:0.8;" x="169.870864" xlink:href="#mbad62e3b5d" y="217.492431"/>
     <use style="fill:#1f77b4;fill-opacity:0.8;stroke:#1f77b4;stroke-opacity:0.8;" x="131.355395" xlink:href="#mbad62e3b5d" y="161.844674"/>
     <use style="fill:#1f77b4;fill-opacity:0.8;stroke:#1f77b4;stroke-opacity:0.8;" x="136.857605" xlink:href="#mbad62e3b5d" y="242.850902"/>
     <use style="fill:#1f77b4;fill-opacity:0.8;stroke:#1f77b4;stroke-opacity:0.8;" x="142.359815" xlink:href="#mbad62e3b5d" y="252.71253"/>
     <use style="fill:#1f77b4;fill-opacity:0.8;stroke:#1f77b4;stroke-opacity:0.8;" x="141.259373" xlink:href="#mbad62e3b5d" y="196.360371"/>
     <use style="fill:#1f77b4;fill-opacity:0.8;stroke:#1f77b4;stroke-opacity:0.8;" x="152.263793" xlink:href="#mbad62e3b5d" y="199.882381"/>
     <use style="fill:#1f77b4;fill-opacity:0.8;stroke:#1f77b4;stroke-opacity:0.8;" x="151.163351" xlink:href="#mbad62e3b5d" y="266.096167"/>
     <use style="fill:#1f77b4;fill-opacity:0.8;stroke:#1f77b4;stroke-opacity:0.8;" x="157.766002" xlink:href="#mbad62e3b5d" y="154.800654"/>
     <use style="fill:#1f77b4;fill-opacity:0.8;stroke:#1f77b4;stroke-opacity:0.8;" x="166.569538" xlink:href="#mbad62e3b5d" y="201.995587"/>
     <use style="fill:#1f77b4;fill-opacity:0.8;stroke:#1f77b4;stroke-opacity:0.8;" x="154.464676" xlink:href="#mbad62e3b5d" y="238.62449"/>
     <use style="fill:#1f77b4;fill-opacity:0.8;stroke:#1f77b4;stroke-opacity:0.8;" x="178.6744" xlink:href="#mbad62e3b5d" y="225.945254"/>
     <use style="fill:#1f77b4;fill-opacity:0.8;stroke:#1f77b4;stroke-opacity:0.8;" x="189.678819" xlink:href="#mbad62e3b5d" y="191.429557"/>
     <use style="fill:#1f77b4;fill-opacity:0.8;stroke:#1f77b4;stroke-opacity:0.8;" x="194.080587" xlink:href="#mbad62e3b5d" y="195.655969"/>
     <use style="fill:#1f77b4;fill-opacity:0.8;stroke:#1f77b4;stroke-opacity:0.8;" x="167.66998" xlink:href="#mbad62e3b5d" y="194.951567"/>
     <use style="fill:#1f77b4;fill-opacity:0.8;stroke:#1f77b4;stroke-opacity:0.8;" x="158.866444" xlink:href="#mbad62e3b5d" y="292.863443"/>
     <use style="fill:#1f77b4;fill-opacity:0.8;stroke:#1f77b4;stroke-opacity:0.8;" x="144.560699" xlink:href="#mbad62e3b5d" y="188.611949"/>
     <use style="fill:#1f77b4;fill-opacity:0.8;stroke:#1f77b4;stroke-opacity:0.8;" x="159.966886" xlink:href="#mbad62e3b5d" y="269.618177"/>
     <use style="fill:#1f77b4;fill-opacity:0.8;stroke:#1f77b4;stroke-opacity:0.8;" x="176.473516" xlink:href="#mbad62e3b5d" y="246.372912"/>
     <use style="fill:#1f77b4;fill-opacity:0.8;stroke:#1f77b4;stroke-opacity:0.8;" x="129.154511" xlink:href="#mbad62e3b5d" y="166.071086"/>
     <use style="fill:#1f77b4;fill-opacity:0.8;stroke:#1f77b4;stroke-opacity:0.8;" x="155.565118" xlink:href="#mbad62e3b5d" y="180.159126"/>
     <use style="fill:#1f77b4;fill-opacity:0.8;stroke:#1f77b4;stroke-opacity:0.8;" x="154.464676" xlink:href="#mbad62e3b5d" y="153.39185"/>
     <use style="fill:#1f77b4;fill-opacity:0.8;stroke:#1f77b4;stroke-opacity:0.8;" x="158.866444" xlink:href="#mbad62e3b5d" y="162.549076"/>
     <use style="fill:#1f77b4;fill-opacity:0.8;stroke:#1f77b4;stroke-opacity:0.8;" x="154.464676" xlink:href="#mbad62e3b5d" y="118.876153"/>
     <use style="fill:#1f77b4;fill-opacity:0.8;stroke:#1f77b4;stroke-opacity:0.8;" x="153.364235" xlink:href="#mbad62e3b5d" y="260.460951"/>
     <use style="fill:#1f77b4;fill-opacity:0.8;stroke:#1f77b4;stroke-opacity:0.8;" x="167.66998" xlink:href="#mbad62e3b5d" y="227.354058"/>
     <use style="fill:#1f77b4;fill-opacity:0.8;stroke:#1f77b4;stroke-opacity:0.8;" x="199.582797" xlink:href="#mbad62e3b5d" y="214.674823"/>
     <use style="fill:#1f77b4;fill-opacity:0.8;stroke:#1f77b4;stroke-opacity:0.8;" x="199.582797" xlink:href="#mbad62e3b5d" y="220.310039"/>
     <use style="fill:#1f77b4;fill-opacity:0.8;stroke:#1f77b4;stroke-opacity:0.8;" x="159.966886" xlink:href="#mbad62e3b5d" y="180.863528"/>
     <use style="fill:#1f77b4;fill-opacity:0.8;stroke:#1f77b4;stroke-opacity:0.8;" x="136.857605" xlink:href="#mbad62e3b5d" y="246.372912"/>
     <use style="fill:#1f77b4;fill-opacity:0.8;stroke:#1f77b4;stroke-opacity:0.8;" x="148.962467" xlink:href="#mbad62e3b5d" y="182.976733"/>
     <use style="fill:#1f77b4;fill-opacity:0.8;stroke:#1f77b4;stroke-opacity:0.8;" x="176.473516" xlink:href="#mbad62e3b5d" y="238.62449"/>
     <use style="fill:#1f77b4;fill-opacity:0.8;stroke:#1f77b4;stroke-opacity:0.8;" x="174.272632" xlink:href="#mbad62e3b5d" y="228.762862"/>
     <use style="fill:#1f77b4;fill-opacity:0.8;stroke:#1f77b4;stroke-opacity:0.8;" x="197.381913" xlink:href="#mbad62e3b5d" y="92.81328"/>
     <use style="fill:#1f77b4;fill-opacity:0.8;stroke:#1f77b4;stroke-opacity:0.8;" x="179.774842" xlink:href="#mbad62e3b5d" y="154.800654"/>
     <use style="fill:#1f77b4;fill-opacity:0.8;stroke:#1f77b4;stroke-opacity:0.8;" x="180.875284" xlink:href="#mbad62e3b5d" y="186.498743"/>
     <use style="fill:#1f77b4;fill-opacity:0.8;stroke:#1f77b4;stroke-opacity:0.8;" x="190.779261" xlink:href="#mbad62e3b5d" y="233.693676"/>
     <use style="fill:#1f77b4;fill-opacity:0.8;stroke:#1f77b4;stroke-opacity:0.8;" x="192.980145" xlink:href="#mbad62e3b5d" y="128.033379"/>
     <use style="fill:#1f77b4;fill-opacity:0.8;stroke:#1f77b4;stroke-opacity:0.8;" x="214.988984" xlink:href="#mbad62e3b5d" y="223.832048"/>
     <use style="fill:#1f77b4;fill-opacity:0.8;stroke:#1f77b4;stroke-opacity:0.8;" x="191.879703" xlink:href="#mbad62e3b5d" y="141.417017"/>
     <use style="fill:#1f77b4;fill-opacity:0.8;stroke:#1f77b4;stroke-opacity:0.8;" x="203.984565" xlink:href="#mbad62e3b5d" y="201.995587"/>
     <use style="fill:#1f77b4;fill-opacity:0.8;stroke:#1f77b4;stroke-opacity:0.8;" x="161.067328" xlink:href="#mbad62e3b5d" y="226.649656"/>
     <use style="fill:#1f77b4;fill-opacity:0.8;stroke:#1f77b4;stroke-opacity:0.8;" x="203.984565" xlink:href="#mbad62e3b5d" y="194.247165"/>
     <use style="fill:#1f77b4;fill-opacity:0.8;stroke:#1f77b4;stroke-opacity:0.8;" x="213.888542" xlink:href="#mbad62e3b5d" y="156.91386"/>
     <use style="fill:#1f77b4;fill-opacity:0.8;stroke:#1f77b4;stroke-opacity:0.8;" x="212.7881" xlink:href="#mbad62e3b5d" y="197.769175"/>
     <use style="fill:#1f77b4;fill-opacity:0.8;stroke:#1f77b4;stroke-opacity:0.8;" x="172.071748" xlink:href="#mbad62e3b5d" y="102.674908"/>
     <use style="fill:#1f77b4;fill-opacity:0.8;stroke:#1f77b4;stroke-opacity:0.8;" x="203.984565" xlink:href="#mbad62e3b5d" y="102.674908"/>
     <use style="fill:#1f77b4;fill-opacity:0.8;stroke:#1f77b4;stroke-opacity:0.8;" x="191.879703" xlink:href="#mbad62e3b5d" y="190.725155"/>
     <use style="fill:#1f77b4;fill-opacity:0.8;stroke:#1f77b4;stroke-opacity:0.8;" x="195.181029" xlink:href="#mbad62e3b5d" y="182.272331"/>
     <use style="fill:#1f77b4;fill-opacity:0.8;stroke:#1f77b4;stroke-opacity:0.8;" x="211.687658" xlink:href="#mbad62e3b5d" y="201.291185"/>
     <use style="fill:#1f77b4;fill-opacity:0.8;stroke:#1f77b4;stroke-opacity:0.8;" x="229.29473" xlink:href="#mbad62e3b5d" y="118.171751"/>
     <use style="fill:#1f77b4;fill-opacity:0.8;stroke:#1f77b4;stroke-opacity:0.8;" x="218.29031" xlink:href="#mbad62e3b5d" y="115.354143"/>
     <use style="fill:#1f77b4;fill-opacity:0.8;stroke:#1f77b4;stroke-opacity:0.8;" x="218.29031" xlink:href="#mbad62e3b5d" y="254.121334"/>
     <use style="fill:#1f77b4;fill-opacity:0.8;stroke:#1f77b4;stroke-opacity:0.8;" x="219.390752" xlink:href="#mbad62e3b5d" y="178.04592"/>
     <use style="fill:#1f77b4;fill-opacity:0.8;stroke:#1f77b4;stroke-opacity:0.8;" x="214.988984" xlink:href="#mbad62e3b5d" y="201.291185"/>
     <use style="fill:#1f77b4;fill-opacity:0.8;stroke:#1f77b4;stroke-opacity:0.8;" x="218.29031" xlink:href="#mbad62e3b5d" y="167.47989"/>
     <use style="fill:#1f77b4;fill-opacity:0.8;stroke:#1f77b4;stroke-opacity:0.8;" x="228.194288" xlink:href="#mbad62e3b5d" y="168.888694"/>
     <use style="fill:#1f77b4;fill-opacity:0.8;stroke:#1f77b4;stroke-opacity:0.8;" x="198.482355" xlink:href="#mbad62e3b5d" y="192.838361"/>
     <use style="fill:#1f77b4;fill-opacity:0.8;stroke:#1f77b4;stroke-opacity:0.8;" x="209.486775" xlink:href="#mbad62e3b5d" y="132.964193"/>
     <use style="fill:#1f77b4;fill-opacity:0.8;stroke:#1f77b4;stroke-opacity:0.8;" x="222.692078" xlink:href="#mbad62e3b5d" y="199.882381"/>
     <use style="fill:#1f77b4;fill-opacity:0.8;stroke:#1f77b4;stroke-opacity:0.8;" x="217.189868" xlink:href="#mbad62e3b5d" y="178.750322"/>
     <use style="fill:#1f77b4;fill-opacity:0.8;stroke:#1f77b4;stroke-opacity:0.8;" x="199.582797" xlink:href="#mbad62e3b5d" y="193.542763"/>
     <use style="fill:#1f77b4;fill-opacity:0.8;stroke:#1f77b4;stroke-opacity:0.8;" x="175.373074" xlink:href="#mbad62e3b5d" y="186.498743"/>
     <use style="fill:#1f77b4;fill-opacity:0.8;stroke:#1f77b4;stroke-opacity:0.8;" x="203.984565" xlink:href="#mbad62e3b5d" y="152.687448"/>
     <use style="fill:#1f77b4;fill-opacity:0.8;stroke:#1f77b4;stroke-opacity:0.8;" x="205.085007" xlink:href="#mbad62e3b5d" y="137.190605"/>
     <use style="fill:#1f77b4;fill-opacity:0.8;stroke:#1f77b4;stroke-opacity:0.8;" x="230.395172" xlink:href="#mbad62e3b5d" y="139.303811"/>
     <use style="fill:#1f77b4;fill-opacity:0.8;stroke:#1f77b4;stroke-opacity:0.8;" x="196.281471" xlink:href="#mbad62e3b5d" y="79.429642"/>
     <use style="fill:#1f77b4;fill-opacity:0.8;stroke:#1f77b4;stroke-opacity:0.8;" x="203.984565" xlink:href="#mbad62e3b5d" y="145.643428"/>
     <use style="fill:#1f77b4;fill-opacity:0.8;stroke:#1f77b4;stroke-opacity:0.8;" x="165.469096" xlink:href="#mbad62e3b5d" y="101.266104"/>
     <use style="fill:#1f77b4;fill-opacity:0.8;stroke:#1f77b4;stroke-opacity:0.8;" x="214.988984" xlink:href="#mbad62e3b5d" y="190.020753"/>
     <use style="fill:#1f77b4;fill-opacity:0.8;stroke:#1f77b4;stroke-opacity:0.8;" x="219.390752" xlink:href="#mbad62e3b5d" y="223.127646"/>
     <use style="fill:#1f77b4;fill-opacity:0.8;stroke:#1f77b4;stroke-opacity:0.8;" x="214.988984" xlink:href="#mbad62e3b5d" y="214.674823"/>
     <use style="fill:#1f77b4;fill-opacity:0.8;stroke:#1f77b4;stroke-opacity:0.8;" x="198.482355" xlink:href="#mbad62e3b5d" y="217.492431"/>
     <use style="fill:#1f77b4;fill-opacity:0.8;stroke:#1f77b4;stroke-opacity:0.8;" x="222.692078" xlink:href="#mbad62e3b5d" y="219.605637"/>
     <use style="fill:#1f77b4;fill-opacity:0.8;stroke:#1f77b4;stroke-opacity:0.8;" x="217.189868" xlink:href="#mbad62e3b5d" y="174.52391"/>
     <use style="fill:#1f77b4;fill-opacity:0.8;stroke:#1f77b4;stroke-opacity:0.8;" x="229.29473" xlink:href="#mbad62e3b5d" y="137.895007"/>
     <use style="fill:#1f77b4;fill-opacity:0.8;stroke:#1f77b4;stroke-opacity:0.8;" x="179.774842" xlink:href="#mbad62e3b5d" y="170.297498"/>
     <use style="fill:#1f77b4;fill-opacity:0.8;stroke:#1f77b4;stroke-opacity:0.8;" x="192.980145" xlink:href="#mbad62e3b5d" y="159.027066"/>
     <use style="fill:#1f77b4;fill-opacity:0.8;stroke:#1f77b4;stroke-opacity:0.8;" x="200.683239" xlink:href="#mbad62e3b5d" y="224.53645"/>
     <use style="fill:#1f77b4;fill-opacity:0.8;stroke:#1f77b4;stroke-opacity:0.8;" x="211.687658" xlink:href="#mbad62e3b5d" y="173.819508"/>
     <use style="fill:#1f77b4;fill-opacity:0.8;stroke:#1f77b4;stroke-opacity:0.8;" x="191.879703" xlink:href="#mbad62e3b5d" y="242.1465"/>
     <use style="fill:#1f77b4;fill-opacity:0.8;stroke:#1f77b4;stroke-opacity:0.8;" x="200.683239" xlink:href="#mbad62e3b5d" y="186.498743"/>
     <use style="fill:#1f77b4;fill-opacity:0.8;stroke:#1f77b4;stroke-opacity:0.8;" x="211.687658" xlink:href="#mbad62e3b5d" y="203.404391"/>
     <use style="fill:#1f77b4;fill-opacity:0.8;stroke:#1f77b4;stroke-opacity:0.8;" x="200.683239" xlink:href="#mbad62e3b5d" y="161.140272"/>
     <use style="fill:#1f77b4;fill-opacity:0.8;stroke:#1f77b4;stroke-opacity:0.8;" x="189.678819" xlink:href="#mbad62e3b5d" y="175.228312"/>
     <use style="fill:#1f77b4;fill-opacity:0.8;stroke:#1f77b4;stroke-opacity:0.8;" x="239.198707" xlink:href="#mbad62e3b5d" y="198.473577"/>
     <use style="fill:#1f77b4;fill-opacity:0.8;stroke:#1f77b4;stroke-opacity:0.8;" x="186.377493" xlink:href="#mbad62e3b5d" y="178.750322"/>
     <use style="fill:#1f77b4;fill-opacity:0.8;stroke:#1f77b4;stroke-opacity:0.8;" x="216.089426" xlink:href="#mbad62e3b5d" y="200.586783"/>
     <use style="fill:#1f77b4;fill-opacity:0.8;stroke:#1f77b4;stroke-opacity:0.8;" x="173.17219" xlink:href="#mbad62e3b5d" y="235.806882"/>
     <use style="fill:#1f77b4;fill-opacity:0.8;stroke:#1f77b4;stroke-opacity:0.8;" x="228.194288" xlink:href="#mbad62e3b5d" y="135.077399"/>
     <use style="fill:#1f77b4;fill-opacity:0.8;stroke:#1f77b4;stroke-opacity:0.8;" x="210.587216" xlink:href="#mbad62e3b5d" y="209.744009"/>
     <use style="fill:#1f77b4;fill-opacity:0.8;stroke:#1f77b4;stroke-opacity:0.8;" x="214.988984" xlink:href="#mbad62e3b5d" y="259.75655"/>
     <use style="fill:#1f77b4;fill-opacity:0.8;stroke:#1f77b4;stroke-opacity:0.8;" x="242.500033" xlink:href="#mbad62e3b5d" y="142.82582"/>
     <use style="fill:#1f77b4;fill-opacity:0.8;stroke:#1f77b4;stroke-opacity:0.8;" x="263.408431" xlink:href="#mbad62e3b5d" y="168.184292"/>
     <use style="fill:#1f77b4;fill-opacity:0.8;stroke:#1f77b4;stroke-opacity:0.8;" x="205.085007" xlink:href="#mbad62e3b5d" y="185.089939"/>
     <use style="fill:#1f77b4;fill-opacity:0.8;stroke:#1f77b4;stroke-opacity:0.8;" x="248.002243" xlink:href="#mbad62e3b5d" y="253.416932"/>
     <use style="fill:#1f77b4;fill-opacity:0.8;stroke:#1f77b4;stroke-opacity:0.8;" x="210.587216" xlink:href="#mbad62e3b5d" y="163.95788"/>
     <use style="fill:#1f77b4;fill-opacity:0.8;stroke:#1f77b4;stroke-opacity:0.8;" x="207.285891" xlink:href="#mbad62e3b5d" y="181.56793"/>
     <use style="fill:#1f77b4;fill-opacity:0.8;stroke:#1f77b4;stroke-opacity:0.8;" x="225.993404" xlink:href="#mbad62e3b5d" y="138.599409"/>
     <use style="fill:#1f77b4;fill-opacity:0.8;stroke:#1f77b4;stroke-opacity:0.8;" x="243.600475" xlink:href="#mbad62e3b5d" y="177.341518"/>
     <use style="fill:#1f77b4;fill-opacity:0.8;stroke:#1f77b4;stroke-opacity:0.8;" x="266.709756" xlink:href="#mbad62e3b5d" y="183.681135"/>
     <use style="fill:#1f77b4;fill-opacity:0.8;stroke:#1f77b4;stroke-opacity:0.8;" x="235.897382" xlink:href="#mbad62e3b5d" y="233.693676"/>
     <use style="fill:#1f77b4;fill-opacity:0.8;stroke:#1f77b4;stroke-opacity:0.8;" x="270.011082" xlink:href="#mbad62e3b5d" y="128.737781"/>
     <use style="fill:#1f77b4;fill-opacity:0.8;stroke:#1f77b4;stroke-opacity:0.8;" x="264.508873" xlink:href="#mbad62e3b5d" y="163.95788"/>
     <use style="fill:#1f77b4;fill-opacity:0.8;stroke:#1f77b4;stroke-opacity:0.8;" x="227.093846" xlink:href="#mbad62e3b5d" y="183.681135"/>
     <use style="fill:#1f77b4;fill-opacity:0.8;stroke:#1f77b4;stroke-opacity:0.8;" x="230.395172" xlink:href="#mbad62e3b5d" y="209.744009"/>
     <use style="fill:#1f77b4;fill-opacity:0.8;stroke:#1f77b4;stroke-opacity:0.8;" x="249.102685" xlink:href="#mbad62e3b5d" y="175.228312"/>
     <use style="fill:#1f77b4;fill-opacity:0.8;stroke:#1f77b4;stroke-opacity:0.8;" x="283.216386" xlink:href="#mbad62e3b5d" y="165.366684"/>
     <use style="fill:#1f77b4;fill-opacity:0.8;stroke:#1f77b4;stroke-opacity:0.8;" x="249.102685" xlink:href="#mbad62e3b5d" y="166.775488"/>
     <use style="fill:#1f77b4;fill-opacity:0.8;stroke:#1f77b4;stroke-opacity:0.8;" x="266.709756" xlink:href="#mbad62e3b5d" y="207.630803"/>
     <use style="fill:#1f77b4;fill-opacity:0.8;stroke:#1f77b4;stroke-opacity:0.8;" x="301.923899" xlink:href="#mbad62e3b5d" y="66.750406"/>
     <use style="fill:#1f77b4;fill-opacity:0.8;stroke:#1f77b4;stroke-opacity:0.8;" x="276.613734" xlink:href="#mbad62e3b5d" y="83.656054"/>
     <use style="fill:#1f77b4;fill-opacity:0.8;stroke:#1f77b4;stroke-opacity:0.8;" x="266.709756" xlink:href="#mbad62e3b5d" y="133.668595"/>
     <use style="fill:#1f77b4;fill-opacity:0.8;stroke:#1f77b4;stroke-opacity:0.8;" x="289.819038" xlink:href="#mbad62e3b5d" y="158.322664"/>
     <use style="fill:#1f77b4;fill-opacity:0.8;stroke:#1f77b4;stroke-opacity:0.8;" x="307.426109" xlink:href="#mbad62e3b5d" y="183.681135"/>
     <use style="fill:#1f77b4;fill-opacity:0.8;stroke:#1f77b4;stroke-opacity:0.8;" x="303.024341" xlink:href="#mbad62e3b5d" y="158.322664"/>
     <use style="fill:#1f77b4;fill-opacity:0.8;stroke:#1f77b4;stroke-opacity:0.8;" x="279.91506" xlink:href="#mbad62e3b5d" y="156.209458"/>
     <use style="fill:#1f77b4;fill-opacity:0.8;stroke:#1f77b4;stroke-opacity:0.8;" x="321.731854" xlink:href="#mbad62e3b5d" y="117.467349"/>
     <use style="fill:#1f77b4;fill-opacity:0.8;stroke:#1f77b4;stroke-opacity:0.8;" x="303.024341" xlink:href="#mbad62e3b5d" y="66.750406"/>
     <use style="fill:#1f77b4;fill-opacity:0.8;stroke:#1f77b4;stroke-opacity:0.8;" x="325.03318" xlink:href="#mbad62e3b5d" y="167.47989"/>
     <use style="fill:#1f77b4;fill-opacity:0.8;stroke:#1f77b4;stroke-opacity:0.8;" x="292.019922" xlink:href="#mbad62e3b5d" y="160.43587"/>
     <use style="fill:#1f77b4;fill-opacity:0.8;stroke:#1f77b4;stroke-opacity:0.8;" x="300.823457" xlink:href="#mbad62e3b5d" y="167.47989"/>
     <use style="fill:#1f77b4;fill-opacity:0.8;stroke:#1f77b4;stroke-opacity:0.8;" x="321.731854" xlink:href="#mbad62e3b5d" y="148.461036"/>
     <use style="fill:#1f77b4;fill-opacity:0.8;stroke:#1f77b4;stroke-opacity:0.8;" x="301.923899" xlink:href="#mbad62e3b5d" y="78.020838"/>
     <use style="fill:#1f77b4;fill-opacity:0.8;stroke:#1f77b4;stroke-opacity:0.8;" x="300.823457" xlink:href="#mbad62e3b5d" y="56.888779"/>
     <use style="fill:#1f77b4;fill-opacity:0.8;stroke:#1f77b4;stroke-opacity:0.8;" x="311.827877" xlink:href="#mbad62e3b5d" y="24.486288"/>
    </g>
   </g>
   <g id="PolyCollection_1">
    <path clip-path="url(#pe848fe475e)" d="M 50.421875 245.018419 
L 50.421875 275.814788 
L 53.357418 274.063833 
L 56.292961 272.312879 
L 59.228504 270.561924 
L 62.164047 268.810969 
L 65.09959 267.060014 
L 68.035133 265.303264 
L 70.970676 263.467668 
L 73.906218 261.632072 
L 76.841761 259.904712 
L 79.777304 258.239985 
L 82.712847 256.520439 
L 85.64839 254.751373 
L 88.583933 253.054263 
L 91.519476 251.305577 
L 94.455019 249.55689 
L 97.390562 247.877149 
L 100.326105 246.053108 
L 103.261648 244.302757 
L 106.197191 242.552679 
L 109.132734 240.675969 
L 112.068277 238.83229 
L 115.003819 237.125427 
L 117.939362 235.364934 
L 120.874905 233.619254 
L 123.810448 231.899831 
L 126.745991 230.196617 
L 129.681534 228.509867 
L 132.617077 226.799417 
L 135.55262 225.268269 
L 138.488163 223.522398 
L 141.423706 221.764894 
L 144.359249 220.066123 
L 147.294792 218.378731 
L 150.230335 216.804276 
L 153.165878 215.073815 
L 156.10142 213.40842 
L 159.036963 211.730397 
L 161.972506 210.247569 
L 164.908049 208.677574 
L 167.843592 207.110272 
L 170.779135 205.545486 
L 173.714678 204.034813 
L 176.650221 202.39066 
L 179.585764 200.869863 
L 182.521307 199.33761 
L 185.45685 197.765413 
L 188.392393 196.449864 
L 191.327936 195.106948 
L 194.263479 193.59353 
L 197.199021 192.083276 
L 200.134564 190.478296 
L 203.070107 189.247719 
L 206.00565 187.958586 
L 208.941193 186.553172 
L 211.876736 185.26718 
L 214.812279 184.018108 
L 217.747822 182.870491 
L 220.683365 181.585977 
L 223.618908 180.355888 
L 226.554451 179.175447 
L 229.489994 177.996385 
L 232.425537 176.81631 
L 235.36108 175.635697 
L 238.296622 174.455085 
L 241.232165 173.274473 
L 244.167708 172.132356 
L 247.103251 170.948259 
L 250.038794 169.762288 
L 252.974337 168.569623 
L 255.90988 167.382933 
L 258.845423 166.249431 
L 261.780966 165.139391 
L 264.716509 164.028269 
L 267.652052 162.918943 
L 270.587595 161.809272 
L 273.523138 160.699232 
L 276.458681 159.456209 
L 279.394223 158.185763 
L 282.329766 157.035524 
L 285.265309 155.885256 
L 288.200852 154.734988 
L 291.136395 153.583388 
L 294.071938 152.431055 
L 297.007481 151.27966 
L 299.943024 150.10611 
L 302.878567 148.799759 
L 305.81411 147.516354 
L 308.749653 146.273461 
L 311.685196 145.111314 
L 314.620739 143.969249 
L 317.556282 142.827183 
L 320.491824 141.685118 
L 323.427367 140.543052 
L 326.36291 139.400987 
L 329.298453 138.258921 
L 332.233996 137.116856 
L 335.169539 135.97479 
L 338.105082 134.832725 
L 341.040625 133.690458 
L 341.040625 94.929767 
L 341.040625 94.929767 
L 338.105082 96.670607 
L 335.169539 98.411447 
L 332.233996 100.15254 
L 329.298453 101.895377 
L 326.36291 103.719017 
L 323.427367 105.473699 
L 320.491824 107.253602 
L 317.556282 109.091351 
L 314.620739 110.940492 
L 311.685196 112.76743 
L 308.749653 114.584372 
L 305.81411 116.403616 
L 302.878567 118.22508 
L 299.943024 120.024538 
L 297.007481 121.790764 
L 294.071938 123.648923 
L 291.136395 125.509596 
L 288.200852 127.332764 
L 285.265309 129.155932 
L 282.329766 130.83582 
L 279.394223 132.656617 
L 276.458681 134.355257 
L 273.523138 136.081117 
L 270.587595 137.907704 
L 267.652052 139.735985 
L 264.716509 141.540606 
L 261.780966 143.303299 
L 258.845423 145.090839 
L 255.90988 146.83237 
L 252.974337 148.643928 
L 250.038794 150.356218 
L 247.103251 152.110427 
L 244.167708 153.962971 
L 241.232165 155.74511 
L 238.296622 157.522212 
L 235.36108 159.261703 
L 232.425537 161.018108 
L 229.489994 162.663145 
L 226.554451 164.339249 
L 223.618908 166.085699 
L 220.683365 167.666632 
L 217.747822 169.286214 
L 214.812279 170.92255 
L 211.876736 172.687446 
L 208.941193 174.375028 
L 206.00565 176.105188 
L 203.070107 177.655499 
L 200.134564 179.164755 
L 197.199021 180.778242 
L 194.263479 182.365784 
L 191.327936 183.969309 
L 188.392393 185.519343 
L 185.45685 187.088828 
L 182.521307 188.609695 
L 179.585764 190.046539 
L 176.650221 191.59908 
L 173.714678 193.126147 
L 170.779135 194.526536 
L 167.843592 196.068062 
L 164.908049 197.353907 
L 161.972506 198.691328 
L 159.036963 200.143037 
L 156.10142 201.43806 
L 153.165878 202.64409 
L 150.230335 204.052233 
L 147.294792 205.354163 
L 144.359249 206.600085 
L 141.423706 207.778629 
L 138.488163 208.911607 
L 135.55262 210.139517 
L 132.617077 211.328512 
L 129.681534 212.645682 
L 126.745991 213.961747 
L 123.810448 215.277919 
L 120.874905 216.488176 
L 117.939362 217.532216 
L 115.003819 218.765423 
L 112.068277 220.006497 
L 109.132734 221.203731 
L 106.197191 222.377042 
L 103.261648 223.499617 
L 100.326105 224.724692 
L 97.390562 225.968188 
L 94.455019 227.212755 
L 91.519476 228.459403 
L 88.583933 229.706051 
L 85.64839 230.941896 
L 82.712847 232.087623 
L 79.777304 233.351721 
L 76.841761 234.622208 
L 73.906218 235.826894 
L 70.970676 236.909394 
L 68.035133 238.163319 
L 65.09959 239.317091 
L 62.164047 240.412407 
L 59.228504 241.524197 
L 56.292961 242.744828 
L 53.357418 243.878967 
L 50.421875 245.018419 
z
" style="fill:#1f77b4;fill-opacity:0.15;"/>
   </g>
   <g id="matplotlib.axis_1">
    <g id="xtick_1">
     <g id="line2d_1">
      <defs>
       <path d="M 0 0 
L 0 3.5 
" id="m8fa331a618" style="stroke:#000000;stroke-width:0.8;"/>
      </defs>
      <g>
       <use style="stroke:#000000;stroke-width:0.8;" x="79.634623" xlink:href="#m8fa331a618" y="313.69375"/>
      </g>
     </g>
     <g id="text_1">
      <!-- 7.5 -->
      <defs>
       <path d="M 8.203125 72.90625 
L 55.078125 72.90625 
L 55.078125 68.703125 
L 28.609375 0 
L 18.3125 0 
L 43.21875 64.59375 
L 8.203125 64.59375 
z
" id="DejaVuSans-37"/>
       <path d="M 10.6875 12.40625 
L 21 12.40625 
L 21 0 
L 10.6875 0 
z
" id="DejaVuSans-2e"/>
       <path d="M 10.796875 72.90625 
L 49.515625 72.90625 
L 49.515625 64.59375 
L 19.828125 64.59375 
L 19.828125 46.734375 
Q 21.96875 47.46875 24.109375 47.828125 
Q 26.265625 48.1875 28.421875 48.1875 
Q 40.625 48.1875 47.75 41.5 
Q 54.890625 34.8125 54.890625 23.390625 
Q 54.890625 11.625 47.5625 5.09375 
Q 40.234375 -1.421875 26.90625 -1.421875 
Q 22.3125 -1.421875 17.546875 -0.640625 
Q 12.796875 0.140625 7.71875 1.703125 
L 7.71875 11.625 
Q 12.109375 9.234375 16.796875 8.0625 
Q 21.484375 6.890625 26.703125 6.890625 
Q 35.15625 6.890625 40.078125 11.328125 
Q 45.015625 15.765625 45.015625 23.390625 
Q 45.015625 31 40.078125 35.4375 
Q 35.15625 39.890625 26.703125 39.890625 
Q 22.75 39.890625 18.8125 39.015625 
Q 14.890625 38.140625 10.796875 36.28125 
z
" id="DejaVuSans-35"/>
      </defs>
      <g transform="translate(71.683061 328.292187)scale(0.1 -0.1)">
       <use xlink:href="#DejaVuSans-37"/>
       <use x="63.623047" xlink:href="#DejaVuSans-2e"/>
       <use x="95.410156" xlink:href="#DejaVuSans-35"/>
      </g>
     </g>
    </g>
    <g id="xtick_2">
     <g id="line2d_2">
      <g>
       <use style="stroke:#000000;stroke-width:0.8;" x="134.656721" xlink:href="#m8fa331a618" y="313.69375"/>
      </g>
     </g>
     <g id="text_2">
      <!-- 8.0 -->
      <defs>
       <path d="M 31.78125 34.625 
Q 24.75 34.625 20.71875 30.859375 
Q 16.703125 27.09375 16.703125 20.515625 
Q 16.703125 13.921875 20.71875 10.15625 
Q 24.75 6.390625 31.78125 6.390625 
Q 38.8125 6.390625 42.859375 10.171875 
Q 46.921875 13.96875 46.921875 20.515625 
Q 46.921875 27.09375 42.890625 30.859375 
Q 38.875 34.625 31.78125 34.625 
z
M 21.921875 38.8125 
Q 15.578125 40.375 12.03125 44.71875 
Q 8.5 49.078125 8.5 55.328125 
Q 8.5 64.0625 14.71875 69.140625 
Q 20.953125 74.21875 31.78125 74.21875 
Q 42.671875 74.21875 48.875 69.140625 
Q 55.078125 64.0625 55.078125 55.328125 
Q 55.078125 49.078125 51.53125 44.71875 
Q 48 40.375 41.703125 38.8125 
Q 48.828125 37.15625 52.796875 32.3125 
Q 56.78125 27.484375 56.78125 20.515625 
Q 56.78125 9.90625 50.3125 4.234375 
Q 43.84375 -1.421875 31.78125 -1.421875 
Q 19.734375 -1.421875 13.25 4.234375 
Q 6.78125 9.90625 6.78125 20.515625 
Q 6.78125 27.484375 10.78125 32.3125 
Q 14.796875 37.15625 21.921875 38.8125 
z
M 18.3125 54.390625 
Q 18.3125 48.734375 21.84375 45.5625 
Q 25.390625 42.390625 31.78125 42.390625 
Q 38.140625 42.390625 41.71875 45.5625 
Q 45.3125 48.734375 45.3125 54.390625 
Q 45.3125 60.0625 41.71875 63.234375 
Q 38.140625 66.40625 31.78125 66.40625 
Q 25.390625 66.40625 21.84375 63.234375 
Q 18.3125 60.0625 18.3125 54.390625 
z
" id="DejaVuSans-38"/>
       <path d="M 31.78125 66.40625 
Q 24.171875 66.40625 20.328125 58.90625 
Q 16.5 51.421875 16.5 36.375 
Q 16.5 21.390625 20.328125 13.890625 
Q 24.171875 6.390625 31.78125 6.390625 
Q 39.453125 6.390625 43.28125 13.890625 
Q 47.125 21.390625 47.125 36.375 
Q 47.125 51.421875 43.28125 58.90625 
Q 39.453125 66.40625 31.78125 66.40625 
z
M 31.78125 74.21875 
Q 44.046875 74.21875 50.515625 64.515625 
Q 56.984375 54.828125 56.984375 36.375 
Q 56.984375 17.96875 50.515625 8.265625 
Q 44.046875 -1.421875 31.78125 -1.421875 
Q 19.53125 -1.421875 13.0625 8.265625 
Q 6.59375 17.96875 6.59375 36.375 
Q 6.59375 54.828125 13.0625 64.515625 
Q 19.53125 74.21875 31.78125 74.21875 
z
" id="DejaVuSans-30"/>
      </defs>
      <g transform="translate(126.705159 328.292187)scale(0.1 -0.1)">
       <use xlink:href="#DejaVuSans-38"/>
       <use x="63.623047" xlink:href="#DejaVuSans-2e"/>
       <use x="95.410156" xlink:href="#DejaVuSans-30"/>
      </g>
     </g>
    </g>
    <g id="xtick_3">
     <g id="line2d_3">
      <g>
       <use style="stroke:#000000;stroke-width:0.8;" x="189.678819" xlink:href="#m8fa331a618" y="313.69375"/>
      </g>
     </g>
     <g id="text_3">
      <!-- 8.5 -->
      <g transform="translate(181.727257 328.292187)scale(0.1 -0.1)">
       <use xlink:href="#DejaVuSans-38"/>
       <use x="63.623047" xlink:href="#DejaVuSans-2e"/>
       <use x="95.410156" xlink:href="#DejaVuSans-35"/>
      </g>
     </g>
    </g>
    <g id="xtick_4">
     <g id="line2d_4">
      <g>
       <use style="stroke:#000000;stroke-width:0.8;" x="244.700917" xlink:href="#m8fa331a618" y="313.69375"/>
      </g>
     </g>
     <g id="text_4">
      <!-- 9.0 -->
      <defs>
       <path d="M 10.984375 1.515625 
L 10.984375 10.5 
Q 14.703125 8.734375 18.5 7.8125 
Q 22.3125 6.890625 25.984375 6.890625 
Q 35.75 6.890625 40.890625 13.453125 
Q 46.046875 20.015625 46.78125 33.40625 
Q 43.953125 29.203125 39.59375 26.953125 
Q 35.25 24.703125 29.984375 24.703125 
Q 19.046875 24.703125 12.671875 31.3125 
Q 6.296875 37.9375 6.296875 49.421875 
Q 6.296875 60.640625 12.9375 67.421875 
Q 19.578125 74.21875 30.609375 74.21875 
Q 43.265625 74.21875 49.921875 64.515625 
Q 56.59375 54.828125 56.59375 36.375 
Q 56.59375 19.140625 48.40625 8.859375 
Q 40.234375 -1.421875 26.421875 -1.421875 
Q 22.703125 -1.421875 18.890625 -0.6875 
Q 15.09375 0.046875 10.984375 1.515625 
z
M 30.609375 32.421875 
Q 37.25 32.421875 41.125 36.953125 
Q 45.015625 41.5 45.015625 49.421875 
Q 45.015625 57.28125 41.125 61.84375 
Q 37.25 66.40625 30.609375 66.40625 
Q 23.96875 66.40625 20.09375 61.84375 
Q 16.21875 57.28125 16.21875 49.421875 
Q 16.21875 41.5 20.09375 36.953125 
Q 23.96875 32.421875 30.609375 32.421875 
z
" id="DejaVuSans-39"/>
      </defs>
      <g transform="translate(236.749355 328.292187)scale(0.1 -0.1)">
       <use xlink:href="#DejaVuSans-39"/>
       <use x="63.623047" xlink:href="#DejaVuSans-2e"/>
       <use x="95.410156" xlink:href="#DejaVuSans-30"/>
      </g>
     </g>
    </g>
    <g id="xtick_5">
     <g id="line2d_5">
      <g>
       <use style="stroke:#000000;stroke-width:0.8;" x="299.723015" xlink:href="#m8fa331a618" y="313.69375"/>
      </g>
     </g>
     <g id="text_5">
      <!-- 9.5 -->
      <g transform="translate(291.771453 328.292187)scale(0.1 -0.1)">
       <use xlink:href="#DejaVuSans-39"/>
       <use x="63.623047" xlink:href="#DejaVuSans-2e"/>
       <use x="95.410156" xlink:href="#DejaVuSans-35"/>
      </g>
     </g>
    </g>
    <g id="text_6">
     <!-- global_avg_temp -->
     <defs>
      <path d="M 45.40625 27.984375 
Q 45.40625 37.75 41.375 43.109375 
Q 37.359375 48.484375 30.078125 48.484375 
Q 22.859375 48.484375 18.828125 43.109375 
Q 14.796875 37.75 14.796875 27.984375 
Q 14.796875 18.265625 18.828125 12.890625 
Q 22.859375 7.515625 30.078125 7.515625 
Q 37.359375 7.515625 41.375 12.890625 
Q 45.40625 18.265625 45.40625 27.984375 
z
M 54.390625 6.78125 
Q 54.390625 -7.171875 48.1875 -13.984375 
Q 42 -20.796875 29.203125 -20.796875 
Q 24.46875 -20.796875 20.265625 -20.09375 
Q 16.0625 -19.390625 12.109375 -17.921875 
L 12.109375 -9.1875 
Q 16.0625 -11.328125 19.921875 -12.34375 
Q 23.78125 -13.375 27.78125 -13.375 
Q 36.625 -13.375 41.015625 -8.765625 
Q 45.40625 -4.15625 45.40625 5.171875 
L 45.40625 9.625 
Q 42.625 4.78125 38.28125 2.390625 
Q 33.9375 0 27.875 0 
Q 17.828125 0 11.671875 7.65625 
Q 5.515625 15.328125 5.515625 27.984375 
Q 5.515625 40.671875 11.671875 48.328125 
Q 17.828125 56 27.875 56 
Q 33.9375 56 38.28125 53.609375 
Q 42.625 51.21875 45.40625 46.390625 
L 45.40625 54.6875 
L 54.390625 54.6875 
z
" id="DejaVuSans-67"/>
      <path d="M 9.421875 75.984375 
L 18.40625 75.984375 
L 18.40625 0 
L 9.421875 0 
z
" id="DejaVuSans-6c"/>
      <path d="M 30.609375 48.390625 
Q 23.390625 48.390625 19.1875 42.75 
Q 14.984375 37.109375 14.984375 27.296875 
Q 14.984375 17.484375 19.15625 11.84375 
Q 23.34375 6.203125 30.609375 6.203125 
Q 37.796875 6.203125 41.984375 11.859375 
Q 46.1875 17.53125 46.1875 27.296875 
Q 46.1875 37.015625 41.984375 42.703125 
Q 37.796875 48.390625 30.609375 48.390625 
z
M 30.609375 56 
Q 42.328125 56 49.015625 48.375 
Q 55.71875 40.765625 55.71875 27.296875 
Q 55.71875 13.875 49.015625 6.21875 
Q 42.328125 -1.421875 30.609375 -1.421875 
Q 18.84375 -1.421875 12.171875 6.21875 
Q 5.515625 13.875 5.515625 27.296875 
Q 5.515625 40.765625 12.171875 48.375 
Q 18.84375 56 30.609375 56 
z
" id="DejaVuSans-6f"/>
      <path d="M 48.6875 27.296875 
Q 48.6875 37.203125 44.609375 42.84375 
Q 40.53125 48.484375 33.40625 48.484375 
Q 26.265625 48.484375 22.1875 42.84375 
Q 18.109375 37.203125 18.109375 27.296875 
Q 18.109375 17.390625 22.1875 11.75 
Q 26.265625 6.109375 33.40625 6.109375 
Q 40.53125 6.109375 44.609375 11.75 
Q 48.6875 17.390625 48.6875 27.296875 
z
M 18.109375 46.390625 
Q 20.953125 51.265625 25.265625 53.625 
Q 29.59375 56 35.59375 56 
Q 45.5625 56 51.78125 48.09375 
Q 58.015625 40.1875 58.015625 27.296875 
Q 58.015625 14.40625 51.78125 6.484375 
Q 45.5625 -1.421875 35.59375 -1.421875 
Q 29.59375 -1.421875 25.265625 0.953125 
Q 20.953125 3.328125 18.109375 8.203125 
L 18.109375 0 
L 9.078125 0 
L 9.078125 75.984375 
L 18.109375 75.984375 
z
" id="DejaVuSans-62"/>
      <path d="M 34.28125 27.484375 
Q 23.390625 27.484375 19.1875 25 
Q 14.984375 22.515625 14.984375 16.5 
Q 14.984375 11.71875 18.140625 8.90625 
Q 21.296875 6.109375 26.703125 6.109375 
Q 34.1875 6.109375 38.703125 11.40625 
Q 43.21875 16.703125 43.21875 25.484375 
L 43.21875 27.484375 
z
M 52.203125 31.203125 
L 52.203125 0 
L 43.21875 0 
L 43.21875 8.296875 
Q 40.140625 3.328125 35.546875 0.953125 
Q 30.953125 -1.421875 24.3125 -1.421875 
Q 15.921875 -1.421875 10.953125 3.296875 
Q 6 8.015625 6 15.921875 
Q 6 25.140625 12.171875 29.828125 
Q 18.359375 34.515625 30.609375 34.515625 
L 43.21875 34.515625 
L 43.21875 35.40625 
Q 43.21875 41.609375 39.140625 45 
Q 35.0625 48.390625 27.6875 48.390625 
Q 23 48.390625 18.546875 47.265625 
Q 14.109375 46.140625 10.015625 43.890625 
L 10.015625 52.203125 
Q 14.9375 54.109375 19.578125 55.046875 
Q 24.21875 56 28.609375 56 
Q 40.484375 56 46.34375 49.84375 
Q 52.203125 43.703125 52.203125 31.203125 
z
" id="DejaVuSans-61"/>
      <path d="M 50.984375 -16.609375 
L 50.984375 -23.578125 
L -0.984375 -23.578125 
L -0.984375 -16.609375 
z
" id="DejaVuSans-5f"/>
      <path d="M 2.984375 54.6875 
L 12.5 54.6875 
L 29.59375 8.796875 
L 46.6875 54.6875 
L 56.203125 54.6875 
L 35.6875 0 
L 23.484375 0 
z
" id="DejaVuSans-76"/>
      <path d="M 18.3125 70.21875 
L 18.3125 54.6875 
L 36.8125 54.6875 
L 36.8125 47.703125 
L 18.3125 47.703125 
L 18.3125 18.015625 
Q 18.3125 11.328125 20.140625 9.421875 
Q 21.96875 7.515625 27.59375 7.515625 
L 36.8125 7.515625 
L 36.8125 0 
L 27.59375 0 
Q 17.1875 0 13.234375 3.875 
Q 9.28125 7.765625 9.28125 18.015625 
L 9.28125 47.703125 
L 2.6875 47.703125 
L 2.6875 54.6875 
L 9.28125 54.6875 
L 9.28125 70.21875 
z
" id="DejaVuSans-74"/>
      <path d="M 56.203125 29.59375 
L 56.203125 25.203125 
L 14.890625 25.203125 
Q 15.484375 15.921875 20.484375 11.0625 
Q 25.484375 6.203125 34.421875 6.203125 
Q 39.59375 6.203125 44.453125 7.46875 
Q 49.3125 8.734375 54.109375 11.28125 
L 54.109375 2.78125 
Q 49.265625 0.734375 44.1875 -0.34375 
Q 39.109375 -1.421875 33.890625 -1.421875 
Q 20.796875 -1.421875 13.15625 6.1875 
Q 5.515625 13.8125 5.515625 26.8125 
Q 5.515625 40.234375 12.765625 48.109375 
Q 20.015625 56 32.328125 56 
Q 43.359375 56 49.78125 48.890625 
Q 56.203125 41.796875 56.203125 29.59375 
z
M 47.21875 32.234375 
Q 47.125 39.59375 43.09375 43.984375 
Q 39.0625 48.390625 32.421875 48.390625 
Q 24.90625 48.390625 20.390625 44.140625 
Q 15.875 39.890625 15.1875 32.171875 
z
" id="DejaVuSans-65"/>
      <path d="M 52 44.1875 
Q 55.375 50.25 60.0625 53.125 
Q 64.75 56 71.09375 56 
Q 79.640625 56 84.28125 50.015625 
Q 88.921875 44.046875 88.921875 33.015625 
L 88.921875 0 
L 79.890625 0 
L 79.890625 32.71875 
Q 79.890625 40.578125 77.09375 44.375 
Q 74.3125 48.1875 68.609375 48.1875 
Q 61.625 48.1875 57.5625 43.546875 
Q 53.515625 38.921875 53.515625 30.90625 
L 53.515625 0 
L 44.484375 0 
L 44.484375 32.71875 
Q 44.484375 40.625 41.703125 44.40625 
Q 38.921875 48.1875 33.109375 48.1875 
Q 26.21875 48.1875 22.15625 43.53125 
Q 18.109375 38.875 18.109375 30.90625 
L 18.109375 0 
L 9.078125 0 
L 9.078125 54.6875 
L 18.109375 54.6875 
L 18.109375 46.1875 
Q 21.1875 51.21875 25.484375 53.609375 
Q 29.78125 56 35.6875 56 
Q 41.65625 56 45.828125 52.96875 
Q 50 49.953125 52 44.1875 
z
" id="DejaVuSans-6d"/>
      <path d="M 18.109375 8.203125 
L 18.109375 -20.796875 
L 9.078125 -20.796875 
L 9.078125 54.6875 
L 18.109375 54.6875 
L 18.109375 46.390625 
Q 20.953125 51.265625 25.265625 53.625 
Q 29.59375 56 35.59375 56 
Q 45.5625 56 51.78125 48.09375 
Q 58.015625 40.1875 58.015625 27.296875 
Q 58.015625 14.40625 51.78125 6.484375 
Q 45.5625 -1.421875 35.59375 -1.421875 
Q 29.59375 -1.421875 25.265625 0.953125 
Q 20.953125 3.328125 18.109375 8.203125 
z
M 48.6875 27.296875 
Q 48.6875 37.203125 44.609375 42.84375 
Q 40.53125 48.484375 33.40625 48.484375 
Q 26.265625 48.484375 22.1875 42.84375 
Q 18.109375 37.203125 18.109375 27.296875 
Q 18.109375 17.390625 22.1875 11.75 
Q 26.265625 6.109375 33.40625 6.109375 
Q 40.53125 6.109375 44.609375 11.75 
Q 48.6875 17.390625 48.6875 27.296875 
z
" id="DejaVuSans-70"/>
     </defs>
     <g transform="translate(153.202344 341.970312)scale(0.1 -0.1)">
      <use xlink:href="#DejaVuSans-67"/>
      <use x="63.476562" xlink:href="#DejaVuSans-6c"/>
      <use x="91.259766" xlink:href="#DejaVuSans-6f"/>
      <use x="152.441406" xlink:href="#DejaVuSans-62"/>
      <use x="215.917969" xlink:href="#DejaVuSans-61"/>
      <use x="277.197266" xlink:href="#DejaVuSans-6c"/>
      <use x="304.980469" xlink:href="#DejaVuSans-5f"/>
      <use x="354.980469" xlink:href="#DejaVuSans-61"/>
      <use x="416.259766" xlink:href="#DejaVuSans-76"/>
      <use x="475.439453" xlink:href="#DejaVuSans-67"/>
      <use x="538.916016" xlink:href="#DejaVuSans-5f"/>
      <use x="588.916016" xlink:href="#DejaVuSans-74"/>
      <use x="628.125" xlink:href="#DejaVuSans-65"/>
      <use x="689.648438" xlink:href="#DejaVuSans-6d"/>
      <use x="787.060547" xlink:href="#DejaVuSans-70"/>
     </g>
    </g>
   </g>
   <g id="matplotlib.axis_2">
    <g id="ytick_1">
     <g id="line2d_6">
      <defs>
       <path d="M 0 0 
L -3.5 0 
" id="me5d16a5650" style="stroke:#000000;stroke-width:0.8;"/>
      </defs>
      <g>
       <use style="stroke:#000000;stroke-width:0.8;" x="50.421875" xlink:href="#me5d16a5650" y="302.72507"/>
      </g>
     </g>
     <g id="text_7">
      <!-- 16.5 -->
      <defs>
       <path d="M 12.40625 8.296875 
L 28.515625 8.296875 
L 28.515625 63.921875 
L 10.984375 60.40625 
L 10.984375 69.390625 
L 28.421875 72.90625 
L 38.28125 72.90625 
L 38.28125 8.296875 
L 54.390625 8.296875 
L 54.390625 0 
L 12.40625 0 
z
" id="DejaVuSans-31"/>
       <path d="M 33.015625 40.375 
Q 26.375 40.375 22.484375 35.828125 
Q 18.609375 31.296875 18.609375 23.390625 
Q 18.609375 15.53125 22.484375 10.953125 
Q 26.375 6.390625 33.015625 6.390625 
Q 39.65625 6.390625 43.53125 10.953125 
Q 47.40625 15.53125 47.40625 23.390625 
Q 47.40625 31.296875 43.53125 35.828125 
Q 39.65625 40.375 33.015625 40.375 
z
M 52.59375 71.296875 
L 52.59375 62.3125 
Q 48.875 64.0625 45.09375 64.984375 
Q 41.3125 65.921875 37.59375 65.921875 
Q 27.828125 65.921875 22.671875 59.328125 
Q 17.53125 52.734375 16.796875 39.40625 
Q 19.671875 43.65625 24.015625 45.921875 
Q 28.375 48.1875 33.59375 48.1875 
Q 44.578125 48.1875 50.953125 41.515625 
Q 57.328125 34.859375 57.328125 23.390625 
Q 57.328125 12.15625 50.6875 5.359375 
Q 44.046875 -1.421875 33.015625 -1.421875 
Q 20.359375 -1.421875 13.671875 8.265625 
Q 6.984375 17.96875 6.984375 36.375 
Q 6.984375 53.65625 15.1875 63.9375 
Q 23.390625 74.21875 37.203125 74.21875 
Q 40.921875 74.21875 44.703125 73.484375 
Q 48.484375 72.75 52.59375 71.296875 
z
" id="DejaVuSans-36"/>
      </defs>
      <g transform="translate(21.15625 306.524289)scale(0.1 -0.1)">
       <use xlink:href="#DejaVuSans-31"/>
       <use x="63.623047" xlink:href="#DejaVuSans-36"/>
       <use x="127.246094" xlink:href="#DejaVuSans-2e"/>
       <use x="159.033203" xlink:href="#DejaVuSans-35"/>
      </g>
     </g>
    </g>
    <g id="ytick_2">
     <g id="line2d_7">
      <g>
       <use style="stroke:#000000;stroke-width:0.8;" x="50.421875" xlink:href="#me5d16a5650" y="267.504971"/>
      </g>
     </g>
     <g id="text_8">
      <!-- 17.0 -->
      <g transform="translate(21.15625 271.30419)scale(0.1 -0.1)">
       <use xlink:href="#DejaVuSans-31"/>
       <use x="63.623047" xlink:href="#DejaVuSans-37"/>
       <use x="127.246094" xlink:href="#DejaVuSans-2e"/>
       <use x="159.033203" xlink:href="#DejaVuSans-30"/>
      </g>
     </g>
    </g>
    <g id="ytick_3">
     <g id="line2d_8">
      <g>
       <use style="stroke:#000000;stroke-width:0.8;" x="50.421875" xlink:href="#me5d16a5650" y="232.284872"/>
      </g>
     </g>
     <g id="text_9">
      <!-- 17.5 -->
      <g transform="translate(21.15625 236.084091)scale(0.1 -0.1)">
       <use xlink:href="#DejaVuSans-31"/>
       <use x="63.623047" xlink:href="#DejaVuSans-37"/>
       <use x="127.246094" xlink:href="#DejaVuSans-2e"/>
       <use x="159.033203" xlink:href="#DejaVuSans-35"/>
      </g>
     </g>
    </g>
    <g id="ytick_4">
     <g id="line2d_9">
      <g>
       <use style="stroke:#000000;stroke-width:0.8;" x="50.421875" xlink:href="#me5d16a5650" y="197.064773"/>
      </g>
     </g>
     <g id="text_10">
      <!-- 18.0 -->
      <g transform="translate(21.15625 200.863992)scale(0.1 -0.1)">
       <use xlink:href="#DejaVuSans-31"/>
       <use x="63.623047" xlink:href="#DejaVuSans-38"/>
       <use x="127.246094" xlink:href="#DejaVuSans-2e"/>
       <use x="159.033203" xlink:href="#DejaVuSans-30"/>
      </g>
     </g>
    </g>
    <g id="ytick_5">
     <g id="line2d_10">
      <g>
       <use style="stroke:#000000;stroke-width:0.8;" x="50.421875" xlink:href="#me5d16a5650" y="161.844674"/>
      </g>
     </g>
     <g id="text_11">
      <!-- 18.5 -->
      <g transform="translate(21.15625 165.643893)scale(0.1 -0.1)">
       <use xlink:href="#DejaVuSans-31"/>
       <use x="63.623047" xlink:href="#DejaVuSans-38"/>
       <use x="127.246094" xlink:href="#DejaVuSans-2e"/>
       <use x="159.033203" xlink:href="#DejaVuSans-35"/>
      </g>
     </g>
    </g>
    <g id="ytick_6">
     <g id="line2d_11">
      <g>
       <use style="stroke:#000000;stroke-width:0.8;" x="50.421875" xlink:href="#me5d16a5650" y="126.624575"/>
      </g>
     </g>
     <g id="text_12">
      <!-- 19.0 -->
      <g transform="translate(21.15625 130.423794)scale(0.1 -0.1)">
       <use xlink:href="#DejaVuSans-31"/>
       <use x="63.623047" xlink:href="#DejaVuSans-39"/>
       <use x="127.246094" xlink:href="#DejaVuSans-2e"/>
       <use x="159.033203" xlink:href="#DejaVuSans-30"/>
      </g>
     </g>
    </g>
    <g id="ytick_7">
     <g id="line2d_12">
      <g>
       <use style="stroke:#000000;stroke-width:0.8;" x="50.421875" xlink:href="#me5d16a5650" y="91.404476"/>
      </g>
     </g>
     <g id="text_13">
      <!-- 19.5 -->
      <g transform="translate(21.15625 95.203695)scale(0.1 -0.1)">
       <use xlink:href="#DejaVuSans-31"/>
       <use x="63.623047" xlink:href="#DejaVuSans-39"/>
       <use x="127.246094" xlink:href="#DejaVuSans-2e"/>
       <use x="159.033203" xlink:href="#DejaVuSans-35"/>
      </g>
     </g>
    </g>
    <g id="ytick_8">
     <g id="line2d_13">
      <g>
       <use style="stroke:#000000;stroke-width:0.8;" x="50.421875" xlink:href="#me5d16a5650" y="56.184377"/>
      </g>
     </g>
     <g id="text_14">
      <!-- 20.0 -->
      <defs>
       <path d="M 19.1875 8.296875 
L 53.609375 8.296875 
L 53.609375 0 
L 7.328125 0 
L 7.328125 8.296875 
Q 12.9375 14.109375 22.625 23.890625 
Q 32.328125 33.6875 34.8125 36.53125 
Q 39.546875 41.84375 41.421875 45.53125 
Q 43.3125 49.21875 43.3125 52.78125 
Q 43.3125 58.59375 39.234375 62.25 
Q 35.15625 65.921875 28.609375 65.921875 
Q 23.96875 65.921875 18.8125 64.3125 
Q 13.671875 62.703125 7.8125 59.421875 
L 7.8125 69.390625 
Q 13.765625 71.78125 18.9375 73 
Q 24.125 74.21875 28.421875 74.21875 
Q 39.75 74.21875 46.484375 68.546875 
Q 53.21875 62.890625 53.21875 53.421875 
Q 53.21875 48.921875 51.53125 44.890625 
Q 49.859375 40.875 45.40625 35.40625 
Q 44.1875 33.984375 37.640625 27.21875 
Q 31.109375 20.453125 19.1875 8.296875 
z
" id="DejaVuSans-32"/>
      </defs>
      <g transform="translate(21.15625 59.983595)scale(0.1 -0.1)">
       <use xlink:href="#DejaVuSans-32"/>
       <use x="63.623047" xlink:href="#DejaVuSans-30"/>
       <use x="127.246094" xlink:href="#DejaVuSans-2e"/>
       <use x="159.033203" xlink:href="#DejaVuSans-30"/>
      </g>
     </g>
    </g>
    <g id="ytick_9">
     <g id="line2d_14">
      <g>
       <use style="stroke:#000000;stroke-width:0.8;" x="50.421875" xlink:href="#me5d16a5650" y="20.964278"/>
      </g>
     </g>
     <g id="text_15">
      <!-- 20.5 -->
      <g transform="translate(21.15625 24.763496)scale(0.1 -0.1)">
       <use xlink:href="#DejaVuSans-32"/>
       <use x="63.623047" xlink:href="#DejaVuSans-30"/>
       <use x="127.246094" xlink:href="#DejaVuSans-2e"/>
       <use x="159.033203" xlink:href="#DejaVuSans-35"/>
      </g>
     </g>
    </g>
    <g id="text_16">
     <!-- dallas_avg_temp -->
     <defs>
      <path d="M 45.40625 46.390625 
L 45.40625 75.984375 
L 54.390625 75.984375 
L 54.390625 0 
L 45.40625 0 
L 45.40625 8.203125 
Q 42.578125 3.328125 38.25 0.953125 
Q 33.9375 -1.421875 27.875 -1.421875 
Q 17.96875 -1.421875 11.734375 6.484375 
Q 5.515625 14.40625 5.515625 27.296875 
Q 5.515625 40.1875 11.734375 48.09375 
Q 17.96875 56 27.875 56 
Q 33.9375 56 38.25 53.625 
Q 42.578125 51.265625 45.40625 46.390625 
z
M 14.796875 27.296875 
Q 14.796875 17.390625 18.875 11.75 
Q 22.953125 6.109375 30.078125 6.109375 
Q 37.203125 6.109375 41.296875 11.75 
Q 45.40625 17.390625 45.40625 27.296875 
Q 45.40625 37.203125 41.296875 42.84375 
Q 37.203125 48.484375 30.078125 48.484375 
Q 22.953125 48.484375 18.875 42.84375 
Q 14.796875 37.203125 14.796875 27.296875 
z
" id="DejaVuSans-64"/>
      <path d="M 44.28125 53.078125 
L 44.28125 44.578125 
Q 40.484375 46.53125 36.375 47.5 
Q 32.28125 48.484375 27.875 48.484375 
Q 21.1875 48.484375 17.84375 46.4375 
Q 14.5 44.390625 14.5 40.28125 
Q 14.5 37.15625 16.890625 35.375 
Q 19.28125 33.59375 26.515625 31.984375 
L 29.59375 31.296875 
Q 39.15625 29.25 43.1875 25.515625 
Q 47.21875 21.78125 47.21875 15.09375 
Q 47.21875 7.46875 41.1875 3.015625 
Q 35.15625 -1.421875 24.609375 -1.421875 
Q 20.21875 -1.421875 15.453125 -0.5625 
Q 10.6875 0.296875 5.421875 2 
L 5.421875 11.28125 
Q 10.40625 8.6875 15.234375 7.390625 
Q 20.0625 6.109375 24.8125 6.109375 
Q 31.15625 6.109375 34.5625 8.28125 
Q 37.984375 10.453125 37.984375 14.40625 
Q 37.984375 18.0625 35.515625 20.015625 
Q 33.0625 21.96875 24.703125 23.78125 
L 21.578125 24.515625 
Q 13.234375 26.265625 9.515625 29.90625 
Q 5.8125 33.546875 5.8125 39.890625 
Q 5.8125 47.609375 11.28125 51.796875 
Q 16.75 56 26.8125 56 
Q 31.78125 56 36.171875 55.265625 
Q 40.578125 54.546875 44.28125 53.078125 
z
" id="DejaVuSans-73"/>
     </defs>
     <g transform="translate(14.798437 204.160937)rotate(-90)scale(0.1 -0.1)">
      <use xlink:href="#DejaVuSans-64"/>
      <use x="63.476562" xlink:href="#DejaVuSans-61"/>
      <use x="124.755859" xlink:href="#DejaVuSans-6c"/>
      <use x="152.539062" xlink:href="#DejaVuSans-6c"/>
      <use x="180.322266" xlink:href="#DejaVuSans-61"/>
      <use x="241.601562" xlink:href="#DejaVuSans-73"/>
      <use x="293.701172" xlink:href="#DejaVuSans-5f"/>
      <use x="343.701172" xlink:href="#DejaVuSans-61"/>
      <use x="404.980469" xlink:href="#DejaVuSans-76"/>
      <use x="464.160156" xlink:href="#DejaVuSans-67"/>
      <use x="527.636719" xlink:href="#DejaVuSans-5f"/>
      <use x="577.636719" xlink:href="#DejaVuSans-74"/>
      <use x="616.845703" xlink:href="#DejaVuSans-65"/>
      <use x="678.369141" xlink:href="#DejaVuSans-6d"/>
      <use x="775.78125" xlink:href="#DejaVuSans-70"/>
     </g>
    </g>
   </g>
   <g id="line2d_15">
    <path clip-path="url(#pe848fe475e)" d="M 50.421875 260.789478 
L 53.357418 259.309269 
L 56.292961 257.82906 
L 59.228504 256.348852 
L 62.164047 254.868643 
L 65.09959 253.388435 
L 68.035133 251.908226 
L 70.970676 250.428017 
L 73.906218 248.947809 
L 76.841761 247.4676 
L 79.777304 245.987392 
L 82.712847 244.507183 
L 85.64839 243.026974 
L 88.583933 241.546766 
L 91.519476 240.066557 
L 94.455019 238.586349 
L 97.390562 237.10614 
L 100.326105 235.625931 
L 103.261648 234.145723 
L 106.197191 232.665514 
L 109.132734 231.185306 
L 112.068277 229.705097 
L 115.003819 228.224888 
L 117.939362 226.74468 
L 120.874905 225.264471 
L 123.810448 223.784262 
L 126.745991 222.304054 
L 129.681534 220.823845 
L 132.617077 219.343637 
L 135.55262 217.863428 
L 138.488163 216.383219 
L 141.423706 214.903011 
L 144.359249 213.422802 
L 147.294792 211.942594 
L 150.230335 210.462385 
L 153.165878 208.982176 
L 156.10142 207.501968 
L 159.036963 206.021759 
L 161.972506 204.541551 
L 164.908049 203.061342 
L 167.843592 201.581133 
L 170.779135 200.100925 
L 173.714678 198.620716 
L 176.650221 197.140508 
L 179.585764 195.660299 
L 182.521307 194.18009 
L 185.45685 192.699882 
L 188.392393 191.219673 
L 191.327936 189.739465 
L 194.263479 188.259256 
L 197.199021 186.779047 
L 200.134564 185.298839 
L 203.070107 183.81863 
L 206.00565 182.338422 
L 208.941193 180.858213 
L 211.876736 179.378004 
L 214.812279 177.897796 
L 217.747822 176.417587 
L 220.683365 174.937379 
L 223.618908 173.45717 
L 226.554451 171.976961 
L 229.489994 170.496753 
L 232.425537 169.016544 
L 235.36108 167.536336 
L 238.296622 166.056127 
L 241.232165 164.575918 
L 244.167708 163.09571 
L 247.103251 161.615501 
L 250.038794 160.135293 
L 252.974337 158.655084 
L 255.90988 157.174875 
L 258.845423 155.694667 
L 261.780966 154.214458 
L 264.716509 152.73425 
L 267.652052 151.254041 
L 270.587595 149.773832 
L 273.523138 148.293624 
L 276.458681 146.813415 
L 279.394223 145.333207 
L 282.329766 143.852998 
L 285.265309 142.372789 
L 288.200852 140.892581 
L 291.136395 139.412372 
L 294.071938 137.932164 
L 297.007481 136.451955 
L 299.943024 134.971746 
L 302.878567 133.491538 
L 305.81411 132.011329 
L 308.749653 130.531121 
L 311.685196 129.050912 
L 314.620739 127.570703 
L 317.556282 126.090495 
L 320.491824 124.610286 
L 323.427367 123.130078 
L 326.36291 121.649869 
L 329.298453 120.16966 
L 332.233996 118.689452 
L 335.169539 117.209243 
L 338.105082 115.729035 
L 341.040625 114.248826 
" style="fill:none;stroke:#1f77b4;stroke-linecap:square;stroke-width:2.25;"/>
   </g>
   <g id="patch_3">
    <path d="M 50.421875 313.69375 
L 50.421875 10.7 
" style="fill:none;stroke:#000000;stroke-linecap:square;stroke-linejoin:miter;stroke-width:0.8;"/>
   </g>
   <g id="patch_4">
    <path d="M 50.421875 313.69375 
L 341.040625 313.69375 
" style="fill:none;stroke:#000000;stroke-linecap:square;stroke-linejoin:miter;stroke-width:0.8;"/>
   </g>
  </g>
 </g>
 <defs>
  <clipPath id="pe848fe475e">
   <rect height="302.99375" width="290.61875" x="50.421875" y="10.7"/>
  </clipPath>
 </defs>
</svg>
