<?xml version="1.0" encoding="utf-8" standalone="no"?>
<!DOCTYPE svg PUBLIC "-//W3C//DTD SVG 1.1//EN"
  "http://www.w3.org/Graphics/SVG/1.1/DTD/svg11.dtd">
<!-- Created with matplotlib (http://matplotlib.org/) -->
<svg height="386.034375pt" version="1.1" viewBox="0 0 507.24375 386.034375" width="507.24375pt" xmlns="http://www.w3.org/2000/svg" xmlns:xlink="http://www.w3.org/1999/xlink">
 <defs>
  <style type="text/css">
*{stroke-linecap:butt;stroke-linejoin:round;}
  </style>
 </defs>
 <g id="figure_1">
  <g id="patch_1">
   <path d="M 0 386.034375 
L 507.24375 386.034375 
L 507.24375 0 
L 0 0 
z
" style="fill:none;"/>
  </g>
  <g id="axes_1">
   <g id="patch_2">
    <path d="M 50.14375 348.478125 
L 496.54375 348.478125 
L 496.54375 22.318125 
L 50.14375 22.318125 
z
" style="fill:#ffffff;"/>
   </g>
   <g id="matplotlib.axis_1">
    <g id="xtick_1">
     <g id="line2d_1">
      <defs>
       <path d="M 0 0 
L 0 3.5 
" id="m62c1431ffc" style="stroke:#000000;stroke-width:0.8;"/>
      </defs>
      <g>
       <use style="stroke:#000000;stroke-width:0.8;" x="101.062446" xlink:href="#m62c1431ffc" y="348.478125"/>
      </g>
     </g>
     <g id="text_1">
      <!-- 1770 -->
      <defs>
       <path d="M 12.40625 8.296875 
L 28.515625 8.296875 
L 28.515625 63.921875 
L 10.984375 60.40625 
L 10.984375 69.390625 
L 28.421875 72.90625 
L 38.28125 72.90625 
L 38.28125 8.296875 
L 54.390625 8.296875 
L 54.390625 0 
L 12.40625 0 
z
" id="DejaVuSans-31"/>
       <path d="M 8.203125 72.90625 
L 55.078125 72.90625 
L 55.078125 68.703125 
L 28.609375 0 
L 18.3125 0 
L 43.21875 64.59375 
L 8.203125 64.59375 
z
" id="DejaVuSans-37"/>
       <path d="M 31.78125 66.40625 
Q 24.171875 66.40625 20.328125 58.90625 
Q 16.5 51.421875 16.5 36.375 
Q 16.5 21.390625 20.328125 13.890625 
Q 24.171875 6.390625 31.78125 6.390625 
Q 39.453125 6.390625 43.28125 13.890625 
Q 47.125 21.390625 47.125 36.375 
Q 47.125 51.421875 43.28125 58.90625 
Q 39.453125 66.40625 31.78125 66.40625 
z
M 31.78125 74.21875 
Q 44.046875 74.21875 50.515625 64.515625 
Q 56.984375 54.828125 56.984375 36.375 
Q 56.984375 17.96875 50.515625 8.265625 
Q 44.046875 -1.421875 31.78125 -1.421875 
Q 19.53125 -1.421875 13.0625 8.265625 
Q 6.59375 17.96875 6.59375 36.375 
Q 6.59375 54.828125 13.0625 64.515625 
Q 19.53125 74.21875 31.78125 74.21875 
z
" id="DejaVuSans-30"/>
      </defs>
      <g transform="translate(88.337446 363.076562)scale(0.1 -0.1)">
       <use xlink:href="#DejaVuSans-31"/>
       <use x="63.623047" xlink:href="#DejaVuSans-37"/>
       <use x="127.246094" xlink:href="#DejaVuSans-37"/>
       <use x="190.869141" xlink:href="#DejaVuSans-30"/>
      </g>
     </g>
    </g>
    <g id="xtick_2">
     <g id="line2d_2">
      <g>
       <use style="stroke:#000000;stroke-width:0.8;" x="177.631915" xlink:href="#m62c1431ffc" y="348.478125"/>
      </g>
     </g>
     <g id="text_2">
      <!-- 1820 -->
      <defs>
       <path d="M 31.78125 34.625 
Q 24.75 34.625 20.71875 30.859375 
Q 16.703125 27.09375 16.703125 20.515625 
Q 16.703125 13.921875 20.71875 10.15625 
Q 24.75 6.390625 31.78125 6.390625 
Q 38.8125 6.390625 42.859375 10.171875 
Q 46.921875 13.96875 46.921875 20.515625 
Q 46.921875 27.09375 42.890625 30.859375 
Q 38.875 34.625 31.78125 34.625 
z
M 21.921875 38.8125 
Q 15.578125 40.375 12.03125 44.71875 
Q 8.5 49.078125 8.5 55.328125 
Q 8.5 64.0625 14.71875 69.140625 
Q 20.953125 74.21875 31.78125 74.21875 
Q 42.671875 74.21875 48.875 69.140625 
Q 55.078125 64.0625 55.078125 55.328125 
Q 55.078125 49.078125 51.53125 44.71875 
Q 48 40.375 41.703125 38.8125 
Q 48.828125 37.15625 52.796875 32.3125 
Q 56.78125 27.484375 56.78125 20.515625 
Q 56.78125 9.90625 50.3125 4.234375 
Q 43.84375 -1.421875 31.78125 -1.421875 
Q 19.734375 -1.421875 13.25 4.234375 
Q 6.78125 9.90625 6.78125 20.515625 
Q 6.78125 27.484375 10.78125 32.3125 
Q 14.796875 37.15625 21.921875 38.8125 
z
M 18.3125 54.390625 
Q 18.3125 48.734375 21.84375 45.5625 
Q 25.390625 42.390625 31.78125 42.390625 
Q 38.140625 42.390625 41.71875 45.5625 
Q 45.3125 48.734375 45.3125 54.390625 
Q 45.3125 60.0625 41.71875 63.234375 
Q 38.140625 66.40625 31.78125 66.40625 
Q 25.390625 66.40625 21.84375 63.234375 
Q 18.3125 60.0625 18.3125 54.390625 
z
" id="DejaVuSans-38"/>
       <path d="M 19.1875 8.296875 
L 53.609375 8.296875 
L 53.609375 0 
L 7.328125 0 
L 7.328125 8.296875 
Q 12.9375 14.109375 22.625 23.890625 
Q 32.328125 33.6875 34.8125 36.53125 
Q 39.546875 41.84375 41.421875 45.53125 
Q 43.3125 49.21875 43.3125 52.78125 
Q 43.3125 58.59375 39.234375 62.25 
Q 35.15625 65.921875 28.609375 65.921875 
Q 23.96875 65.921875 18.8125 64.3125 
Q 13.671875 62.703125 7.8125 59.421875 
L 7.8125 69.390625 
Q 13.765625 71.78125 18.9375 73 
Q 24.125 74.21875 28.421875 74.21875 
Q 39.75 74.21875 46.484375 68.546875 
Q 53.21875 62.890625 53.21875 53.421875 
Q 53.21875 48.921875 51.53125 44.890625 
Q 49.859375 40.875 45.40625 35.40625 
Q 44.1875 33.984375 37.640625 27.21875 
Q 31.109375 20.453125 19.1875 8.296875 
z
" id="DejaVuSans-32"/>
      </defs>
      <g transform="translate(164.906915 363.076562)scale(0.1 -0.1)">
       <use xlink:href="#DejaVuSans-31"/>
       <use x="63.623047" xlink:href="#DejaVuSans-38"/>
       <use x="127.246094" xlink:href="#DejaVuSans-32"/>
       <use x="190.869141" xlink:href="#DejaVuSans-30"/>
      </g>
     </g>
    </g>
    <g id="xtick_3">
     <g id="line2d_3">
      <g>
       <use style="stroke:#000000;stroke-width:0.8;" x="254.201383" xlink:href="#m62c1431ffc" y="348.478125"/>
      </g>
     </g>
     <g id="text_3">
      <!-- 1870 -->
      <g transform="translate(241.476383 363.076562)scale(0.1 -0.1)">
       <use xlink:href="#DejaVuSans-31"/>
       <use x="63.623047" xlink:href="#DejaVuSans-38"/>
       <use x="127.246094" xlink:href="#DejaVuSans-37"/>
       <use x="190.869141" xlink:href="#DejaVuSans-30"/>
      </g>
     </g>
    </g>
    <g id="xtick_4">
     <g id="line2d_4">
      <g>
       <use style="stroke:#000000;stroke-width:0.8;" x="330.770851" xlink:href="#m62c1431ffc" y="348.478125"/>
      </g>
     </g>
     <g id="text_4">
      <!-- 1920 -->
      <defs>
       <path d="M 10.984375 1.515625 
L 10.984375 10.5 
Q 14.703125 8.734375 18.5 7.8125 
Q 22.3125 6.890625 25.984375 6.890625 
Q 35.75 6.890625 40.890625 13.453125 
Q 46.046875 20.015625 46.78125 33.40625 
Q 43.953125 29.203125 39.59375 26.953125 
Q 35.25 24.703125 29.984375 24.703125 
Q 19.046875 24.703125 12.671875 31.3125 
Q 6.296875 37.9375 6.296875 49.421875 
Q 6.296875 60.640625 12.9375 67.421875 
Q 19.578125 74.21875 30.609375 74.21875 
Q 43.265625 74.21875 49.921875 64.515625 
Q 56.59375 54.828125 56.59375 36.375 
Q 56.59375 19.140625 48.40625 8.859375 
Q 40.234375 -1.421875 26.421875 -1.421875 
Q 22.703125 -1.421875 18.890625 -0.6875 
Q 15.09375 0.046875 10.984375 1.515625 
z
M 30.609375 32.421875 
Q 37.25 32.421875 41.125 36.953125 
Q 45.015625 41.5 45.015625 49.421875 
Q 45.015625 57.28125 41.125 61.84375 
Q 37.25 66.40625 30.609375 66.40625 
Q 23.96875 66.40625 20.09375 61.84375 
Q 16.21875 57.28125 16.21875 49.421875 
Q 16.21875 41.5 20.09375 36.953125 
Q 23.96875 32.421875 30.609375 32.421875 
z
" id="DejaVuSans-39"/>
      </defs>
      <g transform="translate(318.045851 363.076562)scale(0.1 -0.1)">
       <use xlink:href="#DejaVuSans-31"/>
       <use x="63.623047" xlink:href="#DejaVuSans-39"/>
       <use x="127.246094" xlink:href="#DejaVuSans-32"/>
       <use x="190.869141" xlink:href="#DejaVuSans-30"/>
      </g>
     </g>
    </g>
    <g id="xtick_5">
     <g id="line2d_5">
      <g>
       <use style="stroke:#000000;stroke-width:0.8;" x="407.340319" xlink:href="#m62c1431ffc" y="348.478125"/>
      </g>
     </g>
     <g id="text_5">
      <!-- 1970 -->
      <g transform="translate(394.615319 363.076562)scale(0.1 -0.1)">
       <use xlink:href="#DejaVuSans-31"/>
       <use x="63.623047" xlink:href="#DejaVuSans-39"/>
       <use x="127.246094" xlink:href="#DejaVuSans-37"/>
       <use x="190.869141" xlink:href="#DejaVuSans-30"/>
      </g>
     </g>
    </g>
    <g id="xtick_6">
     <g id="line2d_6">
      <g>
       <use style="stroke:#000000;stroke-width:0.8;" x="483.909788" xlink:href="#m62c1431ffc" y="348.478125"/>
      </g>
     </g>
     <g id="text_6">
      <!-- 2020 -->
      <g transform="translate(471.184788 363.076562)scale(0.1 -0.1)">
       <use xlink:href="#DejaVuSans-32"/>
       <use x="63.623047" xlink:href="#DejaVuSans-30"/>
       <use x="127.246094" xlink:href="#DejaVuSans-32"/>
       <use x="190.869141" xlink:href="#DejaVuSans-30"/>
      </g>
     </g>
    </g>
    <g id="xtick_7">
     <g id="line2d_7">
      <defs>
       <path d="M 0 0 
L 0 2 
" id="m745bda8a95" style="stroke:#000000;stroke-width:0.6;"/>
      </defs>
      <g>
       <use style="stroke:#000000;stroke-width:0.6;" x="55.120765" xlink:href="#m745bda8a95" y="348.478125"/>
      </g>
     </g>
    </g>
    <g id="xtick_8">
     <g id="line2d_8">
      <g>
       <use style="stroke:#000000;stroke-width:0.6;" x="70.434659" xlink:href="#m745bda8a95" y="348.478125"/>
      </g>
     </g>
    </g>
    <g id="xtick_9">
     <g id="line2d_9">
      <g>
       <use style="stroke:#000000;stroke-width:0.6;" x="85.748553" xlink:href="#m745bda8a95" y="348.478125"/>
      </g>
     </g>
    </g>
    <g id="xtick_10">
     <g id="line2d_10">
      <g>
       <use style="stroke:#000000;stroke-width:0.6;" x="101.062446" xlink:href="#m745bda8a95" y="348.478125"/>
      </g>
     </g>
    </g>
    <g id="xtick_11">
     <g id="line2d_11">
      <g>
       <use style="stroke:#000000;stroke-width:0.6;" x="116.37634" xlink:href="#m745bda8a95" y="348.478125"/>
      </g>
     </g>
    </g>
    <g id="xtick_12">
     <g id="line2d_12">
      <g>
       <use style="stroke:#000000;stroke-width:0.6;" x="131.690234" xlink:href="#m745bda8a95" y="348.478125"/>
      </g>
     </g>
    </g>
    <g id="xtick_13">
     <g id="line2d_13">
      <g>
       <use style="stroke:#000000;stroke-width:0.6;" x="147.004127" xlink:href="#m745bda8a95" y="348.478125"/>
      </g>
     </g>
    </g>
    <g id="xtick_14">
     <g id="line2d_14">
      <g>
       <use style="stroke:#000000;stroke-width:0.6;" x="162.318021" xlink:href="#m745bda8a95" y="348.478125"/>
      </g>
     </g>
    </g>
    <g id="xtick_15">
     <g id="line2d_15">
      <g>
       <use style="stroke:#000000;stroke-width:0.6;" x="177.631915" xlink:href="#m745bda8a95" y="348.478125"/>
      </g>
     </g>
    </g>
    <g id="xtick_16">
     <g id="line2d_16">
      <g>
       <use style="stroke:#000000;stroke-width:0.6;" x="192.945808" xlink:href="#m745bda8a95" y="348.478125"/>
      </g>
     </g>
    </g>
    <g id="xtick_17">
     <g id="line2d_17">
      <g>
       <use style="stroke:#000000;stroke-width:0.6;" x="208.259702" xlink:href="#m745bda8a95" y="348.478125"/>
      </g>
     </g>
    </g>
    <g id="xtick_18">
     <g id="line2d_18">
      <g>
       <use style="stroke:#000000;stroke-width:0.6;" x="223.573596" xlink:href="#m745bda8a95" y="348.478125"/>
      </g>
     </g>
    </g>
    <g id="xtick_19">
     <g id="line2d_19">
      <g>
       <use style="stroke:#000000;stroke-width:0.6;" x="238.887489" xlink:href="#m745bda8a95" y="348.478125"/>
      </g>
     </g>
    </g>
    <g id="xtick_20">
     <g id="line2d_20">
      <g>
       <use style="stroke:#000000;stroke-width:0.6;" x="254.201383" xlink:href="#m745bda8a95" y="348.478125"/>
      </g>
     </g>
    </g>
    <g id="xtick_21">
     <g id="line2d_21">
      <g>
       <use style="stroke:#000000;stroke-width:0.6;" x="269.515277" xlink:href="#m745bda8a95" y="348.478125"/>
      </g>
     </g>
    </g>
    <g id="xtick_22">
     <g id="line2d_22">
      <g>
       <use style="stroke:#000000;stroke-width:0.6;" x="284.82917" xlink:href="#m745bda8a95" y="348.478125"/>
      </g>
     </g>
    </g>
    <g id="xtick_23">
     <g id="line2d_23">
      <g>
       <use style="stroke:#000000;stroke-width:0.6;" x="300.143064" xlink:href="#m745bda8a95" y="348.478125"/>
      </g>
     </g>
    </g>
    <g id="xtick_24">
     <g id="line2d_24">
      <g>
       <use style="stroke:#000000;stroke-width:0.6;" x="315.456958" xlink:href="#m745bda8a95" y="348.478125"/>
      </g>
     </g>
    </g>
    <g id="xtick_25">
     <g id="line2d_25">
      <g>
       <use style="stroke:#000000;stroke-width:0.6;" x="330.770851" xlink:href="#m745bda8a95" y="348.478125"/>
      </g>
     </g>
    </g>
    <g id="xtick_26">
     <g id="line2d_26">
      <g>
       <use style="stroke:#000000;stroke-width:0.6;" x="346.084745" xlink:href="#m745bda8a95" y="348.478125"/>
      </g>
     </g>
    </g>
    <g id="xtick_27">
     <g id="line2d_27">
      <g>
       <use style="stroke:#000000;stroke-width:0.6;" x="361.398639" xlink:href="#m745bda8a95" y="348.478125"/>
      </g>
     </g>
    </g>
    <g id="xtick_28">
     <g id="line2d_28">
      <g>
       <use style="stroke:#000000;stroke-width:0.6;" x="376.712532" xlink:href="#m745bda8a95" y="348.478125"/>
      </g>
     </g>
    </g>
    <g id="xtick_29">
     <g id="line2d_29">
      <g>
       <use style="stroke:#000000;stroke-width:0.6;" x="392.026426" xlink:href="#m745bda8a95" y="348.478125"/>
      </g>
     </g>
    </g>
    <g id="xtick_30">
     <g id="line2d_30">
      <g>
       <use style="stroke:#000000;stroke-width:0.6;" x="407.340319" xlink:href="#m745bda8a95" y="348.478125"/>
      </g>
     </g>
    </g>
    <g id="xtick_31">
     <g id="line2d_31">
      <g>
       <use style="stroke:#000000;stroke-width:0.6;" x="422.654213" xlink:href="#m745bda8a95" y="348.478125"/>
      </g>
     </g>
    </g>
    <g id="xtick_32">
     <g id="line2d_32">
      <g>
       <use style="stroke:#000000;stroke-width:0.6;" x="437.968107" xlink:href="#m745bda8a95" y="348.478125"/>
      </g>
     </g>
    </g>
    <g id="xtick_33">
     <g id="line2d_33">
      <g>
       <use style="stroke:#000000;stroke-width:0.6;" x="453.282" xlink:href="#m745bda8a95" y="348.478125"/>
      </g>
     </g>
    </g>
    <g id="xtick_34">
     <g id="line2d_34">
      <g>
       <use style="stroke:#000000;stroke-width:0.6;" x="468.595894" xlink:href="#m745bda8a95" y="348.478125"/>
      </g>
     </g>
    </g>
    <g id="xtick_35">
     <g id="line2d_35">
      <g>
       <use style="stroke:#000000;stroke-width:0.6;" x="483.909788" xlink:href="#m745bda8a95" y="348.478125"/>
      </g>
     </g>
    </g>
    <g id="text_7">
     <!-- Year -->
     <defs>
      <path d="M -0.203125 72.90625 
L 10.40625 72.90625 
L 30.609375 42.921875 
L 50.6875 72.90625 
L 61.28125 72.90625 
L 35.5 34.71875 
L 35.5 0 
L 25.59375 0 
L 25.59375 34.71875 
z
" id="DejaVuSans-59"/>
      <path d="M 56.203125 29.59375 
L 56.203125 25.203125 
L 14.890625 25.203125 
Q 15.484375 15.921875 20.484375 11.0625 
Q 25.484375 6.203125 34.421875 6.203125 
Q 39.59375 6.203125 44.453125 7.46875 
Q 49.3125 8.734375 54.109375 11.28125 
L 54.109375 2.78125 
Q 49.265625 0.734375 44.1875 -0.34375 
Q 39.109375 -1.421875 33.890625 -1.421875 
Q 20.796875 -1.421875 13.15625 6.1875 
Q 5.515625 13.8125 5.515625 26.8125 
Q 5.515625 40.234375 12.765625 48.109375 
Q 20.015625 56 32.328125 56 
Q 43.359375 56 49.78125 48.890625 
Q 56.203125 41.796875 56.203125 29.59375 
z
M 47.21875 32.234375 
Q 47.125 39.59375 43.09375 43.984375 
Q 39.0625 48.390625 32.421875 48.390625 
Q 24.90625 48.390625 20.390625 44.140625 
Q 15.875 39.890625 15.1875 32.171875 
z
" id="DejaVuSans-65"/>
      <path d="M 34.28125 27.484375 
Q 23.390625 27.484375 19.1875 25 
Q 14.984375 22.515625 14.984375 16.5 
Q 14.984375 11.71875 18.140625 8.90625 
Q 21.296875 6.109375 26.703125 6.109375 
Q 34.1875 6.109375 38.703125 11.40625 
Q 43.21875 16.703125 43.21875 25.484375 
L 43.21875 27.484375 
z
M 52.203125 31.203125 
L 52.203125 0 
L 43.21875 0 
L 43.21875 8.296875 
Q 40.140625 3.328125 35.546875 0.953125 
Q 30.953125 -1.421875 24.3125 -1.421875 
Q 15.921875 -1.421875 10.953125 3.296875 
Q 6 8.015625 6 15.921875 
Q 6 25.140625 12.171875 29.828125 
Q 18.359375 34.515625 30.609375 34.515625 
L 43.21875 34.515625 
L 43.21875 35.40625 
Q 43.21875 41.609375 39.140625 45 
Q 35.0625 48.390625 27.6875 48.390625 
Q 23 48.390625 18.546875 47.265625 
Q 14.109375 46.140625 10.015625 43.890625 
L 10.015625 52.203125 
Q 14.9375 54.109375 19.578125 55.046875 
Q 24.21875 56 28.609375 56 
Q 40.484375 56 46.34375 49.84375 
Q 52.203125 43.703125 52.203125 31.203125 
z
" id="DejaVuSans-61"/>
      <path d="M 41.109375 46.296875 
Q 39.59375 47.171875 37.8125 47.578125 
Q 36.03125 48 33.890625 48 
Q 26.265625 48 22.1875 43.046875 
Q 18.109375 38.09375 18.109375 28.8125 
L 18.109375 0 
L 9.078125 0 
L 9.078125 54.6875 
L 18.109375 54.6875 
L 18.109375 46.1875 
Q 20.953125 51.171875 25.484375 53.578125 
Q 30.03125 56 36.53125 56 
Q 37.453125 56 38.578125 55.875 
Q 39.703125 55.765625 41.0625 55.515625 
z
" id="DejaVuSans-72"/>
     </defs>
     <g transform="translate(262.103906 376.754687)scale(0.1 -0.1)">
      <use xlink:href="#DejaVuSans-59"/>
      <use x="60.880859" xlink:href="#DejaVuSans-65"/>
      <use x="122.404297" xlink:href="#DejaVuSans-61"/>
      <use x="183.683594" xlink:href="#DejaVuSans-72"/>
     </g>
    </g>
   </g>
   <g id="matplotlib.axis_2">
    <g id="ytick_1">
     <g id="line2d_36">
      <defs>
       <path d="M 0 0 
L -3.5 0 
" id="mc7bb90a798" style="stroke:#000000;stroke-width:0.8;"/>
      </defs>
      <g>
       <use style="stroke:#000000;stroke-width:0.8;" x="50.14375" xlink:href="#mc7bb90a798" y="317.546004"/>
      </g>
     </g>
     <g id="text_8">
      <!-- 6.0 -->
      <defs>
       <path d="M 33.015625 40.375 
Q 26.375 40.375 22.484375 35.828125 
Q 18.609375 31.296875 18.609375 23.390625 
Q 18.609375 15.53125 22.484375 10.953125 
Q 26.375 6.390625 33.015625 6.390625 
Q 39.65625 6.390625 43.53125 10.953125 
Q 47.40625 15.53125 47.40625 23.390625 
Q 47.40625 31.296875 43.53125 35.828125 
Q 39.65625 40.375 33.015625 40.375 
z
M 52.59375 71.296875 
L 52.59375 62.3125 
Q 48.875 64.0625 45.09375 64.984375 
Q 41.3125 65.921875 37.59375 65.921875 
Q 27.828125 65.921875 22.671875 59.328125 
Q 17.53125 52.734375 16.796875 39.40625 
Q 19.671875 43.65625 24.015625 45.921875 
Q 28.375 48.1875 33.59375 48.1875 
Q 44.578125 48.1875 50.953125 41.515625 
Q 57.328125 34.859375 57.328125 23.390625 
Q 57.328125 12.15625 50.6875 5.359375 
Q 44.046875 -1.421875 33.015625 -1.421875 
Q 20.359375 -1.421875 13.671875 8.265625 
Q 6.984375 17.96875 6.984375 36.375 
Q 6.984375 53.65625 15.1875 63.9375 
Q 23.390625 74.21875 37.203125 74.21875 
Q 40.921875 74.21875 44.703125 73.484375 
Q 48.484375 72.75 52.59375 71.296875 
z
" id="DejaVuSans-36"/>
       <path d="M 10.6875 12.40625 
L 21 12.40625 
L 21 0 
L 10.6875 0 
z
" id="DejaVuSans-2e"/>
      </defs>
      <g transform="translate(27.240625 321.345223)scale(0.1 -0.1)">
       <use xlink:href="#DejaVuSans-36"/>
       <use x="63.623047" xlink:href="#DejaVuSans-2e"/>
       <use x="95.410156" xlink:href="#DejaVuSans-30"/>
      </g>
     </g>
    </g>
    <g id="ytick_2">
     <g id="line2d_37">
      <g>
       <use style="stroke:#000000;stroke-width:0.8;" x="50.14375" xlink:href="#mc7bb90a798" y="280.939943"/>
      </g>
     </g>
     <g id="text_9">
      <!-- 6.5 -->
      <defs>
       <path d="M 10.796875 72.90625 
L 49.515625 72.90625 
L 49.515625 64.59375 
L 19.828125 64.59375 
L 19.828125 46.734375 
Q 21.96875 47.46875 24.109375 47.828125 
Q 26.265625 48.1875 28.421875 48.1875 
Q 40.625 48.1875 47.75 41.5 
Q 54.890625 34.8125 54.890625 23.390625 
Q 54.890625 11.625 47.5625 5.09375 
Q 40.234375 -1.421875 26.90625 -1.421875 
Q 22.3125 -1.421875 17.546875 -0.640625 
Q 12.796875 0.140625 7.71875 1.703125 
L 7.71875 11.625 
Q 12.109375 9.234375 16.796875 8.0625 
Q 21.484375 6.890625 26.703125 6.890625 
Q 35.15625 6.890625 40.078125 11.328125 
Q 45.015625 15.765625 45.015625 23.390625 
Q 45.015625 31 40.078125 35.4375 
Q 35.15625 39.890625 26.703125 39.890625 
Q 22.75 39.890625 18.8125 39.015625 
Q 14.890625 38.140625 10.796875 36.28125 
z
" id="DejaVuSans-35"/>
      </defs>
      <g transform="translate(27.240625 284.739162)scale(0.1 -0.1)">
       <use xlink:href="#DejaVuSans-36"/>
       <use x="63.623047" xlink:href="#DejaVuSans-2e"/>
       <use x="95.410156" xlink:href="#DejaVuSans-35"/>
      </g>
     </g>
    </g>
    <g id="ytick_3">
     <g id="line2d_38">
      <g>
       <use style="stroke:#000000;stroke-width:0.8;" x="50.14375" xlink:href="#mc7bb90a798" y="244.333883"/>
      </g>
     </g>
     <g id="text_10">
      <!-- 7.0 -->
      <g transform="translate(27.240625 248.133101)scale(0.1 -0.1)">
       <use xlink:href="#DejaVuSans-37"/>
       <use x="63.623047" xlink:href="#DejaVuSans-2e"/>
       <use x="95.410156" xlink:href="#DejaVuSans-30"/>
      </g>
     </g>
    </g>
    <g id="ytick_4">
     <g id="line2d_39">
      <g>
       <use style="stroke:#000000;stroke-width:0.8;" x="50.14375" xlink:href="#mc7bb90a798" y="207.727822"/>
      </g>
     </g>
     <g id="text_11">
      <!-- 7.5 -->
      <g transform="translate(27.240625 211.527041)scale(0.1 -0.1)">
       <use xlink:href="#DejaVuSans-37"/>
       <use x="63.623047" xlink:href="#DejaVuSans-2e"/>
       <use x="95.410156" xlink:href="#DejaVuSans-35"/>
      </g>
     </g>
    </g>
    <g id="ytick_5">
     <g id="line2d_40">
      <g>
       <use style="stroke:#000000;stroke-width:0.8;" x="50.14375" xlink:href="#mc7bb90a798" y="171.121761"/>
      </g>
     </g>
     <g id="text_12">
      <!-- 8.0 -->
      <g transform="translate(27.240625 174.92098)scale(0.1 -0.1)">
       <use xlink:href="#DejaVuSans-38"/>
       <use x="63.623047" xlink:href="#DejaVuSans-2e"/>
       <use x="95.410156" xlink:href="#DejaVuSans-30"/>
      </g>
     </g>
    </g>
    <g id="ytick_6">
     <g id="line2d_41">
      <g>
       <use style="stroke:#000000;stroke-width:0.8;" x="50.14375" xlink:href="#mc7bb90a798" y="134.515701"/>
      </g>
     </g>
     <g id="text_13">
      <!-- 8.5 -->
      <g transform="translate(27.240625 138.31492)scale(0.1 -0.1)">
       <use xlink:href="#DejaVuSans-38"/>
       <use x="63.623047" xlink:href="#DejaVuSans-2e"/>
       <use x="95.410156" xlink:href="#DejaVuSans-35"/>
      </g>
     </g>
    </g>
    <g id="ytick_7">
     <g id="line2d_42">
      <g>
       <use style="stroke:#000000;stroke-width:0.8;" x="50.14375" xlink:href="#mc7bb90a798" y="97.90964"/>
      </g>
     </g>
     <g id="text_14">
      <!-- 9.0 -->
      <g transform="translate(27.240625 101.708859)scale(0.1 -0.1)">
       <use xlink:href="#DejaVuSans-39"/>
       <use x="63.623047" xlink:href="#DejaVuSans-2e"/>
       <use x="95.410156" xlink:href="#DejaVuSans-30"/>
      </g>
     </g>
    </g>
    <g id="ytick_8">
     <g id="line2d_43">
      <g>
       <use style="stroke:#000000;stroke-width:0.8;" x="50.14375" xlink:href="#mc7bb90a798" y="61.30358"/>
      </g>
     </g>
     <g id="text_15">
      <!-- 9.5 -->
      <g transform="translate(27.240625 65.102798)scale(0.1 -0.1)">
       <use xlink:href="#DejaVuSans-39"/>
       <use x="63.623047" xlink:href="#DejaVuSans-2e"/>
       <use x="95.410156" xlink:href="#DejaVuSans-35"/>
      </g>
     </g>
    </g>
    <g id="ytick_9">
     <g id="line2d_44">
      <g>
       <use style="stroke:#000000;stroke-width:0.8;" x="50.14375" xlink:href="#mc7bb90a798" y="24.697519"/>
      </g>
     </g>
     <g id="text_16">
      <!-- 10.0 -->
      <g transform="translate(20.878125 28.496738)scale(0.1 -0.1)">
       <use xlink:href="#DejaVuSans-31"/>
       <use x="63.623047" xlink:href="#DejaVuSans-30"/>
       <use x="127.246094" xlink:href="#DejaVuSans-2e"/>
       <use x="159.033203" xlink:href="#DejaVuSans-30"/>
      </g>
     </g>
    </g>
    <g id="text_17">
     <!-- Temperature in Degree Celsius -->
     <defs>
      <path d="M -0.296875 72.90625 
L 61.375 72.90625 
L 61.375 64.59375 
L 35.5 64.59375 
L 35.5 0 
L 25.59375 0 
L 25.59375 64.59375 
L -0.296875 64.59375 
z
" id="DejaVuSans-54"/>
      <path d="M 52 44.1875 
Q 55.375 50.25 60.0625 53.125 
Q 64.75 56 71.09375 56 
Q 79.640625 56 84.28125 50.015625 
Q 88.921875 44.046875 88.921875 33.015625 
L 88.921875 0 
L 79.890625 0 
L 79.890625 32.71875 
Q 79.890625 40.578125 77.09375 44.375 
Q 74.3125 48.1875 68.609375 48.1875 
Q 61.625 48.1875 57.5625 43.546875 
Q 53.515625 38.921875 53.515625 30.90625 
L 53.515625 0 
L 44.484375 0 
L 44.484375 32.71875 
Q 44.484375 40.625 41.703125 44.40625 
Q 38.921875 48.1875 33.109375 48.1875 
Q 26.21875 48.1875 22.15625 43.53125 
Q 18.109375 38.875 18.109375 30.90625 
L 18.109375 0 
L 9.078125 0 
L 9.078125 54.6875 
L 18.109375 54.6875 
L 18.109375 46.1875 
Q 21.1875 51.21875 25.484375 53.609375 
Q 29.78125 56 35.6875 56 
Q 41.65625 56 45.828125 52.96875 
Q 50 49.953125 52 44.1875 
z
" id="DejaVuSans-6d"/>
      <path d="M 18.109375 8.203125 
L 18.109375 -20.796875 
L 9.078125 -20.796875 
L 9.078125 54.6875 
L 18.109375 54.6875 
L 18.109375 46.390625 
Q 20.953125 51.265625 25.265625 53.625 
Q 29.59375 56 35.59375 56 
Q 45.5625 56 51.78125 48.09375 
Q 58.015625 40.1875 58.015625 27.296875 
Q 58.015625 14.40625 51.78125 6.484375 
Q 45.5625 -1.421875 35.59375 -1.421875 
Q 29.59375 -1.421875 25.265625 0.953125 
Q 20.953125 3.328125 18.109375 8.203125 
z
M 48.6875 27.296875 
Q 48.6875 37.203125 44.609375 42.84375 
Q 40.53125 48.484375 33.40625 48.484375 
Q 26.265625 48.484375 22.1875 42.84375 
Q 18.109375 37.203125 18.109375 27.296875 
Q 18.109375 17.390625 22.1875 11.75 
Q 26.265625 6.109375 33.40625 6.109375 
Q 40.53125 6.109375 44.609375 11.75 
Q 48.6875 17.390625 48.6875 27.296875 
z
" id="DejaVuSans-70"/>
      <path d="M 18.3125 70.21875 
L 18.3125 54.6875 
L 36.8125 54.6875 
L 36.8125 47.703125 
L 18.3125 47.703125 
L 18.3125 18.015625 
Q 18.3125 11.328125 20.140625 9.421875 
Q 21.96875 7.515625 27.59375 7.515625 
L 36.8125 7.515625 
L 36.8125 0 
L 27.59375 0 
Q 17.1875 0 13.234375 3.875 
Q 9.28125 7.765625 9.28125 18.015625 
L 9.28125 47.703125 
L 2.6875 47.703125 
L 2.6875 54.6875 
L 9.28125 54.6875 
L 9.28125 70.21875 
z
" id="DejaVuSans-74"/>
      <path d="M 8.5 21.578125 
L 8.5 54.6875 
L 17.484375 54.6875 
L 17.484375 21.921875 
Q 17.484375 14.15625 20.5 10.265625 
Q 23.53125 6.390625 29.59375 6.390625 
Q 36.859375 6.390625 41.078125 11.03125 
Q 45.3125 15.671875 45.3125 23.6875 
L 45.3125 54.6875 
L 54.296875 54.6875 
L 54.296875 0 
L 45.3125 0 
L 45.3125 8.40625 
Q 42.046875 3.421875 37.71875 1 
Q 33.40625 -1.421875 27.6875 -1.421875 
Q 18.265625 -1.421875 13.375 4.4375 
Q 8.5 10.296875 8.5 21.578125 
z
M 31.109375 56 
z
" id="DejaVuSans-75"/>
      <path id="DejaVuSans-20"/>
      <path d="M 9.421875 54.6875 
L 18.40625 54.6875 
L 18.40625 0 
L 9.421875 0 
z
M 9.421875 75.984375 
L 18.40625 75.984375 
L 18.40625 64.59375 
L 9.421875 64.59375 
z
" id="DejaVuSans-69"/>
      <path d="M 54.890625 33.015625 
L 54.890625 0 
L 45.90625 0 
L 45.90625 32.71875 
Q 45.90625 40.484375 42.875 44.328125 
Q 39.84375 48.1875 33.796875 48.1875 
Q 26.515625 48.1875 22.3125 43.546875 
Q 18.109375 38.921875 18.109375 30.90625 
L 18.109375 0 
L 9.078125 0 
L 9.078125 54.6875 
L 18.109375 54.6875 
L 18.109375 46.1875 
Q 21.34375 51.125 25.703125 53.5625 
Q 30.078125 56 35.796875 56 
Q 45.21875 56 50.046875 50.171875 
Q 54.890625 44.34375 54.890625 33.015625 
z
" id="DejaVuSans-6e"/>
      <path d="M 19.671875 64.796875 
L 19.671875 8.109375 
L 31.59375 8.109375 
Q 46.6875 8.109375 53.6875 14.9375 
Q 60.6875 21.78125 60.6875 36.53125 
Q 60.6875 51.171875 53.6875 57.984375 
Q 46.6875 64.796875 31.59375 64.796875 
z
M 9.8125 72.90625 
L 30.078125 72.90625 
Q 51.265625 72.90625 61.171875 64.09375 
Q 71.09375 55.28125 71.09375 36.53125 
Q 71.09375 17.671875 61.125 8.828125 
Q 51.171875 0 30.078125 0 
L 9.8125 0 
z
" id="DejaVuSans-44"/>
      <path d="M 45.40625 27.984375 
Q 45.40625 37.75 41.375 43.109375 
Q 37.359375 48.484375 30.078125 48.484375 
Q 22.859375 48.484375 18.828125 43.109375 
Q 14.796875 37.75 14.796875 27.984375 
Q 14.796875 18.265625 18.828125 12.890625 
Q 22.859375 7.515625 30.078125 7.515625 
Q 37.359375 7.515625 41.375 12.890625 
Q 45.40625 18.265625 45.40625 27.984375 
z
M 54.390625 6.78125 
Q 54.390625 -7.171875 48.1875 -13.984375 
Q 42 -20.796875 29.203125 -20.796875 
Q 24.46875 -20.796875 20.265625 -20.09375 
Q 16.0625 -19.390625 12.109375 -17.921875 
L 12.109375 -9.1875 
Q 16.0625 -11.328125 19.921875 -12.34375 
Q 23.78125 -13.375 27.78125 -13.375 
Q 36.625 -13.375 41.015625 -8.765625 
Q 45.40625 -4.15625 45.40625 5.171875 
L 45.40625 9.625 
Q 42.625 4.78125 38.28125 2.390625 
Q 33.9375 0 27.875 0 
Q 17.828125 0 11.671875 7.65625 
Q 5.515625 15.328125 5.515625 27.984375 
Q 5.515625 40.671875 11.671875 48.328125 
Q 17.828125 56 27.875 56 
Q 33.9375 56 38.28125 53.609375 
Q 42.625 51.21875 45.40625 46.390625 
L 45.40625 54.6875 
L 54.390625 54.6875 
z
" id="DejaVuSans-67"/>
      <path d="M 64.40625 67.28125 
L 64.40625 56.890625 
Q 59.421875 61.53125 53.78125 63.8125 
Q 48.140625 66.109375 41.796875 66.109375 
Q 29.296875 66.109375 22.65625 58.46875 
Q 16.015625 50.828125 16.015625 36.375 
Q 16.015625 21.96875 22.65625 14.328125 
Q 29.296875 6.6875 41.796875 6.6875 
Q 48.140625 6.6875 53.78125 8.984375 
Q 59.421875 11.28125 64.40625 15.921875 
L 64.40625 5.609375 
Q 59.234375 2.09375 53.4375 0.328125 
Q 47.65625 -1.421875 41.21875 -1.421875 
Q 24.65625 -1.421875 15.125 8.703125 
Q 5.609375 18.84375 5.609375 36.375 
Q 5.609375 53.953125 15.125 64.078125 
Q 24.65625 74.21875 41.21875 74.21875 
Q 47.75 74.21875 53.53125 72.484375 
Q 59.328125 70.75 64.40625 67.28125 
z
" id="DejaVuSans-43"/>
      <path d="M 9.421875 75.984375 
L 18.40625 75.984375 
L 18.40625 0 
L 9.421875 0 
z
" id="DejaVuSans-6c"/>
      <path d="M 44.28125 53.078125 
L 44.28125 44.578125 
Q 40.484375 46.53125 36.375 47.5 
Q 32.28125 48.484375 27.875 48.484375 
Q 21.1875 48.484375 17.84375 46.4375 
Q 14.5 44.390625 14.5 40.28125 
Q 14.5 37.15625 16.890625 35.375 
Q 19.28125 33.59375 26.515625 31.984375 
L 29.59375 31.296875 
Q 39.15625 29.25 43.1875 25.515625 
Q 47.21875 21.78125 47.21875 15.09375 
Q 47.21875 7.46875 41.1875 3.015625 
Q 35.15625 -1.421875 24.609375 -1.421875 
Q 20.21875 -1.421875 15.453125 -0.5625 
Q 10.6875 0.296875 5.421875 2 
L 5.421875 11.28125 
Q 10.40625 8.6875 15.234375 7.390625 
Q 20.0625 6.109375 24.8125 6.109375 
Q 31.15625 6.109375 34.5625 8.28125 
Q 37.984375 10.453125 37.984375 14.40625 
Q 37.984375 18.0625 35.515625 20.015625 
Q 33.0625 21.96875 24.703125 23.78125 
L 21.578125 24.515625 
Q 13.234375 26.265625 9.515625 29.90625 
Q 5.8125 33.546875 5.8125 39.890625 
Q 5.8125 47.609375 11.28125 51.796875 
Q 16.75 56 26.8125 56 
Q 31.78125 56 36.171875 55.265625 
Q 40.578125 54.546875 44.28125 53.078125 
z
" id="DejaVuSans-73"/>
     </defs>
     <g transform="translate(14.798438 263.372344)rotate(-90)scale(0.1 -0.1)">
      <use xlink:href="#DejaVuSans-54"/>
      <use x="60.818359" xlink:href="#DejaVuSans-65"/>
      <use x="122.341797" xlink:href="#DejaVuSans-6d"/>
      <use x="219.753906" xlink:href="#DejaVuSans-70"/>
      <use x="283.230469" xlink:href="#DejaVuSans-65"/>
      <use x="344.753906" xlink:href="#DejaVuSans-72"/>
      <use x="385.867188" xlink:href="#DejaVuSans-61"/>
      <use x="447.146484" xlink:href="#DejaVuSans-74"/>
      <use x="486.355469" xlink:href="#DejaVuSans-75"/>
      <use x="549.734375" xlink:href="#DejaVuSans-72"/>
      <use x="590.816406" xlink:href="#DejaVuSans-65"/>
      <use x="652.339844" xlink:href="#DejaVuSans-20"/>
      <use x="684.126953" xlink:href="#DejaVuSans-69"/>
      <use x="711.910156" xlink:href="#DejaVuSans-6e"/>
      <use x="775.289062" xlink:href="#DejaVuSans-20"/>
      <use x="807.076172" xlink:href="#DejaVuSans-44"/>
      <use x="884.078125" xlink:href="#DejaVuSans-65"/>
      <use x="945.601562" xlink:href="#DejaVuSans-67"/>
      <use x="1009.078125" xlink:href="#DejaVuSans-72"/>
      <use x="1050.160156" xlink:href="#DejaVuSans-65"/>
      <use x="1111.683594" xlink:href="#DejaVuSans-65"/>
      <use x="1173.207031" xlink:href="#DejaVuSans-20"/>
      <use x="1204.994141" xlink:href="#DejaVuSans-43"/>
      <use x="1274.818359" xlink:href="#DejaVuSans-65"/>
      <use x="1336.341797" xlink:href="#DejaVuSans-6c"/>
      <use x="1364.125" xlink:href="#DejaVuSans-73"/>
      <use x="1416.224609" xlink:href="#DejaVuSans-69"/>
      <use x="1444.007812" xlink:href="#DejaVuSans-75"/>
      <use x="1507.386719" xlink:href="#DejaVuSans-73"/>
     </g>
    </g>
   </g>
   <g id="line2d_45">
    <path clip-path="url(#p26e7d4275d)" d="M 70.434659 118.409034 
L 71.966048 172.586004 
L 73.497438 333.65267 
L 75.028827 142.569034 
L 76.560217 136.712064 
L 78.091606 144.765398 
L 79.622995 108.891458 
L 81.154385 96.445398 
L 82.685774 263.369034 
L 84.217163 171.853883 
L 85.748553 230.42358 
L 87.279942 114.748428 
L 88.811331 126.462367 
L 90.342721 207.727822 
L 91.87411 141.836913 
L 93.4055 152.818731 
L 94.936889 141.104792 
L 96.468278 155.015095 
L 97.999668 260.440549 
L 99.531057 193.817519 
L 101.062446 193.817519 
L 102.593836 182.10358 
L 104.125225 157.211458 
L 105.656614 155.015095 
L 107.188004 114.748428 
L 108.719393 84.731458 
L 110.250783 149.158125 
L 111.782172 152.08661 
L 113.313561 131.587216 
L 116.37634 66.428428 
L 117.907729 163.800549 
L 119.439119 178.442973 
L 120.970508 194.54964 
L 122.501898 181.371458 
L 124.033287 217.977519 
L 125.564676 152.08661 
L 127.096066 168.925398 
L 128.627455 138.176307 
L 130.158844 146.961761 
L 131.690234 172.586004 
L 133.221623 154.282973 
L 134.753012 164.53267 
L 136.284402 154.282973 
L 137.815791 132.319337 
L 139.347181 145.497519 
L 140.87857 151.354489 
L 142.409959 133.78358 
L 143.941349 122.06964 
L 145.472738 133.78358 
L 147.004127 135.979943 
L 148.535517 127.92661 
L 150.066906 128.658731 
L 151.598295 134.515701 
L 153.129685 109.62358 
L 154.661074 130.122973 
L 156.192464 139.640549 
L 157.723853 150.622367 
L 159.255242 198.210246 
L 160.786632 238.476913 
L 162.318021 250.190852 
L 163.84941 254.58358 
L 165.3808 240.673277 
L 166.912189 190.156913 
L 168.443578 201.138731 
L 169.974968 226.762973 
L 171.506357 248.72661 
L 173.037747 245.798125 
L 174.569136 183.567822 
L 176.100525 217.245398 
L 177.631915 198.942367 
L 179.163304 164.53267 
L 180.694693 157.211458 
L 182.226083 191.621155 
L 183.757472 130.855095 
L 185.288861 142.569034 
L 186.820251 144.765398 
L 188.35164 111.819943 
L 189.88303 158.675701 
L 191.414419 175.514489 
L 192.945808 133.051458 
L 194.477198 197.478125 
L 196.008587 211.388428 
L 197.539976 170.38964 
L 199.071366 160.139943 
L 200.602755 215.781155 
L 202.134145 193.085398 
L 203.665534 216.513277 
L 205.196923 206.995701 
L 206.728313 198.210246 
L 208.259702 185.764186 
L 209.791091 193.817519 
L 211.322481 169.657519 
L 212.85387 158.675701 
L 214.385259 196.746004 
L 215.916649 182.10358 
L 217.448038 130.855095 
L 218.979428 164.53267 
L 220.510817 172.586004 
L 222.042206 172.586004 
L 223.573596 178.442973 
L 225.104985 157.94358 
L 226.636374 163.800549 
L 228.167764 168.193277 
L 229.699153 155.747216 
L 231.230542 163.068428 
L 232.761932 171.121761 
L 234.293321 188.69267 
L 235.824711 163.800549 
L 237.3561 152.818731 
L 238.887489 174.050246 
L 240.418879 182.10358 
L 241.950268 203.335095 
L 243.481657 163.068428 
L 245.013047 172.586004 
L 246.544436 157.94358 
L 248.075825 149.890246 
L 249.607215 138.908428 
L 251.138604 152.818731 
L 252.669994 139.640549 
L 254.201383 156.479337 
L 255.732772 162.336307 
L 257.264162 157.211458 
L 258.795551 145.497519 
L 260.32694 139.640549 
L 261.85833 181.371458 
L 263.389719 165.264792 
L 264.921108 131.587216 
L 266.452498 110.355701 
L 267.983887 158.675701 
L 269.515277 162.336307 
L 271.046666 151.354489 
L 274.109445 172.586004 
L 275.640834 187.960549 
L 277.172223 176.978731 
L 278.703613 174.782367 
L 280.235002 177.710852 
L 281.766392 164.53267 
L 283.297781 147.693883 
L 284.82917 173.318125 
L 287.891949 165.996913 
L 289.423338 166.729034 
L 290.954728 159.407822 
L 292.486117 160.139943 
L 294.017506 155.747216 
L 295.548896 149.890246 
L 297.080285 157.94358 
L 298.611675 141.836913 
L 300.143064 134.515701 
L 301.674453 131.587216 
L 303.205843 149.158125 
L 304.737232 155.015095 
L 306.268621 164.53267 
L 309.3314 143.301155 
L 310.862789 174.782367 
L 312.394179 157.211458 
L 313.925568 157.94358 
L 315.456958 155.015095 
L 316.988347 157.94358 
L 318.519736 158.675701 
L 320.051126 149.158125 
L 321.582515 127.92661 
L 323.113904 127.92661 
L 324.645294 154.282973 
L 326.176683 169.657519 
L 327.708072 161.604186 
L 329.239462 143.301155 
L 330.770851 144.765398 
L 332.302241 129.390852 
L 333.83363 141.104792 
L 335.365019 140.37267 
L 336.896409 133.78358 
L 338.427798 132.319337 
L 339.959187 117.676913 
L 341.490577 133.051458 
L 343.021966 124.998125 
L 344.553355 153.550852 
L 346.084745 124.998125 
L 347.616134 118.409034 
L 349.147524 119.141155 
L 350.678913 146.22964 
L 352.210302 124.998125 
L 353.741692 133.051458 
L 355.273081 130.855095 
L 358.33586 108.159337 
L 359.867249 115.480549 
L 361.398639 115.480549 
L 362.930028 114.748428 
L 364.461417 117.676913 
L 365.992807 115.480549 
L 367.524196 108.891458 
L 369.055585 128.658731 
L 370.586975 121.337519 
L 372.118364 112.552064 
L 373.649753 116.21267 
L 375.181143 127.92661 
L 376.712532 144.033277 
L 378.243922 124.998125 
L 379.775311 124.266004 
L 381.3067 107.427216 
L 382.83809 130.122973 
L 384.369479 124.998125 
L 385.900868 150.622367 
L 387.432258 117.676913 
L 388.963647 114.748428 
L 390.495036 117.676913 
L 392.026426 128.658731 
L 393.557815 112.552064 
L 395.089205 116.21267 
L 396.620594 108.159337 
L 398.151983 141.104792 
L 399.683373 132.319337 
L 401.214762 127.194489 
L 402.746151 119.873277 
L 404.277541 133.051458 
L 405.80893 127.194489 
L 407.340319 119.873277 
L 410.403098 134.515701 
L 411.934488 101.570246 
L 413.465877 136.712064 
L 414.997266 116.944792 
L 416.528656 145.497519 
L 418.060045 108.891458 
L 419.591434 120.605398 
L 421.122824 117.676913 
L 422.654213 99.373883 
L 424.185602 85.46358 
L 425.716992 124.266004 
L 427.248381 95.713277 
L 428.779771 120.605398 
L 430.31116 122.801761 
L 433.373939 98.641761 
L 434.905328 83.267216 
L 436.436717 103.76661 
L 437.968107 81.070852 
L 439.499496 84.731458 
L 441.030886 109.62358 
L 442.562275 107.427216 
L 444.093664 94.981155 
L 445.625054 72.285398 
L 447.156443 94.981155 
L 448.687832 83.267216 
L 450.219222 59.839337 
L 451.750611 76.678125 
L 453.282 83.267216 
L 454.81339 67.89267 
L 456.344779 56.178731 
L 457.876169 59.107216 
L 459.407558 74.481761 
L 460.938947 46.661155 
L 462.470337 59.107216 
L 464.001726 44.464792 
L 465.533115 66.428428 
L 467.064505 60.571458 
L 468.595894 46.661155 
L 470.127283 59.839337 
L 471.658673 60.571458 
L 473.190062 53.250246 
L 474.721452 56.178731 
L 476.252841 37.14358 
L 476.252841 37.14358 
" style="fill:none;stroke:#1f77b4;stroke-linecap:square;stroke-width:1.5;"/>
   </g>
   <g id="line2d_46">
    <path clip-path="url(#p26e7d4275d)" d="M 84.217163 168.925398 
L 85.748553 180.126852 
L 87.279942 174.343095 
L 88.811331 153.624064 
L 90.342721 160.139943 
L 91.87411 160.652428 
L 93.4055 161.457761 
L 94.936889 164.679095 
L 96.468278 170.536064 
L 97.999668 170.243216 
L 99.531057 172.43958 
L 101.062446 168.778973 
L 102.593836 175.514489 
L 104.125225 178.589398 
L 105.656614 173.318125 
L 107.188004 170.609277 
L 108.719393 163.800549 
L 110.250783 164.605883 
L 111.782172 164.313034 
L 113.313561 151.427701 
L 114.844951 141.983337 
L 116.37634 129.244428 
L 117.907729 127.414125 
L 119.439119 129.537277 
L 120.970508 133.490731 
L 122.501898 140.153034 
L 124.033287 153.47764 
L 125.564676 153.770489 
L 127.096066 155.454367 
L 128.627455 156.113277 
L 130.158844 160.872064 
L 131.690234 171.487822 
L 133.221623 170.536064 
L 134.753012 169.145034 
L 136.284402 165.118367 
L 137.815791 160.213155 
L 139.347181 152.965155 
L 140.87857 152.891943 
L 142.409959 149.377761 
L 143.941349 147.767095 
L 145.472738 146.449277 
L 147.004127 142.78867 
L 148.535517 140.153034 
L 150.066906 136.56564 
L 151.598295 134.588913 
L 153.129685 132.319337 
L 154.661074 130.781883 
L 156.192464 129.610489 
L 157.723853 131.294367 
L 159.255242 138.908428 
L 160.786632 149.377761 
L 162.318021 160.798852 
L 163.84941 173.464549 
L 165.3808 184.666004 
L 166.912189 190.230125 
L 169.974968 209.04564 
L 171.506357 219.954246 
L 173.037747 229.471822 
L 174.569136 228.00758 
L 176.100525 225.884428 
L 177.631915 220.75958 
L 180.694693 203.408307 
L 182.226083 203.554731 
L 183.757472 196.526367 
L 185.288861 188.106973 
L 186.820251 177.710852 
L 188.35164 164.313034 
L 189.88303 161.823822 
L 191.414419 157.650731 
L 192.945808 151.06164 
L 194.477198 154.356186 
L 196.008587 159.773883 
L 197.539976 157.650731 
L 199.071366 160.579216 
L 200.602755 167.900428 
L 202.134145 172.732428 
L 203.665534 183.201761 
L 205.196923 188.033761 
L 206.728313 190.303337 
L 208.259702 195.57461 
L 209.791091 195.208549 
L 211.322481 191.035458 
L 212.85387 189.864064 
L 214.385259 193.52467 
L 215.916649 190.156913 
L 217.448038 183.933883 
L 218.979428 178.735822 
L 220.510817 175.294852 
L 222.042206 172.732428 
L 223.573596 172.000307 
L 225.104985 168.412913 
L 226.636374 167.827216 
L 228.167764 168.778973 
L 229.699153 164.679095 
L 231.230542 162.77558 
L 232.761932 166.802246 
L 234.293321 169.218246 
L 235.824711 168.339701 
L 237.3561 166.362973 
L 238.887489 165.923701 
L 240.418879 168.339701 
L 241.950268 172.293155 
L 243.481657 171.78067 
L 245.013047 173.464549 
L 246.544436 172.952064 
L 248.075825 170.828913 
L 249.607215 165.850489 
L 251.138604 164.752307 
L 252.669994 163.434489 
L 254.201383 161.677398 
L 255.732772 159.70067 
L 257.264162 155.088307 
L 258.795551 153.331216 
L 260.32694 150.03667 
L 261.85833 152.379458 
L 263.389719 153.916913 
L 264.921108 153.184792 
L 266.452498 148.938489 
L 267.983887 150.842004 
L 269.515277 151.427701 
L 271.046666 150.329519 
L 272.578055 150.768792 
L 274.109445 153.47764 
L 275.640834 158.30964 
L 277.172223 157.870367 
L 278.703613 158.822125 
L 280.235002 163.434489 
L 281.766392 168.852186 
L 283.297781 167.754004 
L 284.82917 168.852186 
L 286.36056 170.682489 
L 287.891949 171.121761 
L 289.423338 170.536064 
L 290.954728 167.680792 
L 292.486117 165.996913 
L 294.017506 164.093398 
L 295.548896 161.311337 
L 298.611675 160.066731 
L 301.674453 152.379458 
L 303.205843 150.69558 
L 304.737232 149.524186 
L 306.268621 150.03667 
L 307.800011 149.450973 
L 309.3314 148.206367 
L 310.862789 150.69558 
L 312.394179 150.622367 
L 313.925568 152.233034 
L 315.456958 154.282973 
L 316.988347 156.91861 
L 318.519736 157.870367 
L 320.051126 157.28467 
L 321.582515 153.624064 
L 323.113904 150.988428 
L 324.645294 152.08661 
L 326.176683 151.574125 
L 327.708072 152.013398 
L 329.239462 150.549155 
L 330.770851 149.524186 
L 332.302241 146.668913 
L 333.83363 144.911822 
L 335.365019 144.033277 
L 336.896409 144.618973 
L 338.427798 145.058246 
L 343.021966 134.076428 
L 344.553355 135.101398 
L 346.084745 133.12467 
L 347.616134 132.026489 
L 349.147524 129.830125 
L 350.678913 130.415822 
L 352.210302 129.537277 
L 353.741692 129.610489 
L 355.273081 130.928307 
L 356.80447 129.610489 
L 358.33586 127.92661 
L 359.867249 124.11958 
L 361.398639 123.167822 
L 362.930028 122.801761 
L 364.461417 122.655337 
L 365.992807 119.580428 
L 367.524196 117.969761 
L 369.055585 117.530489 
L 370.586975 116.578731 
L 372.118364 115.84661 
L 373.649753 116.651943 
L 375.181143 117.896549 
L 376.712532 120.751822 
L 378.243922 121.776792 
L 379.775311 122.435701 
L 381.3067 121.630367 
L 382.83809 123.753519 
L 384.369479 123.387458 
L 385.900868 126.315943 
L 387.432258 126.828428 
L 388.963647 126.682004 
L 390.495036 125.657034 
L 392.026426 124.11958 
L 393.557815 122.874973 
L 395.089205 122.06964 
L 396.620594 122.142852 
L 398.151983 123.241034 
L 399.683373 123.973155 
L 401.214762 121.630367 
L 402.746151 121.850004 
L 404.277541 123.680307 
L 405.80893 124.632064 
L 407.340319 123.753519 
L 408.871709 125.217761 
L 410.403098 127.048064 
L 411.934488 126.389155 
L 413.465877 125.949883 
L 414.997266 124.412428 
L 416.528656 126.242731 
L 418.060045 125.144549 
L 419.591434 123.899943 
L 421.122824 122.948186 
L 422.654213 120.898246 
L 424.185602 116.725155 
L 425.716992 115.700186 
L 427.248381 115.114489 
L 428.779771 113.503822 
L 430.31116 114.089519 
L 431.842549 110.575337 
L 433.373939 109.550367 
L 434.905328 105.816549 
L 436.436717 104.425519 
L 437.968107 102.595216 
L 439.499496 102.522004 
L 441.030886 101.057761 
L 442.562275 102.229155 
L 444.093664 99.666731 
L 445.625054 94.615095 
L 448.687832 91.540186 
L 450.219222 89.197398 
L 451.750611 86.488549 
L 453.282 86.708186 
L 454.81339 85.024307 
L 456.344779 79.679822 
L 457.876169 74.847822 
L 459.407558 72.797883 
L 460.938947 70.235458 
L 462.470337 66.648064 
L 464.001726 62.767822 
L 465.533115 63.426731 
L 467.064505 61.816064 
L 468.595894 58.155458 
L 470.127283 57.350125 
L 471.658673 57.789398 
L 473.190062 57.203701 
L 474.721452 55.373398 
L 476.252841 54.42164 
L 476.252841 54.42164 
" style="fill:none;stroke:#ff7f0e;stroke-linecap:square;stroke-width:1.5;"/>
   </g>
   <g id="patch_3">
    <path d="M 50.14375 348.478125 
L 50.14375 22.318125 
" style="fill:none;stroke:#000000;stroke-linecap:square;stroke-linejoin:miter;stroke-width:0.8;"/>
   </g>
   <g id="patch_4">
    <path d="M 496.54375 348.478125 
L 496.54375 22.318125 
" style="fill:none;stroke:#000000;stroke-linecap:square;stroke-linejoin:miter;stroke-width:0.8;"/>
   </g>
   <g id="patch_5">
    <path d="M 50.14375 348.478125 
L 496.54375 348.478125 
" style="fill:none;stroke:#000000;stroke-linecap:square;stroke-linejoin:miter;stroke-width:0.8;"/>
   </g>
   <g id="patch_6">
    <path d="M 50.14375 22.318125 
L 496.54375 22.318125 
" style="fill:none;stroke:#000000;stroke-linecap:square;stroke-linejoin:miter;stroke-width:0.8;"/>
   </g>
   <g id="text_18">
    <!-- Plot Comparison of Global Trends -->
    <defs>
     <path d="M 19.671875 64.796875 
L 19.671875 37.40625 
L 32.078125 37.40625 
Q 38.96875 37.40625 42.71875 40.96875 
Q 46.484375 44.53125 46.484375 51.125 
Q 46.484375 57.671875 42.71875 61.234375 
Q 38.96875 64.796875 32.078125 64.796875 
z
M 9.8125 72.90625 
L 32.078125 72.90625 
Q 44.34375 72.90625 50.609375 67.359375 
Q 56.890625 61.8125 56.890625 51.125 
Q 56.890625 40.328125 50.609375 34.8125 
Q 44.34375 29.296875 32.078125 29.296875 
L 19.671875 29.296875 
L 19.671875 0 
L 9.8125 0 
z
" id="DejaVuSans-50"/>
     <path d="M 30.609375 48.390625 
Q 23.390625 48.390625 19.1875 42.75 
Q 14.984375 37.109375 14.984375 27.296875 
Q 14.984375 17.484375 19.15625 11.84375 
Q 23.34375 6.203125 30.609375 6.203125 
Q 37.796875 6.203125 41.984375 11.859375 
Q 46.1875 17.53125 46.1875 27.296875 
Q 46.1875 37.015625 41.984375 42.703125 
Q 37.796875 48.390625 30.609375 48.390625 
z
M 30.609375 56 
Q 42.328125 56 49.015625 48.375 
Q 55.71875 40.765625 55.71875 27.296875 
Q 55.71875 13.875 49.015625 6.21875 
Q 42.328125 -1.421875 30.609375 -1.421875 
Q 18.84375 -1.421875 12.171875 6.21875 
Q 5.515625 13.875 5.515625 27.296875 
Q 5.515625 40.765625 12.171875 48.375 
Q 18.84375 56 30.609375 56 
z
" id="DejaVuSans-6f"/>
     <path d="M 37.109375 75.984375 
L 37.109375 68.5 
L 28.515625 68.5 
Q 23.6875 68.5 21.796875 66.546875 
Q 19.921875 64.59375 19.921875 59.515625 
L 19.921875 54.6875 
L 34.71875 54.6875 
L 34.71875 47.703125 
L 19.921875 47.703125 
L 19.921875 0 
L 10.890625 0 
L 10.890625 47.703125 
L 2.296875 47.703125 
L 2.296875 54.6875 
L 10.890625 54.6875 
L 10.890625 58.5 
Q 10.890625 67.625 15.140625 71.796875 
Q 19.390625 75.984375 28.609375 75.984375 
z
" id="DejaVuSans-66"/>
     <path d="M 59.515625 10.40625 
L 59.515625 29.984375 
L 43.40625 29.984375 
L 43.40625 38.09375 
L 69.28125 38.09375 
L 69.28125 6.78125 
Q 63.578125 2.734375 56.6875 0.65625 
Q 49.8125 -1.421875 42 -1.421875 
Q 24.90625 -1.421875 15.25 8.5625 
Q 5.609375 18.5625 5.609375 36.375 
Q 5.609375 54.25 15.25 64.234375 
Q 24.90625 74.21875 42 74.21875 
Q 49.125 74.21875 55.546875 72.453125 
Q 61.96875 70.703125 67.390625 67.28125 
L 67.390625 56.78125 
Q 61.921875 61.421875 55.765625 63.765625 
Q 49.609375 66.109375 42.828125 66.109375 
Q 29.4375 66.109375 22.71875 58.640625 
Q 16.015625 51.171875 16.015625 36.375 
Q 16.015625 21.625 22.71875 14.15625 
Q 29.4375 6.6875 42.828125 6.6875 
Q 48.046875 6.6875 52.140625 7.59375 
Q 56.25 8.5 59.515625 10.40625 
z
" id="DejaVuSans-47"/>
     <path d="M 48.6875 27.296875 
Q 48.6875 37.203125 44.609375 42.84375 
Q 40.53125 48.484375 33.40625 48.484375 
Q 26.265625 48.484375 22.1875 42.84375 
Q 18.109375 37.203125 18.109375 27.296875 
Q 18.109375 17.390625 22.1875 11.75 
Q 26.265625 6.109375 33.40625 6.109375 
Q 40.53125 6.109375 44.609375 11.75 
Q 48.6875 17.390625 48.6875 27.296875 
z
M 18.109375 46.390625 
Q 20.953125 51.265625 25.265625 53.625 
Q 29.59375 56 35.59375 56 
Q 45.5625 56 51.78125 48.09375 
Q 58.015625 40.1875 58.015625 27.296875 
Q 58.015625 14.40625 51.78125 6.484375 
Q 45.5625 -1.421875 35.59375 -1.421875 
Q 29.59375 -1.421875 25.265625 0.953125 
Q 20.953125 3.328125 18.109375 8.203125 
L 18.109375 0 
L 9.078125 0 
L 9.078125 75.984375 
L 18.109375 75.984375 
z
" id="DejaVuSans-62"/>
     <path d="M 45.40625 46.390625 
L 45.40625 75.984375 
L 54.390625 75.984375 
L 54.390625 0 
L 45.40625 0 
L 45.40625 8.203125 
Q 42.578125 3.328125 38.25 0.953125 
Q 33.9375 -1.421875 27.875 -1.421875 
Q 17.96875 -1.421875 11.734375 6.484375 
Q 5.515625 14.40625 5.515625 27.296875 
Q 5.515625 40.1875 11.734375 48.09375 
Q 17.96875 56 27.875 56 
Q 33.9375 56 38.25 53.625 
Q 42.578125 51.265625 45.40625 46.390625 
z
M 14.796875 27.296875 
Q 14.796875 17.390625 18.875 11.75 
Q 22.953125 6.109375 30.078125 6.109375 
Q 37.203125 6.109375 41.296875 11.75 
Q 45.40625 17.390625 45.40625 27.296875 
Q 45.40625 37.203125 41.296875 42.84375 
Q 37.203125 48.484375 30.078125 48.484375 
Q 22.953125 48.484375 18.875 42.84375 
Q 14.796875 37.203125 14.796875 27.296875 
z
" id="DejaVuSans-64"/>
    </defs>
    <g transform="translate(173.015312 16.318125)scale(0.12 -0.12)">
     <use xlink:href="#DejaVuSans-50"/>
     <use x="60.302734" xlink:href="#DejaVuSans-6c"/>
     <use x="88.085938" xlink:href="#DejaVuSans-6f"/>
     <use x="149.267578" xlink:href="#DejaVuSans-74"/>
     <use x="188.476562" xlink:href="#DejaVuSans-20"/>
     <use x="220.263672" xlink:href="#DejaVuSans-43"/>
     <use x="290.087891" xlink:href="#DejaVuSans-6f"/>
     <use x="351.269531" xlink:href="#DejaVuSans-6d"/>
     <use x="448.681641" xlink:href="#DejaVuSans-70"/>
     <use x="512.158203" xlink:href="#DejaVuSans-61"/>
     <use x="573.4375" xlink:href="#DejaVuSans-72"/>
     <use x="614.550781" xlink:href="#DejaVuSans-69"/>
     <use x="642.333984" xlink:href="#DejaVuSans-73"/>
     <use x="694.433594" xlink:href="#DejaVuSans-6f"/>
     <use x="755.615234" xlink:href="#DejaVuSans-6e"/>
     <use x="818.994141" xlink:href="#DejaVuSans-20"/>
     <use x="850.78125" xlink:href="#DejaVuSans-6f"/>
     <use x="911.962891" xlink:href="#DejaVuSans-66"/>
     <use x="947.167969" xlink:href="#DejaVuSans-20"/>
     <use x="978.955078" xlink:href="#DejaVuSans-47"/>
     <use x="1056.445312" xlink:href="#DejaVuSans-6c"/>
     <use x="1084.228516" xlink:href="#DejaVuSans-6f"/>
     <use x="1145.410156" xlink:href="#DejaVuSans-62"/>
     <use x="1208.886719" xlink:href="#DejaVuSans-61"/>
     <use x="1270.166016" xlink:href="#DejaVuSans-6c"/>
     <use x="1297.949219" xlink:href="#DejaVuSans-20"/>
     <use x="1329.736328" xlink:href="#DejaVuSans-54"/>
     <use x="1390.601562" xlink:href="#DejaVuSans-72"/>
     <use x="1431.683594" xlink:href="#DejaVuSans-65"/>
     <use x="1493.207031" xlink:href="#DejaVuSans-6e"/>
     <use x="1556.585938" xlink:href="#DejaVuSans-64"/>
     <use x="1620.0625" xlink:href="#DejaVuSans-73"/>
    </g>
   </g>
   <g id="legend_1">
    <g id="patch_7">
     <path d="M 57.14375 60.230625 
L 219.132813 60.230625 
Q 221.132813 60.230625 221.132813 58.230625 
L 221.132813 29.318125 
Q 221.132813 27.318125 219.132813 27.318125 
L 57.14375 27.318125 
Q 55.14375 27.318125 55.14375 29.318125 
L 55.14375 58.230625 
Q 55.14375 60.230625 57.14375 60.230625 
z
" style="fill:#ffffff;opacity:0.8;stroke:#cccccc;stroke-linejoin:miter;"/>
    </g>
    <g id="line2d_47">
     <path d="M 59.14375 35.416562 
L 79.14375 35.416562 
" style="fill:none;stroke:#1f77b4;stroke-linecap:square;stroke-width:1.5;"/>
    </g>
    <g id="line2d_48"/>
    <g id="text_19">
     <!-- trend_global_unsmoothed -->
     <defs>
      <path d="M 50.984375 -16.609375 
L 50.984375 -23.578125 
L -0.984375 -23.578125 
L -0.984375 -16.609375 
z
" id="DejaVuSans-5f"/>
      <path d="M 54.890625 33.015625 
L 54.890625 0 
L 45.90625 0 
L 45.90625 32.71875 
Q 45.90625 40.484375 42.875 44.328125 
Q 39.84375 48.1875 33.796875 48.1875 
Q 26.515625 48.1875 22.3125 43.546875 
Q 18.109375 38.921875 18.109375 30.90625 
L 18.109375 0 
L 9.078125 0 
L 9.078125 75.984375 
L 18.109375 75.984375 
L 18.109375 46.1875 
Q 21.34375 51.125 25.703125 53.5625 
Q 30.078125 56 35.796875 56 
Q 45.21875 56 50.046875 50.171875 
Q 54.890625 44.34375 54.890625 33.015625 
z
" id="DejaVuSans-68"/>
     </defs>
     <g transform="translate(87.14375 38.916562)scale(0.1 -0.1)">
      <use xlink:href="#DejaVuSans-74"/>
      <use x="39.208984" xlink:href="#DejaVuSans-72"/>
      <use x="80.291016" xlink:href="#DejaVuSans-65"/>
      <use x="141.814453" xlink:href="#DejaVuSans-6e"/>
      <use x="205.193359" xlink:href="#DejaVuSans-64"/>
      <use x="268.669922" xlink:href="#DejaVuSans-5f"/>
      <use x="318.669922" xlink:href="#DejaVuSans-67"/>
      <use x="382.146484" xlink:href="#DejaVuSans-6c"/>
      <use x="409.929688" xlink:href="#DejaVuSans-6f"/>
      <use x="471.111328" xlink:href="#DejaVuSans-62"/>
      <use x="534.587891" xlink:href="#DejaVuSans-61"/>
      <use x="595.867188" xlink:href="#DejaVuSans-6c"/>
      <use x="623.650391" xlink:href="#DejaVuSans-5f"/>
      <use x="673.650391" xlink:href="#DejaVuSans-75"/>
      <use x="737.029297" xlink:href="#DejaVuSans-6e"/>
      <use x="800.408203" xlink:href="#DejaVuSans-73"/>
      <use x="852.507812" xlink:href="#DejaVuSans-6d"/>
      <use x="949.919922" xlink:href="#DejaVuSans-6f"/>
      <use x="1011.101562" xlink:href="#DejaVuSans-6f"/>
      <use x="1072.283203" xlink:href="#DejaVuSans-74"/>
      <use x="1111.492188" xlink:href="#DejaVuSans-68"/>
      <use x="1174.871094" xlink:href="#DejaVuSans-65"/>
      <use x="1236.394531" xlink:href="#DejaVuSans-64"/>
     </g>
    </g>
    <g id="line2d_49">
     <path d="M 59.14375 50.372812 
L 79.14375 50.372812 
" style="fill:none;stroke:#ff7f0e;stroke-linecap:square;stroke-width:1.5;"/>
    </g>
    <g id="line2d_50"/>
    <g id="text_20">
     <!-- global_mov_avg -->
     <defs>
      <path d="M 2.984375 54.6875 
L 12.5 54.6875 
L 29.59375 8.796875 
L 46.6875 54.6875 
L 56.203125 54.6875 
L 35.6875 0 
L 23.484375 0 
z
" id="DejaVuSans-76"/>
     </defs>
     <g transform="translate(87.14375 53.872812)scale(0.1 -0.1)">
      <use xlink:href="#DejaVuSans-67"/>
      <use x="63.476562" xlink:href="#DejaVuSans-6c"/>
      <use x="91.259766" xlink:href="#DejaVuSans-6f"/>
      <use x="152.441406" xlink:href="#DejaVuSans-62"/>
      <use x="215.917969" xlink:href="#DejaVuSans-61"/>
      <use x="277.197266" xlink:href="#DejaVuSans-6c"/>
      <use x="304.980469" xlink:href="#DejaVuSans-5f"/>
      <use x="354.980469" xlink:href="#DejaVuSans-6d"/>
      <use x="452.392578" xlink:href="#DejaVuSans-6f"/>
      <use x="513.574219" xlink:href="#DejaVuSans-76"/>
      <use x="572.753906" xlink:href="#DejaVuSans-5f"/>
      <use x="622.753906" xlink:href="#DejaVuSans-61"/>
      <use x="684.033203" xlink:href="#DejaVuSans-76"/>
      <use x="743.212891" xlink:href="#DejaVuSans-67"/>
     </g>
    </g>
   </g>
  </g>
 </g>
 <defs>
  <clipPath id="p26e7d4275d">
   <rect height="326.16" width="446.4" x="50.14375" y="22.318125"/>
  </clipPath>
 </defs>
</svg>
